<svg xmlns="http://www.w3.org/2000/svg" width="334.057" height="65.798" viewBox="0 0 334.057 65.798"><g transform="translate(-1184.643 -18.96)"><path d="M1489.981,22.49h-4.787v-1.6c.469,0,.939-.094,1.314-.094h11.827a1.462,1.462,0,0,1,1.689,1.126c1.877,5.913,3.848,11.827,5.726,17.74.094.188.094.282.281.657.188-.469.375-.845.469-1.126,1.877-5.726,3.755-11.451,5.538-17.177.282-.939.657-1.22,1.6-1.22,4.036.094,8.072,0,12.2,0v1.6h-4.13V53.464h4.13v1.69H1508.66v-1.6h4.318V25.587c-.094,0-.094-.094-.188-.094-.094.375-.282.751-.375,1.22-2.91,9.1-5.819,18.209-8.823,27.314-.188.469-.563,1.032-.939,1.126-.845.282-.939-.657-1.032-1.126-3.1-9.48-6.195-19.054-9.292-28.534a8.014,8.014,0,0,1-.281-.845,9.026,9.026,0,0,0-.188,1.126V49.8c0,3.285.375,3.567,3.567,3.755a4.6,4.6,0,0,1,1.032.094v1.6H1485.1v-1.5c.938-.094,1.783-.094,2.722-.188,1.69-.188,1.971-.469,2.159-2.159V23.991a4.036,4.036,0,0,0,0-1.5Z" transform="translate(-98.652 -1.089)" fill="#303030"/><path d="M1579.15,53.727h2.722v1.6h-9.762V52.6c-1.126,1.783-2.253,3-4.13,3.285a6.745,6.745,0,0,1-6.195-2.347c-4.224-4.412-4.411-12.578-.281-17.083,2.253-2.44,6.57-4.13,10.512-.188v-13.7h-3.942c0-.563-.094-1.032-.094-1.5,3.755-.188,7.321-.375,11.17-.563Zm-12.484-8.917v6.852c0,.282.094.563.094.751.375,1.69,1.5,2.159,3,1.126a4.67,4.67,0,0,0,2.065-3.379c.094-3.379.188-6.758.094-10.231a5.539,5.539,0,0,0-.657-2.347c-.657-1.408-2.065-2.347-3-2.065-1.5.469-1.5,1.783-1.6,3-.094,2.065,0,4.13,0,6.289Z" transform="translate(-103.158 -1.071)" fill="#303030"/><path d="M1280.049,22.59c-4.13-.563-7.04,2.628-8.542,9.386H1270.1V20.9h28.534V31.976c-.939.375-1.408,0-1.783-1.126a26.679,26.679,0,0,0-2.534-5.819c-1.22-1.971-3.191-2.722-5.632-2.534V53.47h4.975v1.69h-18.585v-1.6h4.975V22.59Z" transform="translate(-85.457 -1.096)" fill="#303030"/><path d="M1340.8,75.132h-9.574c-.751,3.755-1.6,7.415-2.441,11.264h3.285c.094.094.188.282.281.375-.375.282-.657.939-1.032.939-3.942.094-7.885,0-11.921,0,.094-.469.188-.845.282-1.22l.188-.094c2.722-.188,2.722-.188,3.285-2.816,1.408-6.57,2.816-13.047,4.224-19.617a1.832,1.832,0,0,1,.094-.657h-3.285c-.094-.094-.187-.282-.282-.375.282-.375.657-1.032.939-1.032,4.036-.094,8.072,0,12.108,0-.188,2.44-2.065.845-3.191,1.69-.657,3.1-1.408,6.477-2.159,10.043h6.1c3.473,0,3.473,0,4.224-3.379.469-2.253.939-4.505,1.408-6.852h-3.473a8.744,8.744,0,0,0,.188-1.314h12.484c0,1.032,0,1.032-3,1.5-1.6,7.509-3.191,15.112-4.881,22.9h3.379a8.736,8.736,0,0,0-.188,1.314h-12.578c.188-2.44,2.159-.657,3.191-1.69.751-3.473,1.5-7.134,2.346-10.982Z" transform="translate(-88.482 -3.609)" fill="#303030"/><path d="M1336.222,53.75a10.462,10.462,0,0,1-8.448,2.91c-2.253-.282-3.942-1.22-4.693-3.473a5.463,5.463,0,0,1,1.69-5.913c2.159-1.783,4.787-2.347,7.415-2.722,1.126-.188,2.253-.188,3.473-.375,0-2.159.094-4.412,0-6.57,0-.375-.563-1.126-.939-1.126a13.973,13.973,0,0,0-3.942.282c-.751.188-.939.751-.375,1.5,1.032,1.408,1.032,2.722-.094,3.848a3.823,3.823,0,0,1-4.6.657,2.98,2.98,0,0,1-1.314-3.848,6.682,6.682,0,0,1,2.628-2.722c3.191-1.877,6.852-1.69,10.325-1.314,4.6.563,5.632,1.783,5.538,6.383-.094,2.91,0,5.819,0,8.823v1.032c.188,2.065.845,2.534,2.722,1.971.751.657.751,1.22,0,1.877a5.933,5.933,0,0,1-8.635-.375,7.7,7.7,0,0,1-.751-.845Zm-.469-8.072c-1.032.188-1.971.188-2.816.375-2.347.469-3.379,1.877-3.191,4.318.188,1.971,1.314,3.191,3,3.191a2.88,2.88,0,0,0,3-3.1c.094-1.5,0-3,0-4.787Z" transform="translate(-88.69 -1.938)" fill="#303030"/><path d="M1554.107,53.095a9.874,9.874,0,0,0,.657,1.032c-2.816,3.567-6.852,3.473-10.137-.375a11.116,11.116,0,0,1-7.04,3c-4.224.188-6.946-2.628-6.195-6.477a5.185,5.185,0,0,1,3.661-4.13,75.9,75.9,0,0,1,7.7-1.783,7.159,7.159,0,0,1,1.6-.094c-.094-2.159-.094-4.318-.375-6.477a1.949,1.949,0,0,0-1.5-1.314,10.965,10.965,0,0,0-3.473.375c-.657.188-.939.751-.375,1.408,1.22,1.6,1.033,3.1-.375,4.224a3.681,3.681,0,0,1-4.693,0,3.093,3.093,0,0,1-.375-4.318,8.092,8.092,0,0,1,2.816-2.253,18.374,18.374,0,0,1,12.859-.188c1.877.657,2.44,2.253,2.44,4.13V51.124c.094,2.065.845,2.628,2.816,1.971Zm-9.762-7.415c-1.22.188-2.159.282-3,.375-2.816.469-3.754,2.628-3,5.444a2.772,2.772,0,0,0,3,2.065,2.635,2.635,0,0,0,2.628-2.347,48.26,48.26,0,0,0,.375-5.538Z" transform="translate(-101.485 -1.94)" fill="#303030"/><path d="M1441.287,63.408c-.187-1.032.188-1.408,1.126-1.408h14.549c2.253,0,4.6.375,6.1,2.44,2.534,3.379,1.408,7.884-2.722,9.856a24.488,24.488,0,0,1-6.383,1.6,38.461,38.461,0,0,1-4.693.188c-.375,0-.938.282-.938.563-.751,3.191-1.408,6.383-2.159,9.762h3.473c.094.188.188.282.281.469-.375.282-.751.845-1.126.845-4.036.094-8.166,0-12.3,0,.375-2.44,2.347-.751,3.473-1.69,1.6-7.321,3.191-14.924,4.881-22.715-1.314.094-2.44.094-3.567.094Zm7.321,11.357a32.423,32.423,0,0,0,5.35-.469,3.315,3.315,0,0,0,2.346-1.783,42.468,42.468,0,0,0,1.5-6.852,1.733,1.733,0,0,0-1.689-2.065c-1.6-.188-3.285-.188-4.975-.282C1450.3,67.162,1449.453,70.729,1448.608,74.765Z" transform="translate(-95.669 -3.618)" fill="#303030"/><path d="M1406.186,53.627c.845,0,1.5.094,2.159.094v1.5h-11.451a8.6,8.6,0,0,0-.094-1.5c.751,0,1.408-.094,2.253-.094V22.559c-.657,0-1.408-.094-2.159-.094v-1.5q4.505-.282,9.292-.563V53.627Z" transform="translate(-93.233 -1.065)" fill="#303030"/><path d="M1421.392,53.627c.751,0,1.408.094,2.065.094v1.5H1412.1v-1.5c.657,0,1.314-.094,2.159-.094V22.559c-.657,0-1.314-.094-2.065-.094v-1.5q4.505-.282,9.292-.563c-.094,11.076-.094,22.058-.094,33.227Z" transform="translate(-94.172 -1.065)" fill="#303030"/><path d="M1606.372,49.166c-.657,4.505-4.411,7.6-9.48,7.7a10.507,10.507,0,0,1-10.607-8.729c-1.032-5.35,1.69-10.794,6.477-12.578,5.913-2.159,13.328.845,13.7,9.2h-12.672c.282,2.816.375,5.444.751,8.072.188,1.5,1.408,1.971,2.816,2.159,3,.282,5.82-1.5,7.321-4.787.375-1.22.375-1.22,1.69-1.032Zm-12.578-6.289h5.632c-.188-1.69-.188-3.285-.469-4.787-.188-1.22-1.22-1.783-2.534-1.783A2.021,2.021,0,0,0,1594.17,38C1593.983,39.592,1593.888,41.188,1593.795,42.877Z" transform="translate(-104.849 -1.954)" fill="#303030"/><path d="M1434.795,44.649c.094,2.534.188,4.975.469,7.227.282,2.065,1.314,3,3.473,2.91a7.119,7.119,0,0,0,6.758-4.693c.375-.939.939-1.314,1.877-.939a8.96,8.96,0,0,1-7.6,7.509c-5.444.751-9.856-1.6-11.827-6.57a11.252,11.252,0,0,1,3.661-13.422,10.013,10.013,0,0,1,10.794-.751c3.473,1.69,4.881,4.787,5.162,8.635C1443.336,44.649,1439.206,44.649,1434.795,44.649Zm5.726-1.783c-.094-1.69-.188-3.191-.375-4.693A2.2,2.2,0,0,0,1437.7,36.3c-1.22,0-2.253.469-2.44,1.69a41.123,41.123,0,0,0-.375,4.881Z" transform="translate(-95.091 -1.942)" fill="#303030"/><path d="M1393.36,44.65h-12.765c.188,2.816.375,5.444.657,8.072a2.392,2.392,0,0,0,2.065,1.971c3.1.751,6.57-1.032,8.072-4.6.469-.939.939-1.22,1.877-.939a8.871,8.871,0,0,1-7.791,7.509c-5.444.657-9.668-1.69-11.733-6.57a11.245,11.245,0,0,1,3.567-13.328c3.379-2.534,7.04-2.628,10.794-.845,3.473,1.69,4.881,4.787,5.256,8.729Zm-7.04-1.783c-.188-1.69-.188-3.285-.469-4.787-.188-1.22-1.22-1.783-2.534-1.783-1.22,0-2.159.563-2.253,1.783-.188,1.6-.188,3.191-.282,4.787Z" transform="translate(-91.764 -1.943)" fill="#303030"/><path d="M1459.874,54.5h3.942a8.084,8.084,0,0,0,.094,1.5h-13.516a9.137,9.137,0,0,0-.094-1.5c.845,0,1.69-.094,2.628-.094V37.135c-.751-.094-1.6-.094-2.534-.188v-1.6h9.2v4.318h.188a22.894,22.894,0,0,1,.939-2.253,4.724,4.724,0,0,1,3.379-2.722,3.485,3.485,0,0,1,3.755,1.408,4.342,4.342,0,0,1,.469,4.505,2.568,2.568,0,0,1-3.567,1.22,3,3,0,0,1-1.314-3.942,8.254,8.254,0,0,1,.563-.939,1.3,1.3,0,0,1-.282-.375c-.563.375-1.22.563-1.5,1.032a13.685,13.685,0,0,0-1.69,4.036c-.282,4.318-.375,8.541-.657,12.859Z" transform="translate(-96.517 -1.937)" fill="#303030"/><path d="M1310.274,54.505h3.848c0,.563.094.939.094,1.5H1300.7V54.6h2.534V37.14c-.751-.094-1.6-.094-2.534-.188v-1.6h9.292v4.318h.188a14.976,14.976,0,0,1,.939-2.159,4.912,4.912,0,0,1,4.13-2.816,3.546,3.546,0,0,1,3.379,2.065,3.993,3.993,0,0,1-.281,4.318,2.489,2.489,0,0,1-3.379.563,2.963,2.963,0,0,1-1.032-3.942c.188-.282.375-.563.657-.939a1.459,1.459,0,0,0-1.971.939,14.412,14.412,0,0,0-1.6,4.787c-.563,4.036-.563,7.978-.751,12.014Z" transform="translate(-87.335 -1.942)" fill="#303030"/><path d="M1347.1,37.1v-1.5h12.765c0,.469.094.939.094,1.5-.938,0-1.783.094-2.816.188,1.6,3.473,3.191,6.852,4.881,10.419.563-1.314,1.126-2.44,1.6-3.567.657-1.6,1.314-3.1,2.065-4.693.751-1.783.469-2.253-1.5-2.347A4.6,4.6,0,0,1,1363.15,37V35.5h7.885v1.6c-2.534-.563-3.1,1.314-3.848,3l-6.477,15.206c-.282.657-.282,1.69-1.314,1.408a2.563,2.563,0,0,1-1.314-1.314c-2.628-5.538-5.256-11.17-7.791-16.708-.469-1.126-1.032-1.877-2.44-1.6a2,2,0,0,1-.751,0Z" transform="translate(-90.183 -1.992)" fill="#303030"/><path d="M1532.017,73.185c-.188.751-.375,1.6-.563,2.628.657-.469,1.22-.939,1.69-1.314a7.451,7.451,0,0,1,5.444-1.5c2.159.188,3.285,1.6,2.91,3.661-.563,2.91-1.314,5.726-1.971,8.541-.094.375.094.751.094,1.22.469-.188,1.032-.188,1.314-.469a14.179,14.179,0,0,0,1.689-2.44c.375-.845.845-.845,1.6-.375a9.261,9.261,0,0,1-4.036,5.162,6.017,6.017,0,0,1-2.816.751,2.768,2.768,0,0,1-3-3.285c.375-2.534,1.126-5.162,1.689-7.7a19.751,19.751,0,0,0,.563-2.253c.188-.845-.188-1.22-1.032-1.126a7.591,7.591,0,0,0-4.975,4.6c-.657,2.722-1.408,5.538-1.971,8.26-.188.845-.563,1.126-1.408,1.032-1.314-.094-2.628,0-4.13,0,1.126-4.693,2.159-9.2,3.285-13.986h-2.816a.488.488,0,0,1-.188-.375c.282-.282.563-.939.845-.939,2.534-.094,5.069-.094,7.791-.094Z" transform="translate(-100.984 -4.291)" fill="#303030"/><path d="M1477.346,74.387c0-.939.751-1.22,1.877-1.126s2.347,0,3.661,0q-1.267,4.928-2.534,9.574a22.348,22.348,0,0,0-.469,2.44,3.323,3.323,0,0,0,.282,1.032c.375-.094.939-.188,1.126-.469.657-.939,1.22-1.971,1.877-3,.845.282,1.22.751.563,1.6a19.014,19.014,0,0,1-1.971,2.816c-2.253,2.347-5.256,1.971-7.04-.845a6.32,6.32,0,0,1-5.256,2.347,5.477,5.477,0,0,1-5.162-5.162,10.59,10.59,0,0,1,5.162-9.668,6.016,6.016,0,0,1,4.881-1.126,22.577,22.577,0,0,1,3,1.6Zm-.563,2.628a2.978,2.978,0,0,0-2.065-2.628,2.016,2.016,0,0,0-2.44,1.408c-.939,3.379-1.971,6.664-2.722,10.137-.375,1.408.751,2.253,2.065,1.6a6.032,6.032,0,0,0,2.628-2.44C1475.281,82.459,1475.938,79.644,1476.783,77.015Z" transform="translate(-97.375 -4.272)" fill="#303030"/><path d="M1364.973,72.8c.939.094,1.69.094,2.346.188,5.726,1.22,6.2,6.007,4.412,9.762-2.159,4.505-8.166,7.134-13.047,5.819-4.13-1.126-6.007-5.162-4.036-9.292,2.159-4.318,5.913-6.195,10.325-6.477Zm2.628,3.473c-.282-1.408-.938-2.253-2.346-2.347-1.5-.094-2.91.375-3.285,1.783a91.734,91.734,0,0,0-2.534,9.668c-.281,1.408.751,2.253,2.253,2.253a2.954,2.954,0,0,0,3-1.69C1365.724,82.843,1366.663,79.558,1367.6,76.273Z" transform="translate(-90.598 -4.281)" fill="#303030"/><path d="M1423.749,82.8a30.6,30.6,0,0,1-3.379,4.13,6.2,6.2,0,0,1-3.473,1.22,2.655,2.655,0,0,1-3-3.473c.657-3,1.5-5.913,2.253-8.917,1.032-3.755,2.065-7.6,3.1-11.357.094-.375.188-.751.282-1.22-.845-.094-1.6-.094-2.722-.188.563-.563.845-1.032,1.126-1.126,2.253-.188,4.411-.375,6.664-.469a2.333,2.333,0,0,1,.751.094c-.845,3.285-1.783,6.477-2.628,9.668-1.126,4.224-2.347,8.448-3.473,12.671a2.777,2.777,0,0,0-.188.939,1.874,1.874,0,0,0,.188.845,1.091,1.091,0,0,0,.939-.188,23.223,23.223,0,0,0,1.783-2.44c.469-.751.469-.751,1.784-.188Z" transform="translate(-94.276 -3.581)" fill="#303030"/><path d="M1398.606,81.81a24.223,24.223,0,0,0-.469,3.379c-.094,1.5.563,2.159,2.159,2.159,3,.188,5.256-1.314,7.133-3.473.563-.657,1.032-.657,1.6.094a11,11,0,0,1-8.917,4.881,7.783,7.783,0,0,1-5.35-1.314c-2.065-1.6-2.722-4.318-1.69-7.134,1.877-5.444,6.852-8.448,13.047-7.415a3.485,3.485,0,0,1,3.1,2.816c.375,1.971-.282,3.755-2.065,4.505a20.559,20.559,0,0,1-5.256,1.314,9.421,9.421,0,0,1-3.285.188Zm.469-1.22c3.191.375,5.538-1.032,6.195-3.661a2.242,2.242,0,0,0-.938-2.722,2.5,2.5,0,0,0-3.1.657,15.1,15.1,0,0,0-2.159,5.726Z" transform="translate(-92.975 -4.28)" fill="#303030"/><path d="M1564.327,84.067a10.677,10.677,0,0,1-8.917,4.787,7.985,7.985,0,0,1-5.256-1.22c-2.065-1.6-2.816-4.224-1.783-7.134,1.783-5.35,6.758-8.541,13.141-7.415a3.485,3.485,0,0,1,3,2.91c.282,1.971-.375,3.754-2.065,4.505a25.356,25.356,0,0,1-5.256,1.314,17.037,17.037,0,0,1-3.1,0,26.685,26.685,0,0,0-.469,3.567c-.094,1.314.657,1.877,1.877,1.971,3.1.188,5.35-1.22,7.321-3.379C1563.294,83.316,1563.764,83.129,1564.327,84.067Zm-9.949-3.473c3.1.469,5.444-.939,6.195-3.473a2.5,2.5,0,0,0-.845-2.91,2.564,2.564,0,0,0-3.191.751,12.591,12.591,0,0,0-2.159,5.632Z" transform="translate(-102.507 -4.285)" fill="#303030"/><path d="M1388.6,82a5.464,5.464,0,0,1,1.032.469,7.826,7.826,0,0,1-7.885,5.913c-2.628-.094-4.13-1.877-3.567-4.505.657-2.91,1.408-5.819,2.065-8.823a8.152,8.152,0,0,0,.188-.939H1377.9c0-1.22,0-1.22,2.91-1.314.282-1.032.469-2.159.845-3.191a1.224,1.224,0,0,1,.938-.845c1.5-.188,2.91-.282,4.6-.469-.376,1.6-.657,3-1.032,4.505h3.848c.094,1.032-.188,1.314-1.126,1.314-3.1,0-3.1.094-3.848,3.1-.657,2.44-1.22,4.881-1.783,7.415-.094.469-.094,1.408.094,1.5a1.787,1.787,0,0,0,1.69-.094,29.479,29.479,0,0,0,2.91-3c.281-.188.375-.563.657-1.032Z" transform="translate(-92.073 -4.004)" fill="#303030"/><path d="M1516.554,72.9h3.848c.094,1.032-.282,1.314-1.126,1.314-3,0-3,.094-3.755,3-.657,2.534-1.22,4.975-1.877,7.509-.094.469-.094,1.408.094,1.5a2.073,2.073,0,0,0,1.69-.094,32.732,32.732,0,0,0,3-3.285,5.24,5.24,0,0,0,.469-.751c.375.094.751.282,1.032.375a7.8,7.8,0,0,1-7.885,5.913c-2.628-.188-4.036-1.877-3.473-4.505.657-2.91,1.314-5.819,2.065-8.635.094-.282.094-.563.188-1.032H1508.2c.375-2.253,2.065-.751,3.191-1.6a30.853,30.853,0,0,1,.845-3,1.358,1.358,0,0,1,.751-.845c1.5-.188,3-.282,4.693-.469-.375,1.6-.751,3.1-1.126,4.6Z" transform="translate(-100.07 -4.004)" fill="#303030"/><path d="M1497.3,73.187c-.188.845-.469,1.877-.657,2.91a10.354,10.354,0,0,1,2.44-2.159,8.246,8.246,0,0,1,3.285-.939,2.136,2.136,0,0,1,2.253,1.877c.188,1.126,0,2.253-1.22,2.722a2.268,2.268,0,0,1-2.91-.845c-1.22-1.5-1.877-1.6-2.816.094a61.736,61.736,0,0,0-3,6.758c-.469,1.314-.657,2.722-1.126,4.036a1.114,1.114,0,0,1-.939.751c-1.408.094-2.91,0-4.505,0,1.22-4.693,2.44-9.292,3.661-13.986-.939,0-1.69-.094-3-.188.469-.563.751-1.126.939-1.126,2.534,0,5.069.094,7.6.094Z" transform="translate(-98.836 -4.292)" fill="#303030"/><path d="M1572.648,74.495c-.939-.094-1.783-.094-2.91-.188a8.389,8.389,0,0,1,.845-1.126c2.534-.094,5.069,0,7.6,0-.188.845-.375,1.783-.657,2.722.094.094.188.094.188.188.657-.751,1.314-1.408,1.971-2.065a4.379,4.379,0,0,1,3.379-1.126,2.324,2.324,0,0,1,2.347,1.971,2.226,2.226,0,0,1-1.22,2.628,2.444,2.444,0,0,1-3-.845c-1.22-1.408-1.6-1.408-2.816.094a18.416,18.416,0,0,0-3,6.946c-.375,1.314-.657,2.722-1.126,4.036-.094.282-.563.751-.845.751-1.5.094-3,0-4.6,0,1.408-4.787,2.628-9.386,3.848-13.986Z" transform="translate(-103.789 -4.286)" fill="#303030"/><path d="M1615.7,20a9.058,9.058,0,1,1-9.1,9.011A8.975,8.975,0,0,1,1615.7,20Zm7.791,9.011a7.885,7.885,0,1,0-7.885,7.978,7.871,7.871,0,0,0,7.885-7.978Z" transform="translate(-106.109 -1.04)" fill="#303030"/><path d="M1611.545,24.2c1.783,0,3.848-.094,5.913,0a2.507,2.507,0,0,1,2.628,2.253,2.606,2.606,0,0,1-1.69,2.91,1.294,1.294,0,0,1-.375.282c.375.845.845,1.6,1.314,2.44.469.751,1.032,1.5,1.5,2.253-2.159.657-2.816.375-3.848-1.5-.563-1.032-1.126-2.065-1.69-3.191a3.306,3.306,0,0,0,1.314,4.787H1610.7c1.971-.657,1.6-2.159,1.6-3.379,0-1.6.094-3.191,0-4.693-.188-.845-.563-1.5-.751-2.159Zm3.285,4.787c1.784.094,2.628-.657,2.628-2.253s-.845-2.253-2.628-2.065Z" transform="translate(-106.36 -1.295)" fill="#303030"/></g></svg>