<svg xmlns="http://www.w3.org/2000/svg" xmlns:xlink="http://www.w3.org/1999/xlink" width="146.806" height="153.147" viewBox="0 0 146.806 153.147"><defs><clipPath id="a"><rect width="146.806" height="153.148" fill="#303030"/></clipPath></defs><g transform="translate(-424 -25.468)"><g transform="translate(424 25.468)"><g clip-path="url(#a)"><path d="M104.647,64.764C97.43,66.888,88.6,70.5,86.1,78.5a10.662,10.662,0,0,0,3.793,11.244c3.75,3,9.567,4.033,13.831,2.077a10.053,10.053,0,0,0,5.752-6.674,8.893,8.893,0,0,1-9.822-.031,8.623,8.623,0,0,1-3.422-7.167c.46-5.505,6.291-9.619,11.1-11.013a22.555,22.555,0,0,1,5.226-.922c-1.108,5.412-5.748,10.978-10.731,13.667,0,0,3.932,1.638,10.086-.349a37.775,37.775,0,0,0,4.066,12.081,37.766,37.766,0,0,0,4.066-12.081c6.155,1.987,10.086.349,10.086.349-4.984-2.689-9.623-8.256-10.731-13.667a22.551,22.551,0,0,1,5.226.922c4.814,1.394,10.642,5.508,11.1,11.013a8.625,8.625,0,0,1-3.424,7.167,8.893,8.893,0,0,1-9.822.031,10.058,10.058,0,0,0,5.752,6.674c4.264,1.956,10.081.927,13.831-2.077A10.661,10.661,0,0,0,145.856,78.5c-2.5-8-11.331-11.61-18.551-13.735h.007c11.24-1.021,21.879-3.991,30.068-12.075,6.1-6.476,10.04-15.634,6.474-24.562-2.173-6.105-8.319-10.11-14.57-10.452-14.934-.818-21.773,13.964-22.573,18.638,0,0,7.955-9.733,19.1-7.167a10.648,10.648,0,0,1,7.726,7.261c1.568,6.615-1.067,12.72-5.922,17.3-7.08,5.876-15.772,8.142-24.887,8.925.233-4.851,1.431-9.294,4.487-12.9,2.177-2.45,5.3-4.151,8.2-3.553a4.483,4.483,0,0,1,3.494,4.855,7.229,7.229,0,0,1-2.746,4.4c5.028-.5,10.16-4.635,11.455-9.4,1.516-5.957-3.525-12.57-11.658-10.692-11.824,2.733-15.4,16.361-16.045,27.465-.4.026-.8.046-1.186.056-2.635-12.769,3.773-23.168,6.41-34.456h0c2.292-9.846-2.82-20.512-9.159-28.4-6.336,7.889-11.449,18.555-9.159,28.4,2.629,11.29,9.046,21.687,6.409,34.456-.384-.011-.781-.03-1.187-.056C111.4,51.7,107.823,38.068,96,35.335,87.865,33.457,82.824,40.07,84.34,46.027c1.3,4.766,6.426,8.9,11.454,9.4a7.23,7.23,0,0,1-2.744-4.4,4.483,4.483,0,0,1,3.494-4.855c2.89-.6,6.02,1.1,8.195,3.553,3.058,3.61,4.253,8.053,4.489,12.9-9.115-.783-17.807-3.049-24.887-8.925-4.857-4.579-7.49-10.684-5.922-17.3a10.642,10.642,0,0,1,7.726-7.261c11.148-2.565,19.1,7.167,19.1,7.167-.8-4.674-7.639-19.456-22.573-18.638-6.251.343-12.4,4.347-14.568,10.452-3.566,8.928.371,18.086,6.472,24.562,8.188,8.084,18.83,11.054,30.07,12.075" transform="translate(-42.576)" fill="#303030"/><path d="M322.318,295.917a5.02,5.02,0,0,0,1.365,2.561,3.71,3.71,0,0,0,1.764-2.62,1.475,1.475,0,0,0-1.566-1.649c-.968,0-1.564.541-1.564,1.708M325.7,308.21l-3.444-5.124c-1.592.855-2.218,1.68-2.218,3.246,0,1.594,1.2,2.617,3.272,2.617a5.14,5.14,0,0,0,2.391-.74m5.35.484,2.391,3.473H328.38l-.713-1.053a11.444,11.444,0,0,1-5.292,1.393c-3.73,0-6.718-2.334-6.718-5.948,0-3.073,1.708-4.781,4.441-6.26a6.37,6.37,0,0,1-1.736-4.3c0-3.3,2.277-4.953,5.492-4.953A4.83,4.83,0,0,1,328.978,296c.028,2.076-1.481,3.954-3.1,5.093l3.161,4.611a34.06,34.06,0,0,0,2.674-2.79l2.362,2.648a30.571,30.571,0,0,1-3.016,3.13" transform="translate(-201.336 -185.64)" fill="#303030"/><path d="M49.008,295.568H46.092V300.6h2.916a2.448,2.448,0,0,0,2.6-2.659,2.4,2.4,0,0,0-2.6-2.375m2.89,17.02-5.806-9.868v9.868H41.514V291.705h7.494c4.378,0,7.18,2.633,7.18,6.238a5.9,5.9,0,0,1-4.663,5.92l5.549,8.725Z" transform="translate(-26.479 -186.058)" fill="#303030"/><path d="M134.8,312.591v-20.88h4.576v17.018h7.438v3.863Z" transform="translate(-85.977 -186.062)" fill="#303030"/><path d="M182.757,298.375c-.229-.744-.458-1.688-.458-1.688s-.2.916-.43,1.688l-1.573,5.091h4Zm4.29,14.217-1.6-5.263h-6.351l-1.629,5.263h-4.833l7.464-20.88H184.5l7.579,20.88Z" transform="translate(-110.11 -186.062)" fill="#303030"/><rect width="4.576" height="20.881" transform="translate(84.548 105.648)" fill="#303030"/><path d="M260.516,312.328a10.924,10.924,0,0,1-7.008-2.6l2.373-3.2a8.064,8.064,0,0,0,4.72,1.8c2.089,0,2.661-.716,2.661-1.974,0-2.087-3.8-2.8-5.549-3.776-2.09-1.145-3.747-2.458-3.747-5.778,0-4.29,3.747-6.035,7.436-6.035a10.5,10.5,0,0,1,6.038,1.8l-2.061,3.4a7.039,7.039,0,0,0-3.976-1.2c-2.116,0-2.859,1.2-2.859,2.03,0,1.887,2.661,2.461,5.091,3.518,2.031.888,4.206,2.319,4.206,5.75,0,3.948-2.8,6.264-7.322,6.264" transform="translate(-161.695 -185.456)" fill="#303030"/><path d="M10.67,384.879c-6.35,0-10.67-4.205-10.67-10.9a10.385,10.385,0,0,1,10.585-10.668,9.689,9.689,0,0,1,7.523,3.089l-2.576,3a6.682,6.682,0,0,0-4.947-2.087c-3.577,0-5.865,2.831-5.865,6.663,0,4.291,2.09,6.895,5.95,6.895a6.906,6.906,0,0,0,5.263-2.373l2.633,3a9.968,9.968,0,0,1-7.9,3.374" transform="translate(0 -231.731)" fill="#303030"/><path d="M120.08,370.923c-.229-.742-.458-1.688-.458-1.688s-.2.916-.43,1.688l-1.573,5.093h4Zm4.29,14.217-1.6-5.263h-6.351l-1.629,5.263h-4.836l7.466-20.881h4.406L129.4,385.14Z" transform="translate(-70.131 -232.335)" fill="#303030"/><path d="M162.086,364.258v3.861h4.149v17.02h4.576v-17.02h4.033v-3.861Z" transform="translate(-103.383 -232.335)" fill="#303030"/><path d="M254.983,370.923c-.229-.742-.458-1.688-.458-1.688s-.2.916-.43,1.688l-1.573,5.093h4Zm4.29,14.217-1.6-5.263h-6.351l-1.629,5.263h-4.836l7.466-20.881h4.406l7.579,20.881Z" transform="translate(-156.177 -232.335)" fill="#303030"/><path d="M309.467,385.486c-4.805,0-8.925-3.091-8.925-8.81V364.263h4.606v12.413c0,2.831,1.8,4.862,4.319,4.862a4.63,4.63,0,0,0,4.6-4.862V364.263h4.548v12.413c0,5.719-4.291,8.81-9.152,8.81" transform="translate(-191.695 -232.338)" fill="#303030"/><path d="M366.207,364.247l-3,5.466-3.174-5.466h-5.064l5.662,9.5-6.692,11.384h5.091l4.177-7.379,4.232,7.379h5.121l-6.836-11.384,5.606-9.5Z" transform="translate(-225.751 -232.328)" fill="#303030"/><path d="M203.763,364.247v20.88H216.35v-3.861h-8.009v-4.644h7.58v-3.869h-7.58V368.11h7.58v-3.863Z" transform="translate(-129.966 -232.328)" fill="#303030"/><path d="M95.269,308.729v-4.644h7.579v-3.872H95.269v-4.642h7.579v-3.863H90.693V312.59h12.585v-3.861Z" transform="translate(-57.847 -186.061)" fill="#303030"/><path d="M69.9,364.258v8.5H62.631v-8.5H58.053v20.88h4.578v-8.5H69.9v8.5h4.576v-20.88Z" transform="translate(-37.028 -232.335)" fill="#303030"/></g></g></g></svg>