<?xml version="1.0" encoding="UTF-8"?>
<svg id="Calque_1" data-name="Calque 1" xmlns="http://www.w3.org/2000/svg" viewBox="0 0 1446 604">
  <defs>
    <style>
      .cls-1 {
        fill-rule: evenodd;
      }
    </style>
  </defs>
  <g id="layer1">
    <g id="O">
      <path class="cls-1" d="m441.69,78.66h90.07c4.08,0,7.38-3.3,7.38-7.33V31.42c0-4.03-3.3-7.33-7.38-7.33h-90.07c-4.08,0-7.38,3.3-7.38,7.33v39.91c0,4.03,3.3,7.33,7.38,7.33h0Zm5.73-43.98h79.03c1.35,0,2.46,1.1,2.46,2.44v28.51c0,1.34-1.11,2.44-2.46,2.44h-79.03c-1.35,0-2.46-1.1-2.46-2.44v-28.51c0-1.35,1.11-2.44,2.46-2.44h0Z"/>
    </g>
    <g id="P">
      <path class="cls-1" d="m315.16,78.66h10.64v-13.03h86.4c4.28,0,7.78-3.48,7.78-7.74v-26.07c0-4.25-3.5-7.74-7.78-7.74h-97.05v54.57h0Zm10.64-23.62v-20.36h80.26c1.8,0,3.27,1.46,3.27,3.26v13.85c0,1.79-1.47,3.26-3.27,3.26h-80.26Z"/>
    </g>
    <g id="R">
      <path class="cls-1" d="m553.06,78.66h10.65v-13.03h76.75l6.73,13.03h11.51l-6.83-13.23c3.44-.8,6.02-3.88,6.02-7.54v-26.07c0-4.25-3.5-7.74-7.78-7.74h-97.05v54.57h0Zm10.65-23.62v-20.36h80.25c1.8,0,3.28,1.46,3.28,3.26v13.85c0,1.79-1.47,3.26-3.28,3.26h-80.25Z"/>
    </g>
    <g id="H">
      <polygon class="cls-1" points="909.31 78.66 919.96 78.66 919.96 56.67 998.17 56.67 998.17 78.66 1008.82 78.66 1008.82 24.09 998.17 24.09 998.17 46.08 919.96 46.08 919.96 24.09 909.31 24.09 909.31 78.66"/>
    </g>
    <g id="C">
      <path class="cls-1" d="m802.04,78.66h91.31v-10.73c-.26.09-.53.14-.82.14h-84.76c-1.35,0-2.46-1.1-2.46-2.44v-28.51c0-1.34,1.11-2.44,2.46-2.44h84.76c.29,0,.56.05.82.14v-10.73h-91.31c-4.07,0-7.38,3.3-7.38,7.33v39.91c0,4.04,3.3,7.33,7.38,7.33h0Z"/>
    </g>
    <g id="E">
      <polygon class="cls-1" points="1025.2 78.66 1031.34 78.66 1035.85 78.66 1130.84 78.66 1130.84 68.07 1035.85 68.07 1035.85 56.67 1130.84 56.67 1130.84 46.08 1035.85 46.08 1035.85 34.68 1130.84 34.68 1130.84 24.09 1035.85 24.09 1031.34 24.09 1025.2 24.09 1025.2 78.66"/>
    </g>
    <g id="S">
      <path class="cls-1" d="m687.38,39.57v-2.45c0-1.34,1.11-2.44,2.46-2.44h84.77c.29,0,.56.05.82.14v-10.73h-91.31c-4.08,0-7.38,3.3-7.38,7.33v17.92c0,4.03,3.3,7.33,7.38,7.33h7.77v.14c.26-.09.53-.14.82-.14h69.61c1.35,0,2.46,1.1,2.46,2.45v6.52c0,1.34-1.11,2.44-2.46,2.44h-84.76c-.29,0-.56-.05-.82-.14v10.73h91.31c4.08,0,7.38-3.3,7.38-7.33v-17.92c0-4.03-3.3-7.33-7.38-7.33h-7.77v-.14c-.26.09-.53.14-.82.14h-69.61c-1.35,0-2.46-1.1-2.46-2.45v-4.07h0Z"/>
    </g>
  </g>
  <g>
    <path d="m314.98,271.72h37.2c31.65,0,41.25,11.25,41.25,53.1s-8.85,53.7-41.85,53.7h-36.6v-106.8Zm20.55,18.6v71.7h16.65c16.8,0,19.8-3.9,19.8-37.5,0-29.1-3-34.2-19.8-34.2h-16.65Z"/>
    <path d="m404.53,341.02c0-28.2,8.7-39.3,31.8-39.3s30.3,12.6,30.3,39.15v3.9h-42.3c.3,17.55,3.3,20.25,12.6,20.25,7.5,0,10.65-2.1,11.4-9.75h17.7c-1.2,15-9.45,24.45-28.95,24.45-24.15,0-32.55-10.35-32.55-38.7Zm20.1-9.15h23.25c-.75-11.25-3.75-13.8-11.25-13.8s-10.95,1.95-12,13.8Z"/>
    <path d="m494.38,355.56c.45,7.95,3.3,10.05,10.95,10.05,8.25,0,10.05-2.4,10.05-7.65s-1.95-6.45-9.6-7.95l-9.3-1.8c-11.4-2.25-19.5-8.85-19.5-23.25,0-15.75,10.2-23.25,28.35-23.25,20.4,0,27.75,7.8,27.75,25.65h-17.25c-.45-7.95-2.7-9.9-10.05-9.9s-9.9,1.65-9.9,7.2c0,4.8,1.95,6.75,10.2,8.4l9.3,1.8c13.05,2.55,18.9,9.75,18.9,22.5s-6.9,22.35-29.55,22.35-27.3-10.5-28.05-24.15h17.7Z"/>
    <path d="m540.43,302.92h9.3v-18h19.2v18h18.15v16.35h-18.15v34.05c0,8.25,2.55,10.05,9.9,10.05h7.95v15.15h-11.7c-18.6,0-25.95-7.05-25.95-26.25v-33h-8.7v-16.35Z"/>
    <path d="m598.33,271.72h19.8v18h-19.8v-18Zm0,31.2h19.8v75.6h-19.8v-75.6Z"/>
    <path d="m633.43,302.92h18.9v8.85c2.55-6.45,8.55-10.05,18.15-10.05,17.25,0,23.7,9.6,23.7,27.75v49.05h-19.95v-44.7c0-11.55-2.55-14.85-10.35-14.85-8.25,0-10.65,3.3-10.65,14.85v44.7h-19.8v-75.6Z"/>
    <path d="m735.27,334.42l9.45-1.8v-3c0-8.85-1.65-11.85-9.3-11.85s-10.35,1.65-10.5,10.2h-17.55c.45-16.8,7.95-26.25,29.25-26.25,24,0,27.9,12.9,27.9,26.85v49.95h-18.9v-7.8c-2.55,5.25-7.95,9-17.55,9-14.25,0-22.5-6.75-22.5-20.55,0-15,9.3-20.85,29.7-24.75Zm9.45,11.55l-6.15.9c-10.05,1.65-13.5,4.35-13.5,10.2s2.85,8.4,8.7,8.4c6.75,0,10.95-3.15,10.95-12v-7.5Z"/>
    <path d="m772.18,302.92h9.3v-18h19.2v18h18.15v16.35h-18.15v34.05c0,8.25,2.55,10.05,9.9,10.05h7.95v15.15h-11.7c-18.6,0-25.95-7.05-25.95-26.25v-33h-8.7v-16.35Z"/>
    <path d="m830.07,271.72h19.8v18h-19.8v-18Zm0,31.2h19.8v75.6h-19.8v-75.6Z"/>
    <path d="m862.17,340.71c0-30,8.55-39,32.55-39s32.55,9.9,32.55,39-8.1,39-32.55,39-32.55-9.6-32.55-39Zm44.85,0c0-19.05-2.55-22.05-12.3-22.05s-12.45,3-12.45,22.05c0,20.7,2.85,23.85,12.45,23.85s12.3-3.3,12.3-23.85Z"/>
    <path d="m939.57,302.92h18.9v8.85c2.55-6.45,8.55-10.05,18.15-10.05,17.25,0,23.7,9.6,23.7,27.75v49.05h-19.95v-44.7c0-11.55-2.55-14.85-10.35-14.85-8.25,0-10.65,3.3-10.65,14.85v44.7h-19.8v-75.6Z"/>
    <path d="m310.93,493.82c0-43.65,9.6-54.9,41.25-54.9s36.15,12.9,37.35,42h-19.95c-.75-18.45-3.75-23.4-17.4-23.4-17.25,0-19.8,5.1-19.8,36,0,35.25,2.55,39.3,19.8,39.3,13.65,0,16.65-5.4,17.4-24.15h19.95c-1.2,28.8-9.3,40.65-37.35,40.65-33.15,0-41.25-13.5-41.25-55.5Z"/>
    <path d="m402.43,440.72h19.8v38.25c3.15-5.55,8.85-8.25,17.25-8.25,17.25,0,23.7,9.6,23.7,27.75v49.05h-19.95v-44.7c0-11.55-2.55-14.85-10.35-14.85s-10.65,2.85-10.65,14.55v45h-19.8v-106.8Z"/>
    <path d="m504.28,503.41l9.45-1.8v-3c0-8.85-1.65-11.85-9.3-11.85s-10.35,1.65-10.5,10.2h-17.55c.45-16.8,7.95-26.25,29.25-26.25,24,0,27.9,12.9,27.9,26.85v49.95h-18.9v-7.8c-2.55,5.25-7.95,9-17.55,9-14.25,0-22.5-6.75-22.5-20.55,0-15,9.3-20.85,29.7-24.75Zm9.45,11.55l-6.15.9c-10.05,1.65-13.5,4.35-13.5,10.2s2.85,8.4,8.7,8.4c6.75,0,10.95-3.15,10.95-12v-7.5Z"/>
    <path d="m547.78,498.02c0-18.45,7.5-26.1,26.1-26.1h12.6v16.35h-9.9c-6.45,0-9,2.55-9,9v50.25h-19.8v-49.5Z"/>
    <path d="m614.98,553.36c.45,8.4,2.4,11.4,11.25,11.4s11.85-2.7,11.85-13.5v-13.2c-3.75,7.05-10.2,9.3-17.55,9.3-19.5,0-27.45-9.15-27.45-38.4s9.45-38.25,28.65-38.25c7.8,0,14.1,2.4,17.55,11.25v-10.05h18.6v78.15c0,21.15-9.6,29.85-31.35,29.85-23.55,0-29.25-9.75-30.45-26.55h18.9Zm23.1-44.4c0-18.45-2.85-21.3-12.45-21.3s-12.3,2.85-12.3,21.3c0,19.65,2.7,23.25,12.3,23.25s12.45-3.15,12.45-23.25Z"/>
    <path d="m673.18,440.72h19.8v18h-19.8v-18Zm0,31.2h19.8v75.6h-19.8v-75.6Z"/>
    <path d="m708.28,471.92h18.9v8.85c2.55-6.45,8.55-10.05,18.15-10.05,17.25,0,23.7,9.6,23.7,27.75v49.05h-19.95v-44.7c0-11.55-2.55-14.85-10.35-14.85-8.25,0-10.65,3.3-10.65,14.85v44.7h-19.8v-75.6Z"/>
    <path d="m803.22,553.36c.45,8.4,2.4,11.4,11.25,11.4s11.85-2.7,11.85-13.5v-13.2c-3.75,7.05-10.2,9.3-17.55,9.3-19.5,0-27.45-9.15-27.45-38.4s9.45-38.25,28.65-38.25c7.8,0,14.1,2.4,17.55,11.25v-10.05h18.6v78.15c0,21.15-9.6,29.85-31.35,29.85-23.55,0-29.25-9.75-30.45-26.55h18.9Zm23.1-44.4c0-18.45-2.85-21.3-12.45-21.3s-12.3,2.85-12.3,21.3c0,19.65,2.7,23.25,12.3,23.25s12.45-3.15,12.45-23.25Z"/>
  </g>
  <path d="m1414,191.87H32c-3.87,0-7-3.13-7-7s3.13-7,7-7h1382c3.87,0,7,3.13,7,7s-3.13,7-7,7Z"/>
</svg>