<svg xmlns="http://www.w3.org/2000/svg" width="450.759" height="93.536" viewBox="0 0 450.759 93.536"><g transform="translate(-911.409 -32.851)"><path d="M1226.17,80.315a8.078,8.078,0,0,1-2.763.345c-3.8-.345-5.009-1.209-6.563-3.454-.863-1.554-2.245-3.8-3.109-5.7-.691-.864-1.209-1.554-2.418-1.554h-.864v5.354c0,2.763.345,3.109,3.109,3.454V79.97H1203.2V78.761c2.763-.345,3.109-.691,3.109-3.454V61.318c0-2.763-.345-3.109-3.109-3.454V57h9.672a12.426,12.426,0,0,1,6.217,1.209,4.919,4.919,0,0,1,2.418,4.663c0,3.109-2.245,5.008-4.663,5.872.691,1.209,3.454,10.362,9.326,10.362v1.209Zm-14.853-11.571a8.233,8.233,0,0,0,3.8-.864,5.13,5.13,0,0,0,1.9-4.318c0-3.8-2.245-5.354-4.663-5.354a12.908,12.908,0,0,0-1.9.345c-.345.345-.345.691-.345,1.554v8.808C1210.108,68.744,1211.317,68.744,1211.317,68.744Z" transform="translate(95.413 14.192)" fill="#303030"/><path d="M1170.87,80.115a8.079,8.079,0,0,1-2.763.345c-3.8-.345-5.008-1.209-6.563-3.454-.864-1.554-2.245-3.8-3.109-5.7-.691-.864-1.209-1.554-2.418-1.554h-.864v5.7c0,2.763.345,3.109,3.109,3.454v1.209H1147.9V78.906c2.763-.345,3.109-.691,3.109-3.454V61.463c0-2.763-.345-3.109-3.109-3.454V56.8h9.672a12.425,12.425,0,0,1,6.217,1.209,6.838,6.838,0,0,1,2.245,5.008c0,3.109-2.245,5.008-4.663,5.872.691,1.209,3.454,10.362,9.326,10.362Zm-15.026-11.226a8.233,8.233,0,0,0,3.8-.864,5.13,5.13,0,0,0,1.9-4.318c0-3.8-2.245-5.354-4.663-5.354a12.9,12.9,0,0,0-1.9.345c-.345.345-.345.691-.345,1.554v8.808c0-.173,1.208-.173,1.208-.173Z" transform="translate(55.207 14.046)" fill="#303030"/><path d="M1181.543,74.489c-.345,1.554-.864,4.663-1.209,5.872H1162.2V79.152c3.109-.345,3.454-.691,3.454-3.454V61.708c0-3.109-.345-3.454-2.763-3.454V56.7h16.58c0,.691.345,3.109.345,5.354l-1.209.345a10.611,10.611,0,0,0-1.209-3.109c-.691-.691-1.554-.864-3.8-.864h-2.245c-1.209,0-1.209,0-1.209,1.209v7.772h2.763c3.109,0,3.454-.345,4.145-2.763h1.208V71.9h-1.208c-.691-2.418-.864-2.418-4.145-2.418h-2.763V75.7c0,1.9.345,2.418.864,2.763s1.9.345,3.454.345c2.245,0,3.454-.345,4.145-1.209a12.27,12.27,0,0,0,1.9-3.454l1.036.345Z" transform="translate(65.603 13.974)" fill="#303030"/><path d="M1188.753,62.817c-.691-2.245-1.9-5.008-5.008-5.008a3.626,3.626,0,0,0-3.8,3.8c0,2.245,1.554,3.454,4.663,5.008,3.454,1.9,6.217,3.8,6.217,7.426,0,4.145-3.454,7.254-8.463,7.254a11.166,11.166,0,0,1-3.454-.691,6.589,6.589,0,0,0-2.245-.691,22.307,22.307,0,0,1-.864-5.872l1.209-.345c.691,2.245,2.418,6.217,6.218,6.217,2.417,0,3.8-1.554,3.8-4.145,0-2.245-1.9-3.8-4.318-5.008-3.109-1.554-6.217-3.454-6.217-7.254s3.109-6.908,7.771-6.908a20.522,20.522,0,0,1,5.009.864,41.347,41.347,0,0,0,.691,5.008h-1.209Z" transform="translate(75.492 13.901)" fill="#303030"/><path d="M1199.164,56.5a11.717,11.717,0,0,1,11.917,11.917c0,7.772-5.7,12.435-12.262,12.435-6.908,0-11.917-5.354-11.917-12.262C1186.729,62.545,1191.047,56.5,1199.164,56.5Zm-.864,1.382c-3.8,0-6.909,3.8-6.909,10.017s3.109,11.571,7.772,11.571c3.8,0,6.563-3.454,6.563-10.017.345-7.254-2.763-11.571-7.426-11.571Z" transform="translate(83.559 13.829)" fill="#303030"/><path d="M1236,63.354a8.014,8.014,0,0,0-1.209-3.109c-.691-.691-1.554-.864-3.8-.864h-1.9v16.58c0,3.109.345,3.109,3.8,3.454v1.209h-11.226V79.415c3.109-.345,3.454-.691,3.454-3.454V59.036h-1.555c-2.763,0-3.8.345-4.145.864-.691.691-.864,1.554-1.209,3.109H1217c0-2.418.345-5.008.345-6.908h.863c.691.864.864.864,1.9.864h14.334a2.773,2.773,0,0,0,1.9-.864h.864c0,1.554.345,4.663.345,6.908Z" transform="translate(105.445 13.538)" fill="#303030"/><path d="M1244.2,62.817c-.691-2.245-1.9-5.008-5.009-5.008a3.626,3.626,0,0,0-3.8,3.8c0,2.245,1.555,3.454,4.663,5.008,3.454,1.9,6.563,3.8,6.563,7.426,0,4.145-3.454,7.254-8.808,7.254a16.117,16.117,0,0,1-3.8-.691,6.587,6.587,0,0,0-2.245-.691,22.319,22.319,0,0,1-.863-5.872l1.208-.345c.691,2.245,2.418,6.217,6.218,6.217a3.9,3.9,0,0,0,4.145-4.145c0-2.245-1.9-3.8-4.317-5.008-3.109-1.554-6.218-3.454-6.218-7.254s3.109-6.908,8.117-6.908a20.523,20.523,0,0,1,5.008.864,41.385,41.385,0,0,0,.691,5.008H1244.2Z" transform="translate(115.552 13.901)" fill="#303030"/><path d="M995.062,62.4a6.916,6.916,0,0,0-1.209-2.763c-.691-.864-1.554-1.209-4.145-1.209h-2.245c-1.209,0-1.209,0-1.209,1.209V67.58h3.109c3.109,0,3.454-.345,4.145-2.418h1.209v7.254h-1.209c-.345-2.418-.691-3.109-3.8-3.109H986.6v6.217c0,3.109.345,3.454,3.454,3.8v1.209H979V79.324c2.763-.345,3.108-.691,3.108-3.8V61.708c0-3.109-.345-3.454-3.108-3.8V56.7h16.579c0,.864.345,3.454.345,5.354l-.864.345Z" transform="translate(-67.591 13.974)" fill="#303030"/><path d="M991.7,80.188V78.979c2.763,0,3.109-.345,3.109-3.454V61.708c0-3.109-.345-3.454-3.109-3.454V56.7h10.362v1.209c-2.763.345-3.109.345-3.109,3.454V75.352c0,3.109.345,3.109,3.109,3.454v1.209H991.7Z" transform="translate(-58.357 13.974)" fill="#303030"/><path d="M1025.642,57.982c-1.9,0-2.763.691-2.763,2.245,0,.864-.345,2.763-.345,5.872V80.433h-1.554l-15.025-18.479v8.462c0,3.109,0,4.663.345,5.872.346,1.554.863,2.245,3.454,2.418v1.209h-8.808V78.706c1.9,0,2.763-.691,3.109-2.245,0-1.209.346-2.763.346-5.872V63.163c0-2.418,0-2.763-.691-3.8a3.492,3.492,0,0,0-3.109-1.209V56.6h6.217l14.334,16.58V66.271c0-3.109-.345-5.008-.345-5.872-.346-1.554-.864-2.245-3.454-2.245V56.6h8.808v1.209h-.518Z" transform="translate(-51.888 13.901)" fill="#303030"/><path d="M1036.243,74.489c-.345,1.554-.864,4.663-1.209,5.872H1016.9V79.152c3.109-.345,3.454-.691,3.454-3.454V61.708c0-3.109-.345-3.454-2.763-3.454V56.7h16.58c0,.691.345,3.109.345,5.354l-1.209.345a10.6,10.6,0,0,0-1.209-3.109c-.691-.691-1.554-.864-3.8-.864h-2.245c-1.209,0-1.209,0-1.209,1.209v7.772h2.763c3.109,0,3.454-.345,4.145-2.763h1.209V71.9h-1.209c-.691-2.418-.863-2.418-4.145-2.418h-2.763V75.7c0,1.9.346,2.418.864,2.763a9.137,9.137,0,0,0,3.454.345c2.245,0,3.454-.345,4.318-1.209a12.265,12.265,0,0,0,1.9-3.454Z" transform="translate(-40.036 13.974)" fill="#303030"/><path d="M1059.66,57.909c-2.764.345-3.109.345-3.109,3.454V75.352c0,3.109.345,3.109,3.109,3.454v1.209h-10.708V78.806c2.763-.345,3.109-.345,3.109-3.454V68.789h-10.708V75.7c0,3.109.345,3.109,3.109,3.454v1.209H1034.1V79.152c2.763-.345,3.109-.345,3.109-3.454V61.363c0-3.109-.345-3.109-3.109-3.454V56.7h10.363v1.209c-2.763.345-2.763.345-2.763,3.454v5.7h10.708v-5.7c0-3.109-.345-3.109-3.109-3.454V56.7h10.362v1.209Z" transform="translate(-27.531 13.974)" fill="#303030"/><path d="M1063.37,56.5a11.717,11.717,0,0,1,11.917,11.917c0,7.772-5.7,12.435-12.262,12.435-6.908,0-11.917-5.354-11.917-12.262C1050.762,62.545,1055.253,56.5,1063.37,56.5Zm-1.036,1.382c-3.8,0-6.908,3.8-6.908,10.017s3.108,11.571,7.772,11.571c3.8,0,6.563-3.454,6.563-10.017.518-7.254-2.936-11.571-7.426-11.571Z" transform="translate(-15.18 13.829)" fill="#303030"/><path d="M1085.843,63.354a4.721,4.721,0,0,0-1.554-3.109c-.691-.691-1.554-.864-3.8-.864h-1.9v16.58c0,3.109.345,3.109,3.8,3.454v1.209h-11.226V79.415c3.109-.345,3.454-.691,3.454-3.454V59.036h-1.554c-2.763,0-3.8.345-4.145.864-.691.691-.863,1.554-1.208,3.109H1066.5c0-2.418.345-5.008.345-6.908h.864c.345.864.691.864,1.554.864H1083.6a2.773,2.773,0,0,0,1.9-.864h.864c0,1.554.345,4.663.345,6.908Z" transform="translate(-3.974 13.538)" fill="#303030"/><path d="M1099.843,74.489c-.345,1.554-.863,4.663-1.208,5.872H1080.5V79.152c3.109-.345,3.454-.691,3.454-3.454V61.708c0-3.109-.346-3.454-2.763-3.454V56.7h16.58c0,.691.345,3.109.345,5.354l-1.209.345a10.6,10.6,0,0,0-1.209-3.109c-.691-.691-1.555-.864-3.8-.864h-2.245c-1.209,0-1.209,0-1.209,1.209v7.772h2.763c3.109,0,3.454-.345,4.145-2.763h.864V71.9h-1.209c-.345-2.418-.691-2.418-3.8-2.418h-2.763V75.7c0,1.9.345,2.418.863,2.763a9.14,9.14,0,0,0,3.454.345c2.245,0,3.454-.345,4.145-1.209a12.276,12.276,0,0,0,1.9-3.454l1.036.345Z" transform="translate(6.204 13.974)" fill="#303030"/><path d="M1111.98,74.243c-.345,1.209-.864,5.008-1.209,5.872H1093.5V78.906c3.109-.345,3.454-.691,3.454-3.454V61.463c0-3.109-.345-3.109-3.109-3.454V56.8h10.362v1.209c-2.763.345-3.109.345-3.109,3.454V75.452c0,1.9,0,2.418.864,2.763a6.329,6.329,0,0,0,2.763.345c1.9,0,3.109-.345,3.8-1.209a10.826,10.826,0,0,0,1.9-3.8l1.555.691Z" transform="translate(15.656 14.046)" fill="#303030"/><path d="M1119,62.817c-.691-2.245-1.9-5.008-5.009-5.008a3.626,3.626,0,0,0-3.8,3.8c0,2.245,1.554,3.454,4.663,5.008,3.454,1.9,6.563,3.8,6.563,7.426,0,4.145-3.454,7.254-8.808,7.254a16.114,16.114,0,0,1-3.8-.691,6.588,6.588,0,0,0-2.245-.691,22.307,22.307,0,0,1-.864-5.872l1.209-.345c.691,2.245,2.418,6.217,6.217,6.217a3.9,3.9,0,0,0,4.145-4.145c0-2.245-1.9-3.8-4.317-5.008-3.109-1.554-6.218-3.454-6.218-7.254s3.109-6.908,8.117-6.908a20.518,20.518,0,0,1,5.009.864,41.385,41.385,0,0,0,.691,5.008H1119Z" transform="translate(24.525 13.901)" fill="#303030"/><path d="M1147.995,76.971c5.7-7.426,10.017-11.917,13.989-10.017,1.555.691,2.418,3.8,1.9,5.354l-.345.691a1.205,1.205,0,0,1,.691-.345,4.391,4.391,0,0,0-1.209-6.908c-5.7-3.109-12.435,4.145-16.925,9.671-.345-.345-5.7-5.7-6.563-7.772,5.354-2.763,13.125-6.908,13.816-13.126,0-2.418-1.554-4.663-5.354-5.008-4.317-.345-10.017,2.763-12.262,7.772a14.241,14.241,0,0,0-.345,10.017c-2.763,1.209-19,8.117-17.443,17.789,1.208,6.563,15.371,9.326,27.46-5.008,9.153,8.463,19.343,18.134,15.888,27.46-2.763,8.117-10.017,10.017-15.888,8.117-2.245-.691-2.418-1.209-2.763-.864s1.209,1.209,2.245,1.554c7.426,3.109,16.234.691,19.688-7.254,6.217-12.435-6.217-23.315-16.579-32.123Zm-9.326-19.343c1.9-4.663,5.7-7.426,9.153-6.908a2.861,2.861,0,0,1,2.245,3.8c-.864,5.354-5.7,8.463-10.88,11.571C1137.978,62.982,1137.632,60.046,1138.669,57.628Zm-15.716,27.805c-3.109-6.217,10.707-14.68,13.125-16.234,2.245,4.663,7.426,9.326,7.426,9.326C1136.769,86.988,1125.543,90.442,1122.953,85.434Z" transform="translate(33.351 8.728)" fill="#303030"/><path d="M1035.2,50.989v-.864a3.511,3.511,0,0,1,.863-.173c.691-.173,1.036-.173,1.209-.345a2.389,2.389,0,0,0,.518-.691l2.418-6.39,2.936-7.426h1.209l.173.173,2.072,5.008a23,23,0,0,1,1.209,3.109,16.854,16.854,0,0,0,1.036,2.418c.173.345.345.864.691,1.727.173.345.346.864.691,1.554a2.137,2.137,0,0,0,.345.518c.172.173.345.173.691.173a2.453,2.453,0,0,1,1.036.345v.864h-5.181l-2.072.173h-.518V50.3l1.381-.345a1.722,1.722,0,0,1,.691-.173.6.6,0,0,0,.173-.345v-.345l-.518-1.209-.864-2.418h-4.663c-.173.345-.518,1.382-1.036,2.763a1.879,1.879,0,0,0-.173.864.635.635,0,0,0,.173.518,1.46,1.46,0,0,0,1.036.345,3.023,3.023,0,0,1,.864.173v.864c-.518,0-1.727,0-3.627-.173h-.518a5.874,5.874,0,0,1-1.727.173h-.518Zm5.7-6.908h3.627a20.922,20.922,0,0,0-.864-2.418c-.345-.864-.691-1.727-.864-2.245Z" transform="translate(-26.731 -1.73)" fill="#303030"/><path d="M1045.1,50.916v-.864c1.036-.173,1.727-.345,1.9-.691a2.485,2.485,0,0,0,.345-1.554l.173-4.318.173-4.318v-.518c0-1.209,0-1.727-.173-1.9a3.776,3.776,0,0,0-1.554-.518c-.173,0-.345-.173-.518-.173V35.2h1.036l3.454.173h.863a.9.9,0,0,1,.345.691,19.459,19.459,0,0,1,1.209,2.591l.173.345,1.9,4.145c0,.173.173.173.173.345.173.345.345.518.345.864.173.345.173.518.345.864s.345.518.345.864c.173-.173.173-.345.345-.691a10.584,10.584,0,0,0,.863-2.072c.518-1.036,1.209-2.763,2.072-5.008.173-.345.345-.864.691-1.554a4.5,4.5,0,0,0,.519-1.209.755.755,0,0,1,.518-.173h5.181v1.036c-.691.173-1.382.345-1.9.518q-.518.259-.518.518v.173l.173,3.627c0,.345.173,2.072.173,5.008a14.9,14.9,0,0,0,.173,2.591v.345c0,.173,0,.345.173.345a19.184,19.184,0,0,0,2.245.691v.864a7.6,7.6,0,0,1-1.555-.173,12.231,12.231,0,0,0-2.418-.173,23.145,23.145,0,0,0-3.454.173h-.345v-.864a7.825,7.825,0,0,1,1.381-.345c.345,0,.691-.173.691-.345.173-.173.173-.518.173-1.209V44.008l-.173-4.318V38.481l-2.936,6.908c0,.173-.173.345-.345.691a2.921,2.921,0,0,0-.345.864,16.647,16.647,0,0,0-1.208,3.454,2.916,2.916,0,0,1-.346.864h-.863l-.691-1.9a20.391,20.391,0,0,0-1.036-2.245,10.168,10.168,0,0,1-.691-1.382c0-.173-.173-.173-.173-.345l-.173-.345v-.173l-1.727-3.8-1.036-2.418-.173,5.7V47.98a2.674,2.674,0,0,0,.345,1.382c.172.345.691.518,1.554.691l.518.173v.864a4.782,4.782,0,0,1-1.554-.173c-.518,0-1.209-.173-2.073-.173a18.34,18.34,0,0,0-2.591.173Z" transform="translate(-19.533 -1.658)" fill="#303030"/><path d="M1058.2,35.2a2.561,2.561,0,0,1,1.209.173,9.124,9.124,0,0,0,2.245.173h2.245c1.727,0,3.454-.173,4.836-.173h2.245a12.393,12.393,0,0,1,2.246.173c.172.173.172.345.172.691v3.109h-.864c0-.173-.173-.345-.345-.691l-.518-.864c-.172-.345-.518-.691-.691-1.036-.172,0-.518-.173-.691-.173h-.691c-.691,0-1.555-.173-2.418-.173h-2.591v6.045h3.627a6.127,6.127,0,0,0,1.209-.173c.173-.173.345-.345.345-.518s.173-.691.345-1.727h.863V46.08h-.863a3.513,3.513,0,0,1-.173-.864,3.78,3.78,0,0,0-.518-1.382,1.327,1.327,0,0,0-.518-.345h-1.727a12.291,12.291,0,0,0-2.764.173v5.354a.9.9,0,0,0,.345.691,11.62,11.62,0,0,0,3.109.173,13.107,13.107,0,0,0,2.763-.173,2.373,2.373,0,0,0,1.381-.864A5.557,5.557,0,0,0,1073.4,46.6h1.036v.864l-.518,2.245-.173,1.382h-1.209c-.518,0-1.727,0-3.627-.173H1063.9a29.4,29.4,0,0,0-3.627.173h-1.9v-.864a1.878,1.878,0,0,0,.864-.173,9.717,9.717,0,0,0,1.727-.345,1.294,1.294,0,0,0,.173-.864V38.654l-.173-1.554v-.173c0-.173-.172-.173-.345-.173h-.346a3.8,3.8,0,0,0-1.382-.173h-.518L1058.2,35.2Z" transform="translate(-10.008 -1.658)" fill="#303030"/><path d="M1069.109,50.2a1.293,1.293,0,0,1,.863-.173,1.851,1.851,0,0,0,1.036-.345V36.554l-.691-.173a2.97,2.97,0,0,1-1.382-.173v-.864c.345,0,.691-.173,1.036-.173h4.145a15.8,15.8,0,0,1,2.936-.173,5.759,5.759,0,0,1,3.972,1.209,3.437,3.437,0,0,1,1.382,2.936,3.639,3.639,0,0,1-.863,2.245,4.915,4.915,0,0,1-2.418,1.554c.173.173.173.345.346.518.345.518.691.864.863,1.209l1.9,3.109c.518.864.864,1.382.864,1.382a3.773,3.773,0,0,0,.864.518,2.917,2.917,0,0,0,.863.345v.691h-5.354l-.346-.864a10.24,10.24,0,0,1-.691-1.382c-.345-.864-1.036-2.072-1.9-3.8a3.688,3.688,0,0,0-.864-1.382c-.173-.173-.691-.173-1.209-.173h-.864v5.7c.173.173.518.173.864.345a8.028,8.028,0,0,1,1.554.518v.864h-.863a29.976,29.976,0,0,0-3.109-.173h-.518l-1.727.173h-1.9V50.2c1.209.345,1.209.173,1.209,0Zm5.354-7.772h.864a4.319,4.319,0,0,0,2.936-.691,2.774,2.774,0,0,0,.863-1.9,3.371,3.371,0,0,0-.172-1.382,5.732,5.732,0,0,0-.518-1.036,2.783,2.783,0,0,0-1.208-.691,4.334,4.334,0,0,0-1.727-.173h-.864v5.872Z" transform="translate(-2.957 -1.803)" fill="#303030"/><path d="M1078.5,50.843V49.98a3.511,3.511,0,0,1,.863-.173,4.4,4.4,0,0,1,1.209-.345c.173-.173.173-.518.173-1.036V43.59a13.667,13.667,0,0,1,.172-2.418v-4.49a11.01,11.01,0,0,0-1.554-.345h-.345V35.3l3.454.173h.864a12.392,12.392,0,0,0,2.245-.173h1.036v.864c-.345.173-.691.173-1.036.345s-.691.173-1.036.345v12.78a3.8,3.8,0,0,0,1.382.173,1.722,1.722,0,0,1,.691.173v.864h-1.036a7.591,7.591,0,0,1-1.554-.173h-2.072a9.3,9.3,0,0,0-1.9.173,3.9,3.9,0,0,0-1.554,0Z" transform="translate(4.75 -1.585)" fill="#303030"/><path d="M1097.871,35.836a8.519,8.519,0,0,1,.691,2.072,4.787,4.787,0,0,1,.172,1.554H1097.7a8.046,8.046,0,0,0-2.418-2.418,5.068,5.068,0,0,0-2.764-.691,3.689,3.689,0,0,0-2.936,1.382,8.766,8.766,0,0,0-1.554,5.527,10.251,10.251,0,0,0,.346,2.936,13.972,13.972,0,0,0,1.036,2.245,2.686,2.686,0,0,0,1.381,1.036,4.782,4.782,0,0,0,2.245.518,5.14,5.14,0,0,0,2.591-.864,10.646,10.646,0,0,0,2.418-2.418c.345,0,.691-.173,1.208-.173a1.3,1.3,0,0,1-.172.864c0,.173-.173.691-.345,1.554l-.173.345-.172.518a5.766,5.766,0,0,1-2.072.864,15.9,15.9,0,0,1-3.282.345,13.426,13.426,0,0,1-2.763-.345,8.681,8.681,0,0,1-2.245-.864,7.356,7.356,0,0,1-2.072-1.9,9.291,9.291,0,0,1-1.209-2.245,13.348,13.348,0,0,1-.346-2.591,7.938,7.938,0,0,1,2.418-5.872,8.335,8.335,0,0,1,6.045-2.418,13.963,13.963,0,0,1,2.763.173,6.033,6.033,0,0,0,2.245.864Z" transform="translate(9.04 -1.949)" fill="#303030"/><path d="M1093.1,50.989v-.864a3.514,3.514,0,0,1,.864-.173c.691-.173,1.036-.173,1.209-.345a2.389,2.389,0,0,0,.518-.691l2.418-6.39,2.936-7.426h1.209l.173.173,2.073,5.008a23.093,23.093,0,0,1,1.209,3.109,16.839,16.839,0,0,0,1.036,2.418c.172.345.345.864.691,1.727.172.345.345.864.691,1.554a2.131,2.131,0,0,0,.345.518c.173.173.345.173.691.173a2.452,2.452,0,0,1,1.036.345v.864h-5.181l-2.073.173h-.518V50.3l1.382-.345a1.722,1.722,0,0,1,.691-.173.6.6,0,0,0,.172-.345v-.345l-.518-1.209-.864-2.418h-4.663c-.173.345-.518,1.382-1.036,2.763a1.881,1.881,0,0,0-.172.864.635.635,0,0,0,.172.518,1.461,1.461,0,0,0,1.036.345,3.021,3.021,0,0,1,.863.173v.864c-.518,0-1.727,0-3.626-.173h-.518a5.875,5.875,0,0,1-1.727.173h-.518Zm5.7-6.908h3.627a20.989,20.989,0,0,0-.864-2.418c-.345-.864-.691-1.727-.864-2.245Z" transform="translate(15.365 -1.73)" fill="#303030"/><path d="M1102.8,36.164V35.3h5.354c1.209,1.209,2.245,2.072,3.109,2.936l8.462,8.463V44.971a5.914,5.914,0,0,0-.172-1.9V39.618a11.418,11.418,0,0,1-.173-1.9c0-.518,0-.864-.172-1.036a1.652,1.652,0,0,0-1.209-.345,1.851,1.851,0,0,1-1.036-.345V35.3h5.872v.864a.635.635,0,0,1-.518.173,3.023,3.023,0,0,1-.863.173l-.691.345c0,.173-.173.173-.173.518v1.554a12.286,12.286,0,0,0,.173,2.763v.691l.172,4.145v4.663h-1.382l-1.382-1.554-2.936-2.936-2.072-2.072-1.555-1.554a36.461,36.461,0,0,1-2.59-2.591l-1.9-1.727.173,4.49v3.281a8.419,8.419,0,0,0,.172,2.072v.518a.535.535,0,0,0,.173.345,5.959,5.959,0,0,0,2.072.173h.345v1.036h-.518a19.53,19.53,0,0,1-2.418-.173h-3.627V49.462h1.036c.691,0,1.036,0,1.209-.173s.173-.345.173-.864v-9.5a5.374,5.374,0,0,0-.173-1.9c0-.173-.173-.345-.345-.518a3.033,3.033,0,0,0-.864-.691c-.345.518-.863.518-1.727.345Z" transform="translate(22.418 -1.585)" fill="#303030"/><path d="M1118.6,35.2a2.559,2.559,0,0,1,1.209.173,9.126,9.126,0,0,0,2.245.173h2.245c1.727,0,3.454-.173,4.836-.173h2.245a12.39,12.39,0,0,1,2.245.173c.172.173.172.345.172.691v3.109h-.863c0-.173-.173-.345-.345-.691l-.519-.864c-.172-.345-.518-.691-.691-1.036-.172,0-.518-.173-.691-.173H1130c-.691,0-1.554-.173-2.418-.173h-2.591v6.045h3.627a6.129,6.129,0,0,0,1.209-.173c.172-.173.345-.345.345-.518s.173-.691.345-1.727h.863V46.08h-.863a3.517,3.517,0,0,1-.172-.864,3.787,3.787,0,0,0-.518-1.382,1.326,1.326,0,0,0-.518-.345h-1.727a12.288,12.288,0,0,0-2.763.173v5.354a.9.9,0,0,0,.346.691,11.618,11.618,0,0,0,3.109.173,13.108,13.108,0,0,0,2.763-.173,2.372,2.372,0,0,0,1.381-.864A5.552,5.552,0,0,0,1133.8,46.6h1.037v.864l-.518,2.245-.173,1.382h-1.209c-.519,0-1.727,0-3.627-.173H1124.3a29.4,29.4,0,0,0-3.627.173h-1.9v-.864a1.877,1.877,0,0,0,.863-.173,9.721,9.721,0,0,0,1.727-.345,1.294,1.294,0,0,0,.173-.864V38.654l-.173-1.554v-.173c0-.173-.173-.173-.345-.173h-.345a3.8,3.8,0,0,0-1.382-.173h-.518L1118.6,35.2Z" transform="translate(33.903 -1.658)" fill="#303030"/><path d="M1128.5,35.2h2.764c.518,0,1.036.173,1.9.173a15.807,15.807,0,0,0,2.936-.173h.345v.864a.169.169,0,0,0-.172.173l-1.209.173c-.173,0-.173,0-.345.173v.345a9.713,9.713,0,0,0,1.727,2.418l1.209,1.727.172.173.691-.864,1.554-2.245a9.927,9.927,0,0,0,.691-1.209v-.345a.535.535,0,0,0-.345-.173h-.519c-.345,0-.863,0-1.036-.173V35.2h6.045v.864l-1.9.345c-.172,0-.345.173-.518.345s-.691.691-1.555,1.727l-1.727,2.245a2.382,2.382,0,0,1-.519.691c-.173.173-.172.345-.345.518l.173.173c.518.691.864,1.209,1.381,1.9l2.418,3.454c.691.864,1.036,1.554,1.382,1.727a3.909,3.909,0,0,0,1.727.518v1.036h-1.9l-1.555-.173h-4.835v-.864a7.341,7.341,0,0,1,1.9-.345c.172,0,.172-.173.345-.173v-.345c0-.173-.173-.345-.345-.691-.346-.518-.864-1.209-1.382-2.072l-1.382-1.9a24.466,24.466,0,0,0-1.9,2.591,3.764,3.764,0,0,0-.864,1.382,1.338,1.338,0,0,0-.172.518v.173l.172.173a2.456,2.456,0,0,0,1.036.345c.518.173.691.173.864.345V50.4h-.518a4.557,4.557,0,0,1-1.209-.173h-1.727l-2.59.173h-.519v-.864h.519a2.676,2.676,0,0,0,1.381-.345c.173,0,.345-.345.691-.691.518-.691,1.036-1.209,1.554-1.9.345-.345.518-.691.691-.864.346-.518,1.036-1.382,1.9-2.591l-.691-1.036a16.67,16.67,0,0,0-1.209-1.554l-.863-.518c-.345-.518-.518-.691-.518-.864-.345-.518-.864-1.209-1.382-2.072-.173-.345-.518-.518-.691-.691a11,11,0,0,0-1.554-.345v-.691l-.173-.173Z" transform="translate(41.102 -1.658)" fill="#303030"/><path d="M1138.6,36.064V35.2l2.936.173h5.008a7.794,7.794,0,0,1,2.245.173,4.862,4.862,0,0,1,1.9.691,3.761,3.761,0,0,1,1.209,1.554,3.938,3.938,0,0,1,.518,1.9,4.821,4.821,0,0,1-1.382,3.454,4.718,4.718,0,0,1-3.281,1.382,3.8,3.8,0,0,1-1.382-.173c-.345-.173-.863-.345-1.209-.518V42.8h.863a2.918,2.918,0,0,0,1.727-.518c.691-.518.863-1.209.863-2.418a5.331,5.331,0,0,0-.345-1.9c-.345-.518-.518-.864-1.036-1.036a5.105,5.105,0,0,0-1.727-.345,2.013,2.013,0,0,0-1.209.345c0,.173-.172.173-.172.345v12.78l2.418.345v1.036h-.518a5.557,5.557,0,0,1-1.382-.173c-.691,0-1.554-.173-2.418-.173a13.957,13.957,0,0,0-2.763.173h-.691V50.4l.691-.173c.518-.173.863-.345,1.381-.518,0-.173.173-.518.173-.691V40.036a22.944,22.944,0,0,0-.173-2.936c0-.173-.172-.345-.345-.518s-.345-.173-.691-.345a9.726,9.726,0,0,1-1.208-.173Z" transform="translate(48.446 -1.658)" fill="#303030"/><path d="M1148.109,50.2a1.294,1.294,0,0,1,.864-.173,1.853,1.853,0,0,0,1.036-.345V36.554l-.691-.173a2.97,2.97,0,0,1-1.382-.173v-.864c.345,0,.691-.173,1.036-.173h4.145a15.8,15.8,0,0,1,2.936-.173,5.76,5.76,0,0,1,3.973,1.209,3.436,3.436,0,0,1,1.382,2.936,3.637,3.637,0,0,1-.864,2.245,4.914,4.914,0,0,1-2.418,1.554c.173.173.173.345.345.518.345.518.691.864.864,1.209l1.9,3.109c.518.864.864,1.382.864,1.382a3.78,3.78,0,0,0,.864.518,2.921,2.921,0,0,0,.864.345v.691h-5.354l-.345-.864a10.171,10.171,0,0,1-.691-1.382c-.345-.864-1.036-2.072-1.9-3.8a3.683,3.683,0,0,0-.864-1.382c-.172-.173-.691-.173-1.209-.173h-.864v5.7c.173.173.519.173.864.345a8.034,8.034,0,0,1,1.554.518v.864h-.864a29.972,29.972,0,0,0-3.109-.173h-.518l-1.727.173h-1.9V50.2c1.209.345,1.209.173,1.209,0Zm5.527-7.772h.863a4.319,4.319,0,0,0,2.936-.691,2.774,2.774,0,0,0,.864-1.9,3.366,3.366,0,0,0-.173-1.382,5.756,5.756,0,0,0-.518-1.036,2.782,2.782,0,0,0-1.209-.691,4.331,4.331,0,0,0-1.727-.173h-.863v5.872Z" transform="translate(54.48 -1.803)" fill="#303030"/><path d="M1157.3,35.2a2.559,2.559,0,0,1,1.209.173,9.126,9.126,0,0,0,2.245.173H1163c1.727,0,3.454-.173,4.836-.173h2.246a12.393,12.393,0,0,1,2.245.173c.172.173.172.345.172.691v3.109h-.864c0-.173-.173-.345-.345-.691l-.518-.864c-.172-.345-.518-.691-.69-1.036-.173,0-.519-.173-.691-.173h-.691c-.691,0-1.554-.173-2.418-.173h-2.591v6.045h3.627a6.122,6.122,0,0,0,1.209-.173c.173-.173.345-.345.345-.518s.172-.691.346-1.727h.863V46.08h-.863a3.507,3.507,0,0,1-.173-.864,3.777,3.777,0,0,0-.518-1.382,1.334,1.334,0,0,0-.518-.345h-1.727a12.289,12.289,0,0,0-2.763.173v5.354a.9.9,0,0,0,.345.691,11.619,11.619,0,0,0,3.109.173,13.107,13.107,0,0,0,2.764-.173,2.374,2.374,0,0,0,1.382-.864A5.564,5.564,0,0,0,1172.5,46.6h1.036v.864l-.518,2.245-.173,1.382h-1.208c-.518,0-1.727,0-3.627-.173H1163a29.39,29.39,0,0,0-3.626.173h-1.9v-.864a1.877,1.877,0,0,0,.864-.173,9.713,9.713,0,0,0,1.727-.345,1.294,1.294,0,0,0,.173-.864V38.654l-.173-1.554v-.173c0-.173-.172-.173-.345-.173h-.345a3.806,3.806,0,0,0-1.382-.173h-.519L1157.3,35.2Z" transform="translate(62.041 -1.658)" fill="#303030"/><path d="M1176.708,35.691c0,.345.173.691.173,1.209a9.3,9.3,0,0,1,.173,1.9v.518h-1.209a5.626,5.626,0,0,0-1.036-2.072,2.985,2.985,0,0,0-2.072-1.036,2.359,2.359,0,0,0-1.9.691,1.684,1.684,0,0,0-.691,1.554,2.11,2.11,0,0,0,.691,1.554,7.673,7.673,0,0,0,2.936,1.382,11.907,11.907,0,0,1,1.727.691,6.029,6.029,0,0,1,1.555,1.036,5.659,5.659,0,0,1,1.036,1.382,5.109,5.109,0,0,1,.345,1.727,10.106,10.106,0,0,1-.345,2.245,3.608,3.608,0,0,1-.691,1.036c-.173.173-.691.518-1.036.864a4.265,4.265,0,0,1-1.554.691,7.116,7.116,0,0,1-2.072.173,9.909,9.909,0,0,1-2.072-.173l-1.382-.345c-.345-.173-.691-.173-.691-.345a.169.169,0,0,0-.173-.173V46.744h1.036c.345.864.691,1.382.691,1.554a4.585,4.585,0,0,0,.864,1.036c.345.173.691.518,1.036.691a3.367,3.367,0,0,0,1.382.173,4.065,4.065,0,0,0,1.382-.345,3.1,3.1,0,0,0,1.209-.864,1.962,1.962,0,0,0,.518-1.382,2.748,2.748,0,0,0-.863-1.727,8.566,8.566,0,0,0-2.763-1.209,19.332,19.332,0,0,1-3.109-1.382,4.7,4.7,0,0,1-1.382-1.727,4.5,4.5,0,0,1-.518-1.9,4.718,4.718,0,0,1,1.382-3.281A5.525,5.525,0,0,1,1173.254,35a7.154,7.154,0,0,1,1.727.173,10.735,10.735,0,0,0,1.727.518Z" transform="translate(69.748 -1.803)" fill="#303030"/><path d="M1184.008,35.691c0,.345.173.691.173,1.209a9.3,9.3,0,0,1,.173,1.9v.518h-1.209a5.624,5.624,0,0,0-1.036-2.072,2.985,2.985,0,0,0-2.072-1.036,2.359,2.359,0,0,0-1.9.691,1.683,1.683,0,0,0-.691,1.554,2.109,2.109,0,0,0,.691,1.554,7.671,7.671,0,0,0,2.936,1.382,11.909,11.909,0,0,1,1.727.691,6.032,6.032,0,0,1,1.554,1.036,5.648,5.648,0,0,1,1.036,1.382,5.109,5.109,0,0,1,.345,1.727,10.106,10.106,0,0,1-.345,2.245,3.607,3.607,0,0,1-.691,1.036c-.172.173-.691.518-1.036.864a4.267,4.267,0,0,1-1.554.691,7.114,7.114,0,0,1-2.072.173,9.911,9.911,0,0,1-2.073-.173l-1.382-.345c-.345-.173-.691-.173-.691-.345a.169.169,0,0,0-.172-.173V46.744h1.036c.345.864.691,1.382.691,1.554a4.581,4.581,0,0,0,.864,1.036c.345.173.691.518,1.036.691a3.366,3.366,0,0,0,1.382.173,4.066,4.066,0,0,0,1.382-.345,3.1,3.1,0,0,0,1.209-.864,1.962,1.962,0,0,0,.518-1.382,2.747,2.747,0,0,0-.864-1.727,8.571,8.571,0,0,0-2.763-1.209,19.322,19.322,0,0,1-3.109-1.382,4.7,4.7,0,0,1-1.382-1.727,4.5,4.5,0,0,1-.518-1.9,4.718,4.718,0,0,1,1.381-3.281A5.525,5.525,0,0,1,1180.554,35a7.151,7.151,0,0,1,1.727.173,10.73,10.73,0,0,0,1.727.518Z" transform="translate(75.054 -1.803)" fill="#303030"/><path d="M1186.409,41.145a2.763,2.763,0,1,1,2.763-2.763,2.84,2.84,0,0,1-2.763,2.763m3.109-2.936a3.109,3.109,0,1,0-3.109,3.109,2.992,2.992,0,0,0,3.109-3.109" transform="translate(80.943 -1.73)" fill="#303030"/><path d="M1184.918,37.454V36.245h.691c.518,0,.864.173.864.691s-.518.691-.864.691h-.691v-.173Zm1.036.518a.865.865,0,0,0,.863-1.036c0-.691-.345-1.036-1.209-1.036H1184.4v3.627h.518V37.972h.691l1.036,1.554h.518l-1.209-1.554" transform="translate(81.744 -1.149)" fill="#303030"/></g></svg>