<svg xmlns="http://www.w3.org/2000/svg" width="93.175" height="152.825" viewBox="0 0 93.175 152.825"><g transform="translate(-600.161 -3.05)"><path d="M719.144,96.487c0,1.617,0,1.617-1.617,2.058-11.9,2.939-23.661,5.732-35.566,8.671-7.5,1.764-15.138,3.674-22.633,5.438-.147,0-.294.147-.441.147-.441.147-.588,0-.588-.441v-2.5c0-.441.294-.441.735-.588,3.968-1.029,8.083-1.911,12.051-2.939L712.53,96.193c1.91-.441,3.821-.882,5.879-1.47.735-.147.882-.147.882.735a2.869,2.869,0,0,0-.147,1.029Z" transform="translate(-42.12 43.02)" fill="#303030"/><path d="M719.144,4.74c0,1.617,0,1.617-1.764,2.058-10.728,2.645-21.31,5.144-32.038,7.789-8.671,2.058-17.489,4.262-26.16,6.32-.882.147-.882.147-.882-.735V18.261a.806.806,0,0,1,.588-.882c4.7-1.176,9.406-2.351,14.256-3.38C685.195,11.059,697.1,8.12,709.15,5.328c3.086-.735,6.173-1.47,9.112-2.2.735-.147.882-.147.882.735V4.74Z" transform="translate(-42.12)" fill="#303030"/><path d="M662.6,87.863a25.575,25.575,0,0,0,.735-3.233c.588-2.5,1.176-4.85,1.764-7.348.147-.441.294-.735.882-.735h3.086c.588,0,.735.147.735.735V92.86c0,.588-.147.735-.735.735H667.6c-.735,0-.882-.147-.882-.882V83.9h-.147c0,.147-.147.441-.147.588l-2.2,8.377c-.147.588-.441.735-1.029.735-2.352-.147-1.764.441-2.5-1.911s-1.323-4.85-1.911-7.348c0-.147-.147-.294-.294-.588v8.818c0,1.029,0,1.029-1.029,1.029h-1.323c-.441,0-.735-.147-.735-.735V77.135a.694.694,0,0,1,.735-.735h3.233c.441,0,.735.147.882.735.735,3.233,1.47,6.613,2.352,9.847,0,.294.147.441.147.735-.294.147-.147.147-.147.147Z" transform="translate(-43.482 34.449)" fill="#303030"/><path d="M678.98,42.63v8.083c0,.735-.147.882-.882.882h-1.764c-.441,0-.735-.147-.735-.735V35.135c0-.588.294-.735.735-.735h2.351c.588,0,.882.147,1.029.735l3.086,8.377c.147.294.147.441.294.588h.147V35.282c0-.882.147-.882.882-.882h1.617c.882,0,.882.147.882.882V50.713c0,.882-.147.882-.882.882h-2.058c-.588,0-1.029-.147-1.176-.735-.882-2.5-1.91-5.144-2.939-7.642-.147-.147-.147-.441-.294-.588h-.294Z" transform="translate(-33.995 14.724)" fill="#303030"/><path d="M670.8,57.024V49.382c0-.735.147-.882.882-.882h5.291a4.559,4.559,0,0,1,4.409,2.645,4.693,4.693,0,0,1-.588,5.291c-.294.294-.147.441,0,.735a4.967,4.967,0,0,1,.882,5.438,4.421,4.421,0,0,1-4.115,2.939c-2.058.147-4.115,0-6.026,0-.588,0-.588-.294-.588-.735C670.8,62.315,670.8,59.669,670.8,57.024Zm3.38,3.38v1.323a.663.663,0,0,0,.441.441h2.646a1.661,1.661,0,0,0,1.323-1.911,1.631,1.631,0,0,0-1.617-1.617h-2.351c-.441,0-.588.147-.588.588a2.865,2.865,0,0,1,.147,1.176Zm1.764-8.377h-1.323a.663.663,0,0,0-.441.441v2.2a.663.663,0,0,0,.441.441h2.646a1.727,1.727,0,0,0,1.47-1.617,1.511,1.511,0,0,0-1.617-1.47Z" transform="translate(-36.25 21.345)" fill="#303030"/><path d="M684.742,86.394V77.429c0-.735.147-.882.882-.882h1.91c.441,0,.735.147.735.735V93.007c0,.441-.147.735-.735.735h-2.5c-.588,0-.735-.147-1.029-.735-1.029-2.5-1.911-5.144-2.939-7.642-.147-.294-.147-.441-.294-.735h-.147v7.936c0,.882,0,1.029-1.029,1.029h-1.764c-.441,0-.735-.147-.735-.735V77.135c0-.441.147-.735.735-.735h2.2c.735,0,1.029.147,1.176.882,1.029,2.792,2.058,5.585,2.939,8.377a1.114,1.114,0,0,0,.294.588c.147.147.147.147.294.147Z" transform="translate(-33.291 34.449)" fill="#303030"/><path d="M657.3,43.024V35.382c0-.735.147-.882.882-.882h5a5.164,5.164,0,0,1,5.144,6.173,4.944,4.944,0,0,1-1.911,2.939c-1.029.735-.882.588-.441,1.764.735,1.764,1.47,3.527,2.351,5.291.294.735.147.882-.588,1.029h-2.058c-.588,0-.735-.147-1.029-.735-.735-1.911-1.469-3.674-2.351-5.585-.147-.294-.294-.588-.735-.588s-.735.147-.735.735v5.291c0,.735-.147.882-.882.882h-1.617c-.735,0-.882-.147-.882-.882C657.3,48.168,657.3,45.669,657.3,43.024Zm3.38-3.527V40.82a.39.39,0,0,0,.441.441h2.058A1.765,1.765,0,0,0,664.8,39.5a1.879,1.879,0,0,0-1.616-1.764H662.3c-1.617.147-1.617.147-1.617,1.764Z" transform="translate(-42.589 14.77)" fill="#303030"/><path d="M685.2,43.073V35.284c0-.735.147-.882.882-.882h4.409a5.788,5.788,0,0,1,5.879,5,28.326,28.326,0,0,1,0,7.054,5.8,5.8,0,0,1-5.879,5.144h-4.115c-.882,0-1.029,0-1.029-1.029-.147-2.351-.147-5-.147-7.5Zm3.527,0v4.556c0,.441.147.735.588.735h1.47a1.958,1.958,0,0,0,2.057-1.764,24.909,24.909,0,0,0,0-6.613,2.061,2.061,0,0,0-2.057-1.764h-1.47c-.441,0-.588.147-.588.588Z" transform="translate(-29.487 14.722)" fill="#303030"/><path d="M670.4,71.124V63.482c0-.882,0-.882,1.029-.882h4.115c3.086,0,5.144,1.47,5.732,4.556a18.564,18.564,0,0,1-.147,8.524,5.314,5.314,0,0,1-5.438,4.115h-4.409c-.588,0-.882-.147-.882-.882.147-2.645,0-5.291,0-7.789Zm3.527-.147v4.556c0,.441.147.588.588.588h1.47a1.86,1.86,0,0,0,2.057-1.764,26.024,26.024,0,0,0,0-6.76,2.061,2.061,0,0,0-2.057-1.764h-1.323c-.588,0-.735.147-.735.735v4.409Z" transform="translate(-36.438 27.968)" fill="#303030"/><path d="M686.8,85.173V77.531c0-.882,0-1.029,1.029-1.029h4.115a5.562,5.562,0,0,1,5.878,5,18.976,18.976,0,0,1,0,7.054,5.562,5.562,0,0,1-5.878,5h-4.409c-.588,0-.735-.294-.735-.735V85.173Zm3.38,0v4.556c0,.441.147.588.588.588h1.47a1.958,1.958,0,0,0,2.058-1.764,26.028,26.028,0,0,0,0-6.76,2.061,2.061,0,0,0-2.058-1.764h-1.323c-.588,0-.735.147-.735.735v4.409Z" transform="translate(-28.735 34.494)" fill="#303030"/><path d="M647.4,42.839c.147-1.029.147-2.5.294-3.674a5.564,5.564,0,0,1,3.821-4.556,5.71,5.71,0,0,1,6.173,1.47,4.875,4.875,0,0,1,1.47,3.674c0,.441-.147.735-.735.735h-2.058c-.441,0-.588-.147-.588-.588a2.342,2.342,0,0,0-2.645-2.058,2.293,2.293,0,0,0-2.2,2.351v6.173a1.923,1.923,0,0,0,1.47,2.058,2.755,2.755,0,0,0,2.939-.588,2.469,2.469,0,0,0,.441-2.2c0-.147-.294-.147-.441-.294h-1.323c-.441,0-.588-.147-.588-.588V42.692c0-.441.147-.588.588-.588h4.556a.538.538,0,0,1,.588.588c0,1.47.147,2.939,0,4.556a5.437,5.437,0,0,1-5.438,4.85,5.715,5.715,0,0,1-6.173-5.585,31.977,31.977,0,0,0-.147-3.674Z" transform="translate(-47.239 14.662)" fill="#303030"/><path d="M704.425,45.379h0c1.617,0,1.617,0,1.763,1.47V47c.147,1.029,1.176,1.617,2.5,1.617,1.323-.147,2.2-.882,2.2-1.911a1.476,1.476,0,0,0-.882-1.47c-.588-.294-1.029-.294-1.617-.588-.882-.294-1.911-.588-2.792-.882a4.17,4.17,0,0,1-2.645-3.968,4.865,4.865,0,0,1,2.352-4.409,6.21,6.21,0,0,1,7.054.441,5.165,5.165,0,0,1,1.911,3.968c0,.441-.147.735-.735.735H711.48c-.441,0-.735-.147-.735-.735.147-2.058-2.352-2.5-3.674-1.617a1.4,1.4,0,0,0,0,2.5,5.266,5.266,0,0,0,1.617.588c1.029.294,1.911.588,2.939.882a4.6,4.6,0,0,1,2.939,4.409,4.734,4.734,0,0,1-2.792,4.7,6.649,6.649,0,0,1-7.348-.735,5.221,5.221,0,0,1-1.617-4.556.663.663,0,0,1,.441-.441c.294-.294.735-.147,1.176-.147Z" transform="translate(-21.23 14.767)" fill="#303030"/><path d="M697.184,59.449c1.617,0,1.617,0,1.764,1.47a.54.54,0,0,0,.147.441c.294.882,1.323,1.323,2.645,1.323a2.093,2.093,0,0,0,2.057-1.617,1.686,1.686,0,0,0-.735-1.764c-.588-.294-1.323-.441-1.911-.735l-2.645-.882c-3.527-1.617-3.233-6.32-.588-8.23a6.184,6.184,0,0,1,7.642.441,5.336,5.336,0,0,1,1.617,3.821c0,.441-.147.735-.735.735h-2.058c-.441,0-.735-.147-.735-.735a1.628,1.628,0,0,0-1.323-1.764,2.78,2.78,0,0,0-2.646.441,1.394,1.394,0,0,0,.294,2.2c.588.294,1.176.441,1.764.735.882.294,1.91.588,2.792.882a4.654,4.654,0,0,1,2.939,4.556,4.851,4.851,0,0,1-2.939,4.7,6.7,6.7,0,0,1-6.026-.147,5.244,5.244,0,0,1-2.792-5.291.538.538,0,0,1,.588-.588Z" transform="translate(-24.57 21.272)" fill="#303030"/><path d="M684.771,31.318c.588,0,1.176-.147,1.47.147s.147.882.294,1.323a3.853,3.853,0,0,0,.735,1.323,2.653,2.653,0,0,0,3.233-.147,1.725,1.725,0,0,0-.294-2.939,8.423,8.423,0,0,0-2.057-.588c-.882-.294-1.617-.588-2.351-.882-3.527-1.764-3.086-6.32-.441-8.23a6.414,6.414,0,0,1,7.348.294,4.613,4.613,0,0,1,1.764,3.968c0,.441-.147.735-.735.735h-2.058c-.441,0-.735-.147-.735-.588.147-1.764-1.911-2.5-3.38-1.764a1.412,1.412,0,0,0-.882,1.323,1.544,1.544,0,0,0,.735,1.323,7.277,7.277,0,0,0,1.911.588,21.445,21.445,0,0,1,2.792,1.029c3.674,1.764,3.233,6.613.882,8.377a6.836,6.836,0,0,1-8.083,0,5.173,5.173,0,0,1-1.911-4.7.656.656,0,0,1,.588-.441,2.864,2.864,0,0,1,1.176-.147Z" transform="translate(-30.526 8.106)" fill="#303030"/><path d="M667,84.948c.147-1.029.147-2.5.294-3.821a5.786,5.786,0,0,1,11.463.588,29.514,29.514,0,0,1,0,7.2c-.441,3.233-2.792,5.144-6.173,5a5.844,5.844,0,0,1-5.438-5.438A32.064,32.064,0,0,0,667,84.948Zm3.527,0c0,1.029.147,2.2.147,3.38a2.2,2.2,0,0,0,2.351,2.2c1.47,0,2.351-.735,2.351-2.058a49.7,49.7,0,0,0,0-6.613c0-1.47-1.029-2.058-2.5-2.058a2.2,2.2,0,0,0-2.351,2.2,19.622,19.622,0,0,1,0,2.939Z" transform="translate(-38.034 34.426)" fill="#303030"/><path d="M694.8,42.977v-7.5c0-.882,0-.882.882-.882h8.083c.735,0,.882.147.882.882V37.1c0,.882,0,.882-.882.882h-4.85c-.588,0-.735.147-.735.735v2.058c0,.441.147.735.588.735h4.7c.735,0,.882.147.882.882v1.764c0,.588-.147.735-.735.735h-4.7c-.588,0-.735.147-.735.735V47.68c0,.441.147.588.588.588h5c.735,0,.882,0,.882.882V51.06c0,.441-.147.588-.588.588h-8.671c-.588,0-.588-.441-.588-.882V42.977Z" transform="translate(-24.978 14.817)" fill="#303030"/><path d="M679.821,69.066V63.482c0-.735.147-.882.882-.882h1.764c.735,0,.882.147.882.882V74.063a2.284,2.284,0,0,0,3.233,2.351,1.831,1.831,0,0,0,1.47-2.058V63.629c0-.882,0-1.029.882-1.029H690.7c.441,0,.588.147.588.588V74.8a5.075,5.075,0,0,1-4.556,5,5.737,5.737,0,0,1-6.467-3.086,6.656,6.656,0,0,1-.441-2.351c-.147-1.764,0-3.527,0-5.291Z" transform="translate(-32.044 27.968)" fill="#303030"/><path d="M675.1,29.071V21.282c0-.735.147-.882.882-.882h8.23c.588,0,.735.147.735.735v1.911c0,.588-.147.735-.735.735h-5c-.588,0-.735.147-.735.735v2.2c0,.441.147.588.588.588h4.85a.779.779,0,0,1,.882.882v1.764c0,.588-.147.735-.735.735h-4.7c-.588,0-.882.147-.882.735V33.48c0,.441.147.588.588.588h5c.735,0,.882,0,.882.882V36.86c0,.441-.147.735-.588.735h-8.671c-.588,0-.588-.294-.588-.735V29.071Z" transform="translate(-34.23 8.148)" fill="#303030"/><path d="M696.3,85.124V77.482c0-.735.147-.882.882-.882h8.083c.735,0,.882.147.882.882v1.911c0,.441-.147.735-.735.735h-5c-.441,0-.735.147-.588.588v2.058c0,.588.147.735.735.735h4.556c.882,0,.882,0,1.029,1.029v1.617c0,.588-.294.735-.735.735h-4.7c-.588,0-.735.147-.735.735V89.68c0,.588.147.735.735.735h5c.588,0,.882.294.735.882v1.911c0,.441-.147.735-.735.735h-8.671c-.588,0-.735-.294-.735-.882V85.124Z" transform="translate(-24.273 34.543)" fill="#303030"/><path d="M687.6,57.024V49.382c0-.735,0-.882.882-.882h8.23c.735,0,.882.147.882.882v1.764a.779.779,0,0,1-.882.882h-4.85c-.588,0-.735.147-.735.735V54.82c0,.441.147.735.588.588h4.7c.735,0,.882.147.882.882V58.2c0,.588-.147.735-.735.735h-4.7c-.588,0-.735.147-.735.735V61.58c0,.588.147.735.735.735h4.85c.882,0,1.029.147,1.029,1.029v1.764c0,.441-.147.588-.588.588h-8.671c-.588,0-.735-.294-.735-.735-.147-2.645-.147-5.291-.147-7.936Z" transform="translate(-28.36 21.345)" fill="#303030"/><path d="M667.236,48.512h1.323c.588,0,.882.147,1.029.735.735,2.645,1.47,5.438,2.2,8.083.588,2.5,1.323,5,1.911,7.348.147.735.147.882-.735.882h-1.911a.806.806,0,0,1-.882-.588c-.147-.735-.441-1.323-.588-2.058-.147-.441-.294-.588-.735-.588h-2.939a.806.806,0,0,0-.882.588,10.825,10.825,0,0,1-.588,2.058c-.147.441-.294.588-.735.588h-2.057c-.735,0-.882-.147-.735-.882.735-2.939,1.616-5.879,2.351-8.671.588-2.2,1.176-4.409,1.764-6.76.147-.588.441-.882,1.029-.735A3.136,3.136,0,0,0,667.236,48.512Zm1.469,10.435c-.441-2.058-.882-4.115-1.176-6.173h-.294c-.441,2.058-.882,4.115-1.176,6.173Z" transform="translate(-40.915 21.333)" fill="#303030"/><path d="M676.739,51.513c-1.911,0-1.47.294-2.058-1.617-.588-2.058-.147-1.617-2.2-1.617h-1.911c-.441,0-.588.147-.735.588-.147.735-.441,1.323-.588,2.058-.147.588-.441.735-1.029.735h-1.764c-.735,0-.882-.147-.735-.882,1.029-3.674,1.91-7.348,2.939-11.022.441-1.47.882-3.086,1.176-4.556.147-.441.294-.735.882-.588h2.645c.588,0,.882.147,1.029.735,1.029,4.115,2.2,8.377,3.38,12.492l.882,3.086c.147.588,0,.735-.588.882a2.417,2.417,0,0,0-1.323-.294Zm-4.556-12.786h-.294L670.566,44.9h2.057c.588,0,.588-.147.588-.735-.294-1.47-.588-3.086-.882-4.556,0-.294-.147-.588-.147-.882Z" transform="translate(-38.661 14.805)" fill="#303030"/><path d="M661.1,58.788v6.026c0,.588-.147.882-.735.735H658.6c-.735,0-.882-.147-.882-.882V52.615c0-.588-.147-.735-.735-.735h-2.351c-.441,0-.735-.147-.735-.735V49.088c0-.441.147-.588.588-.588h9.7c.441,0,.588.147.588.588v2.2c0,.441-.294.588-.735.588h-2.5c-.441,0-.588.147-.588.588C661.1,54.673,661.1,56.73,661.1,58.788Z" transform="translate(-44.187 21.345)" fill="#303030"/><path d="M680,57.024V49.382c0-.735,0-.882.882-.882h1.764c.735,0,.882.147.882.882v11.9c0,.882,0,.882.882.882h4.115c.588,0,.882.147.882.882V64.96c0,.441-.147.735-.588.735h-7.936c-.588,0-.588-.294-.588-.735A71.624,71.624,0,0,1,680,57.024Z" transform="translate(-31.929 21.345)" fill="#303030"/><path d="M667.5,29.024V21.382c0-.735.147-.882.882-.882H670c.882,0,.882.147.882.882v11.9c0,.882,0,.882.882.882h4.262c.588,0,.735.147.735.735v1.911c0,.441-.147.735-.735.735h-7.936c-.588,0-.588-.294-.588-.735V29.024Z" transform="translate(-37.799 8.196)" fill="#303030"/></g></svg>