<svg xmlns="http://www.w3.org/2000/svg" width="283.113" height="141.143" viewBox="0 0 283.113 141.143"><g transform="translate(-975 -7936.797)"><path d="M752.691,99.8l-1.243.691c-.276-.414-.414-.691-.69-.829a1.963,1.963,0,0,0-.829-.276,1.568,1.568,0,0,0-1.1.414,1.254,1.254,0,0,0-.414.967c0,.552.414.967,1.1,1.243l.967.414a3.506,3.506,0,0,1,1.8,1.243,2.546,2.546,0,0,1,.552,1.8,3.029,3.029,0,0,1-.967,2.348,3.6,3.6,0,0,1-2.348.967,3.136,3.136,0,0,1-2.21-.829,3.753,3.753,0,0,1-1.1-2.21l1.519-.414a1.866,1.866,0,0,0,1.8,1.933,2.228,2.228,0,0,0,1.243-.414,1.688,1.688,0,0,0,.414-1.243.831.831,0,0,0-.138-.552c0-.138-.138-.276-.276-.414l-.414-.414a3.02,3.02,0,0,0-.691-.414l-.967-.414a2.861,2.861,0,0,1-2.072-2.624,2.508,2.508,0,0,1,.829-1.933,3.137,3.137,0,0,1,2.21-.829,3.063,3.063,0,0,1,3.038,1.8" transform="translate(234.974 7968.753)" fill="#303030"/><g transform="translate(975 7936.797)"><path d="M921.2,98.2l2.762,7.043,2.9-7.043h1.657l-4.557,10.91L919.4,98.2Z" transform="translate(-674.403 32.032)" fill="#303030"/><path d="M933.362,99.581h-4v2.486h3.867v1.519h-3.867V106.9h4v1.519H927.7V98.2h5.662Z" transform="translate(-671.241 32.032)" fill="#303030"/><path d="M934.4,95.664A13.124,13.124,0,0,1,921,82.82a12.754,12.754,0,0,1,11.463-12.706.831.831,0,0,0,.138.552c-5.524.691-8.424,5.386-8.424,10.358,0,7.6,4.7,14.225,10.634,14.225a5.664,5.664,0,0,0,1.519-.138v.552a9.023,9.023,0,0,0-1.933,0m1.933-.276v-.552c4.972-1.1,7.734-5.524,7.734-10.22,0-7.6-4.972-14.225-10.634-14.225H932.6a.831.831,0,0,0-.138-.552c.414,0,.967-.138,1.381-.138a12.927,12.927,0,0,1,2.486,25.687" transform="translate(-673.794 21.173)" fill="#303030"/><path d="M850.933,26.825c-.138.138-.276-.138,0,0h0m-.691,2.486a.191.191,0,0,1,0-.276v.276m-.276.414c-.138,0-.276-.138-.138-.138s.276,0,.138.138m-.552,1.381c.138-.276.138-.691.414-.967-.138.414-.138.691-.414.967m-.552.829c.138-.276.414-.552.552-.276-.276.138-.414.276-.552.276m.829-2.762h0m-2.072,3.038a.482.482,0,0,0,.138-.276c0,.276-.138.276-.138.276m-.138,3.314h.276c-.138,0-.138.138-.276,0m-.138,1.243c.138,0,0,.138,0,.276-.138,0-.414.276-.276,0,.138,0,.138-.138.276-.276-.138,0-.276-.414,0-.414.276.276-.138,0,0,.414m-.414-.829.138-.552c-.138.276,0,.414-.138.552m-.138,2.072.138-.138a.135.135,0,0,1-.138.138m0-2.486c-.276-.138,0-.829.276-.967v.276l.552-.552c.138.829-.829.276-.829,1.243m-.138,1.1c0,.138-.138.138,0,0m-.138.829c0,.276-.552.414-.414.276-.138-.138-.138.138-.276.138.276,0,.138.414,0,.414a.135.135,0,0,0-.138.138c0,.276.276-.276.276.138-.138.138-.414,0-.69.138.276-.414-.276-.691.138-.967.414-.138.691-.138.967-.552-.138-.138,0-.414.138-.138-.138,0,.276.414,0,.414m.138,1.243c-.138.138-.138,0,0,0h0m-.414-.552h0c0,.138-.138.138,0,0m-.414,1.519c0-.138.138-.138.138-.276,0,.138.138.276-.138.276m-.138,2.348v0m-.138-1.8c.276,0-.138.276,0,.414-.138.138,0-.138,0-.414m-.414-5.938c0-.138-.138-.138,0-.138-.138,0,.138,0,0,.138m-.276,6.629c-.552,0,.276-.552,0-.829.552.276,0,.552,0,.829m-.138,4.005c-.138.138-.138.414-.276.276-.138-.276.276-.276.138-.552a.718.718,0,0,0-.276.552c0-.276.276-.552.138-.552.552.138,0-.414.414-.414,0,.138-.276.414-.138.691m-.552,1.8c-.276.138-.138.552-.414.691-.276-.138.138-.276,0-.552.138-.138.276,0,.276-.138-.138-.276-.138-.138.138,0,.138-.276.138.138,0,0m-.414-1.1v.414c-.276-.276-.138-.276,0-.414m-.138-4.972h0m-.967,9.529c-.276,0,.276-.552-.276-.414,0,.414-.138.276-.138-.138,0-.276.276,0,.276-.138-.138-.276.552-.552.138-.829.414,0,.138-.829.414-1.1a3.249,3.249,0,0,1,.276-1.1,19.469,19.469,0,0,1-.691,3.729m.691,0c.138.138,0,.138,0,0m0,.276h0m-.138-.276a.482.482,0,0,0,.138-.276c-.138.138,0,.276-.138.276m-.138,1.519c0,.276,0,.552-.414.414-.138-.276.276-.691.414-.414m-.829-5.8c0-.138.276-.138.276-.276a.135.135,0,0,1,.138-.138c0,.138,0,.138-.138.138-.138.276.138.691-.414.691,0-.276.414-.276.138-.414m-.414,3.315.138-.276s.138.276-.138.276m-.138,1.1c0-.552,0-.138.138-.691a1.035,1.035,0,0,1-.138.691m-.138,1.1a1.488,1.488,0,0,0-.276,1.1s-.138.138-.138,0c-.414-.276.414-.414,0-.552.414-.276-.138-.414.414-.552-.138-.138-.138-.138-.276-.138.138-.138.276-.138.276.138m-.414,1.657-.138.552h0m1.519-8.562c.276,0,.414.138.138.138-.138.138-.276-.138-.138-.138m0-3.867c-.276-.276.138-.414,0,0m.276.829c0,.276-.138.414-.138.691v0a5.978,5.978,0,0,0,.138-.691m0,2.486h0m.276-.967v.276c-.138.138-.276.138,0-.276m-.276-3.314c.276-.276.691-.414.276.138l-.138.138c0,.276,0-.276-.138-.276m.69-1.8c.138.138-.138.691-.138.276.138.138.138-.138.138-.276m.414,4.557v.276c-.138-.138,0-.138,0-.276m0,1.657c.138,0,0,.138,0,.138-.138.276-.138,0,0-.138m.414,1.243c.138.138,0,.138,0,.276-.138-.138,0-.138,0-.276m0-5.938v-.276c0,.138.138.138,0,.276m.138-3.729h0m.276.691a.191.191,0,0,1,0,.276v-.276m.829-1.243v.276s-.138,0,0-.276m.552-.414c.138-.138.138,0,0,0h0m.276-.552a.135.135,0,0,1-.138.138l.138-.138m.967-2.21c0-.138.276-.138.276-.276a.508.508,0,0,1-.138.414c0,.138-.138.138-.138.276,0-.276-.138-.414,0-.414m-6.491,22.1v0m-.276,1.657v0m-1.657,4.7c0,.138.138.138.138.414l-.138-.414m-.138,1.243h0m2.762-24.721a.428.428,0,0,1,.276.138c0,.276-.276-.138-.276-.138M838.5,52.927a1.391,1.391,0,0,1,.138.414c-.276,0-.138-.414-.138-.414M857.562,7.076c-.138-.691.552-1.1.414-1.657-.414-.138.138-.691-.276-.967-.69.552-.138-.552-.552-.552a37.934,37.934,0,0,0-3.038,3.591,82.783,82.783,0,0,0-8.148,16.434,9.26,9.26,0,0,0-.967,2.486c-.414.414-.414,1.243-.552,1.657.276.552-.276.829-.138,1.243-.276,0-.138.691-.414.414-.276,0,.276.691-.138,1.243,0,.414-.414.138-.414.414.414.138-.552.138,0,.414.138.138-.138.552-.138.691-.138-.276-.276.276-.414.552,0,0,.276,0,.138.138-.276.414,0,.414,0,.829a.135.135,0,0,0-.138.138c-.138-.138,0-.138-.138-.138.138.276-.414,1.519-.414,1.519h.276s.69-.414-.552,1.243c0-.138-.138-.276-.138,0,.276.552-.552.691-.276,1.1-.138.414.138,1.1-.552,1.243.138.138.276,0,.138.276-.552,2.486-.691,2.486-.691,2.486s.414.414.138.552c-.276-.276-.276.552-.138.276.138.276-.138.829,0,1.243-.138.138-.691.829-.138.276-.276.552-.138,1.381-.552,1.657.276.414-.138.967,0,1.243-.414.414-.276,1.1-.552,1.657a.342.342,0,0,1-.138.552,20.144,20.144,0,0,0-.414,3.038c0,.276-.138.691-.276.691-.276.829-.276,2.486-.552,3.591.276.829-.138,1.657-.138,2.348h.276l.138.138c-.552-.138.138.414-.276.414v.138s.138-.138.138,0c-.552.276.138.829-.276,1.243a5.725,5.725,0,0,0-.276,2.072c.276.138-.276.414,0,.414.138.138,0,.138-.138.138-.138.276-.414.967,0,1.243.414-.276-.138-.138-.138-.276l.414-.414c-.552-.552.967-.691,0-1.1.276-.276.276.138.414.138.276-.414-.276-.691-.276-.967.691-.276.552-.829.829-1.519-.414-.414.414-.552.414-.829-.967-.414.691-.691.138-1.381.138-.138.414-.691,0-.276.138-.138-.138-.552.276-.552a2.6,2.6,0,0,1,.276-1.1c.414-.276-.138-.829.276-.967-.276-.276-.276-.691,0-.691s.276-.552,0-.691a19.266,19.266,0,0,0,.828-3.314c.138-.276.138-.691.276-.967,0-1.8.967-3.314,1.243-4.972.276-.276,0-.967.552-.829-.552,1.243-.552,2.624-1.1,3.729.276.414-.138,1.8-.414,2.486-.138.276-.276.691,0,.829-.138.552-.552.829-.276,1.519-.276.276.276,1.1-.276,1.381-.276,1.519-.691,2.762-.829,4.281.138-.138,0-.276.138-.276a.259.259,0,0,1,0,.414c-.138.138-.138.967-.276.414-.414.691-.138,1.381-.414,2.21.414.552-.552.829-.276,1.519a2.636,2.636,0,0,1-.414,1.1c.138.414.138,0,.138,0,.276-.138.276.138.276.276,0-.138.276-.276.138-.552,0-.138-.138-.276-.138,0,0,0-.138.138-.138,0,0,0-.138-.138,0-.138.138-.276.276-.829.414-.276a8.078,8.078,0,0,0,.552-2.624l.138-.138c-.138-.552.552-.967.414-1.519,0-.138.138-.414.138-.552-.138.276-.138-.138-.276-.276.691-.276.138-.691.552-1.1.276,1.1-.552,2.348-.276,3.314a4.262,4.262,0,0,0,.138-1.243,1.964,1.964,0,0,0,.276-.829c.276-.414.138-.829.414-1.243.276-.276.138-.552.276-.552,0-.138-.138,0-.138-.138.276-.138-.138-.691.276-.276.276-.138-.276-.829.138-.967-.276-.829.691-1.381.414-2.21a7.121,7.121,0,0,1,.276-1.519c.276-.138,0-.829.414-.414-.414,2.072-.69,4.005-1.1,6.077.276-.276.138-.552.414-.552-.276-.829.276-.829.276-1.243.138-.138-.276-.276,0-.414.276,0,.138,0,0-.138.414-.552.276.138.276.276v-.276c.138-.138.138-.414.276-.138-.414,1.1.276-.276.138-.138-.414.276-.69.138-.552-.276-.138-.552.276-.552.552-1.1a.616.616,0,0,1,0,.691c.138-.414.138-.967.552-1.1-.414-.138,0-.691-.552-.552-.276-.138-.138-.276,0-.414.414-.276,0,.276.276.414.276-.552.138-.414.414-.967-.276-.276,0-.414,0-.552.138-.414.414-.829.552-1.243,0-.414-.552-.138-.691,0-.138-.138,0-.276,0-.414.138-.276.691,0,.414-.138.276-.138.552-.138.552-.552-.414-.552.276-.691,0-1.1,0-.138.138,0,.276,0,0,0,.138.138,0,.138.138-.138.138-.552.138-.691-.552-.414.276-.276.276-.691,0-.276-.276,0-.138.138-.138,0-.138.138-.276.138a3.451,3.451,0,0,1,.552-1.933c.138.414.691-.829,0-.138V43.4c.138-.691.276.276,0-.414h.414c-.276-.414.691-.829,0-.691-.414-.414.138-.138.276-.414a3.515,3.515,0,0,0,.276-.967c-.138-.138,0-.138.138-.138.138-.691.276-.414-.276-.276-.138-.138.138-.138,0-.414,1.1-.138.552-1.381.967-1.8-.138-.276.276,0,.138-.276-.138-.138.276-.276,0-.276-.138-.138.138-.276.138-.414.138.138,0,.138,0,.276.138-.276.276-.691.414-.967-.138.138-.138.276-.276.552-.276-.691,1.1-.552.138-.829,0-.138.276-.414.138-.691.138,0,.276-.276.276-.138-.138.138-.276.967,0,.414.276-.414.138-.967.552-1.243-.276-.276-.276.414-.552.552.138-.276-.414-.414,0-.414,0-.138.138-.276,0-.276,0,0,.276-.552.552-.138.552-.552,0,.138-.276-.414-.276-.414.414-.552.552-.691-.138,0-.138,0-.138-.138.138-.138.276-.138.414-.276.138-.276.138-.552.276-.691.828-1.657,1.381-3.591,2.072-5.248-.276.138-.276.552-.552.691-.138-.276.276-.552.138-.829.829-1.519,1.1-3.314,2.072-4.7.967-2.21,1.657-4.419,2.624-6.629a1.84,1.84,0,0,1,.414-.691c.138-.138,0,0-.414.138.276-.829,1.1-2.348.828-2.21-.138.276-.276.276-.414.552,0-.414.552-1.1.414-1.8.552-.691,0-1.657.552-2.486-.276,0-.276-.276-.276-.552.276-.829.829-1.8.276-1.381" transform="translate(-705.785 -3.9)" fill="#303030"/><path d="M845.716,24.8c-.138.414,0,0,.138.138s0-.138-.138-.138" transform="translate(-702.502 4.064)" fill="#303030"/><path d="M843.316,29.152c0-.276.276-.276.138-.552-.138,0-.276.414-.138.552" transform="translate(-703.417 5.512)" fill="#303030"/><path d="M839.938,29.4c0,.138-.138.276-.138.414.276,0,.138-.276.138-.414" transform="translate(-704.735 5.817)" fill="#303030"/><path d="M843.3,31.6Z" transform="translate(-703.401 6.655)" fill="#303030"/><path d="M839.038,34.4s0,.276-.138.276c.138.138,0-.138.138-.276" transform="translate(-705.077 7.722)" fill="#303030"/><path d="M838.71,35.914c0-.138.138-.276.138-.414-.276.138-.138.276-.138.414" transform="translate(-705.163 8.141)" fill="#303030"/><path d="M838.1,38.491c.138-.138.138-.552.138-.691a5.979,5.979,0,0,1-.138.691" transform="translate(-705.383 9.017)" fill="#303030"/><path d="M841.629,39.024c-.138-.414-.138.829,0,.138-.138,0,0-.138,0-.138" transform="translate(-704.077 9.451)" fill="#303030"/><path d="M838.126,39.148a.135.135,0,0,1,.138-.138c0-.967-.414.138-.138.138" transform="translate(-705.409 9.327)" fill="#303030"/><path d="M839.438,39.7a.482.482,0,0,1-.138.276c0-.138.276,0,.138-.276" transform="translate(-704.925 9.741)" fill="#303030"/><path d="M840.8,40.876c.138-.138,0-.138,0-.276.138,0,.138.138,0,.276" transform="translate(-704.354 10.084)" fill="#303030"/><path d="M841,40.876c0-.138.138-.138.138-.276,0,.138-.138.138-.138.276" transform="translate(-704.277 10.084)" fill="#303030"/><path d="M840.866,41.538,841,41.4c-.138.138-.691,0-.138.138" transform="translate(-704.421 10.389)" fill="#303030"/><path d="M840.9,41.4h0" transform="translate(-704.316 10.389)" fill="#303030"/><path d="M840.9,41.4" transform="translate(-704.316 10.389)" fill="#303030"/><path d="M840.6,42.048c.138,0,.138-.138.276-.138-.138,0-.276-.138-.276.138" transform="translate(-704.43 10.57)" fill="#303030"/><path d="M840.538,41.9a.507.507,0,0,0-.138.414c.138-.138,0-.276.138-.414" transform="translate(-704.507 10.58)" fill="#303030"/><path d="M838.1,45.176v0" transform="translate(-705.383 11.723)" fill="#303030"/><path d="M838.9,45.518c.138-.138.138-.138.138-.276.138-.414-.138.138-.138.276" transform="translate(-705.077 11.795)" fill="#303030"/><path d="M837.11,45.891c.276,0,0-.414.138-.691-.276.138-.138.276-.138.691" transform="translate(-705.774 11.837)" fill="#303030"/><path d="M837.676,47.338c-.138-.138-.138-.138-.276-.138a.428.428,0,0,0,.276.138" transform="translate(-705.649 12.599)" fill="#303030"/><path d="M837.938,48H837.8c0,.138,0,.414.138,0" transform="translate(-705.497 12.904)" fill="#303030"/><path d="M837.5,56.638a.135.135,0,0,1,.138-.138H837.5v.138" transform="translate(-705.611 16.143)" fill="#303030"/><path d="M837.5,56.7" transform="translate(-705.611 16.219)" fill="#303030"/><path d="M837.1,48.676a.191.191,0,0,0,0-.276v.276" transform="translate(-705.763 13.057)" fill="#303030"/><path d="M838.458,57.531c-.138-.552.138-1.243.276-.276,0,.276,0,.414-.276.276m2.9-6.767c-.138,0-.414-.276-.414,0a1.986,1.986,0,0,0-.414-.276,1.069,1.069,0,0,1-.414-.138c-.276-.414-.552,0-1.1.138.138.138,0,.138-.138.276.276.691-.829,0-1.1.276-.276-.276-.691.414-.829-.138-.276.276-.552.414-.691.691-.552-.276,0,.414-.552.138-1.1.552-.414,1.933-1.8,2.624a.83.83,0,0,0,.138.552c.552.138.69.691.829,1.243.828.414.414,1.381,1.1,1.8-.138,1.1.552-.552.691.552.829.276-.276.552,0,1.1.138.138.552.414.414,0,.829.829.138-.829.829-.691v-.276c.552-.138.276-.552.276-.829.829,0,.414,1.243.691,1.1.138.138.414-.691.552-.967,0,.138.138.414.414.138,0-.276,1.243-.967.69-1.1.967-.552-.138-1.519.691-2.072.138.276.414-.276.552-.276.138-.552-.414-.691-.414-1.1.552-1.1-.276-1.8,0-2.762" transform="translate(-706.983 13.731)" fill="#303030"/><path d="M840.876,37.838c-.138.276-.138.552-.276.829a.507.507,0,0,1,.414.138,2.6,2.6,0,0,1,.276-1.1h-.276a.135.135,0,0,1-.138.138" transform="translate(-704.43 8.979)" fill="#303030" fill-rule="evenodd"/><path d="M839.952,37.4h-.276a.831.831,0,0,1-.138.552,5.973,5.973,0,0,0-.138.691.507.507,0,0,1,.414.138c0-.138.138-.276.138-.414a1.168,1.168,0,0,1,0-.967" transform="translate(-704.888 8.865)" fill="#303030" fill-rule="evenodd"/><path d="M839.276,43.4a1.962,1.962,0,0,1-.276.829.507.507,0,0,1,.414.138c0-.276.138-.691.138-.967h-.276" transform="translate(-705.04 11.151)" fill="#303030" fill-rule="evenodd"/><path d="M838.1,44.167a.83.83,0,0,1,.552.138c0-.276.138-.414.276-.691.138.414.138,0,.276-.276-.138,0-.414-.138-.552-.138.138.414-.414.691-.552.967" transform="translate(-705.383 11.075)" fill="#303030" fill-rule="evenodd"/><path d="M840.1,38.225a.135.135,0,0,1,.138.138.135.135,0,0,0-.138.138h.138v-.138c.276-.276,0-.276-.138-.138" transform="translate(-704.621 9.145)" fill="#303030" fill-rule="evenodd"/><path d="M841.1,38.529h.276c0-.138-.138-.138-.276,0" transform="translate(-704.24 9.256)" fill="#303030" fill-rule="evenodd"/><path d="M872.759,35.564c-2.348-2.762-5.524-4.7-8.562-6.491a12.113,12.113,0,0,0,4.419-3.591c1.933,1.243,5.386,3.453,5.8,6.353,0,1.519-.414,3.038-1.657,3.729m.414,8.148a7.139,7.139,0,0,1-4.005,3.729,12.173,12.173,0,0,0-4.005-7.043,24.113,24.113,0,0,0,6.353-2.348c1.243,1.381,2.624,3.453,1.657,5.662m-6.215,7.734c-1.381,1.8-3.038,2.486-4.834,3.314a6.087,6.087,0,0,0-1.243-4.557,31.247,31.247,0,0,0,6.905-1.243,5.853,5.853,0,0,1-.829,2.486m-7.043-2.21c-4.7-4.557-12.568-7.458-16.987-8.148-6.077-1.1-11.048-.967-14.5,1.1-1.933-1.243-4.557-3.038-4.005-5.524.967-2.348,4.281-2.486,4.281-2.486s5.524,3.729,16.3,5.8c.276,0,.69.138.967.138,0-.138.138-.276.138-.138.276-.138-.138-.552-.138-.552l.138-.276a71.637,71.637,0,0,1-16.158-5.386c5.248-1.1,11.048-.276,16.3.967a58.888,58.888,0,0,1,14.087,5.386,64.592,64.592,0,0,1-8.977-.138v.276c-.138,0-.138.138-.276,0v.691a46.8,46.8,0,0,0,10.91,0c2.348,1.519,5.524,4.005,5.938,6.905a45.117,45.117,0,0,1-8.01,1.381m-34.8-20.3c-.138-1.657,1.1-2.624,2.348-3.176a10.592,10.592,0,0,1,3.729-.967,13.511,13.511,0,0,0,2.348,1.8c3.176,2.072,9.115,4.005,14.639,4.7,0-.138,0-.138.138-.414.138-.138-.138-.138-.138-.138a.507.507,0,0,0,.138-.414c-1.657-.276-3.453-.552-5.662-1.1a32.243,32.243,0,0,1-10.082-4.557c9.115-1.1,17.677,1.381,25.549,4.557l1.381.691a21.166,21.166,0,0,1-5.524.829v.276c.276.414.829-.276.276.414-.276-.414-.552.276-.552.138.138,0,.138.138,0,.138h.138c0-.138.138-.138.276,0a21.451,21.451,0,0,0,6.767-1.243c.138,0,3.453,1.933,4.833,2.762a18.625,18.625,0,0,1,4.972,3.867,25.025,25.025,0,0,1-6.767,2.486c-6.077-4.557-14.639-6.767-19.473-7.734-4.834-1.1-12.291-1.381-17.4.138a6.408,6.408,0,0,1-1.933-3.038m5.662-8.839c.967-2.21,6.077-2.762,8.286-2.9H842.1a2.371,2.371,0,0,0,.552.829c1.934,2.624,5.524,3.867,8.424,4.419.138-.138.414-.276.276-.414-2.624-.691-6.353-2.072-7.872-4.7a52.41,52.41,0,0,1,23.892,7.6,9.059,9.059,0,0,1-4.557,3.591c-1.8-.829-8.977-4.281-15.191-5.386s-12.153-1.519-16.573-.691l-.414.138a3.692,3.692,0,0,1,.138-2.486m19.611-8.148c8.01.276,16.434,4.143,17.815,10.082a54.812,54.812,0,0,0-23.34-7.6h-1.1c1.243-2.21,5.248-2.486,6.629-2.486m25.549,21.13c1.381-4.281-3.038-7.734-6.353-9.943a6.137,6.137,0,0,0-.414-3.453c-2.072-4.7-7.872-8.286-13.534-9.529-.552-.138-1.381-.276-2.21-.414a17.655,17.655,0,0,0-2.9-.138c-3.315.138-7.182,1.243-8.424,4.834-3.867.138-8.839.138-11.463,3.176a4.583,4.583,0,0,0-.967,5.11c-2.486.691-5.662,2.21-6.077,5.11-.138,1.933,1.381,3.176,2.486,4.557-.276.138-.69.414-.967.552-1.1.829-2.348,1.933-2.21,3.453-.138,3.038,2.624,4.972,4.7,6.353a4.066,4.066,0,0,0-1.381,2.486c0,4.143,3.591,5.938,6.215,7.734,1.8,4.143,6.353,6.215,10.22,7.181a1.752,1.752,0,0,1,.138-.829h-.138c0,.138,0,.276-.138.276v-.276c-3.591-.967-7.32-2.9-8.839-5.662A45.807,45.807,0,0,0,843.2,56.97c0-.138-.138-.276.138-.138a.135.135,0,0,0-.138-.138h-.276a1.5,1.5,0,0,1,.138-.691c-4.005-.829-6.215-2.072-9.529-3.453.414-1.8,2.348-2.21,4.557-2.072A42.7,42.7,0,0,1,845.414,52c1.933.691,4.005,1.933,4.005,2.9a.994.994,0,0,1-.829.967c.138.414.552.276,1.243.138a1.734,1.734,0,0,0,.967-2.348c-1.8-3.314-7.872-4.972-11.6-5.11a17.472,17.472,0,0,0-3.867.414,4.2,4.2,0,0,0-2.9,2.348l-.138.552c-2.348-1.519-4.834-3.176-5.11-5.386A2.629,2.629,0,0,1,828.7,43.85s1.1.552,3.867,1.657a109.507,109.507,0,0,0,11.463,3.453c0-.414.138-.829.138-1.243-.276,0-.552-.138-.828-.138-9.115-2.072-13.4-4.281-13.4-4.281a11.959,11.959,0,0,1,1.381-.276c4.143-.829,8.563-.138,12.844.967a40.225,40.225,0,0,1,12.291,5.386,37.274,37.274,0,0,1-8.01-.691c-.138.138-.138.138-.276.552-.138-.138.276-.552-.276-.414-.138.138-.276.414,0,.414.414-.138.138.276.414.552a44.339,44.339,0,0,0,9.253.691c1.1,1.381,2.348,3.038,2.348,4.972a29,29,0,0,1-14.5.967.135.135,0,0,1-.138.138c0,.276-.138.414-.138.829a5.976,5.976,0,0,1,.69.138c4.005.552,8.563.967,13.258-.552-3.176,3.453-9.805,3.453-13.81,3.038-.414,0-.829-.138-1.381-.138-.138.276-.138.552-.276.829a15.379,15.379,0,0,0,2.348.276c3.453.414,12.015.276,15.33-4.972,3.176-1.243,7.182-3.176,7.458-7.181,2.209-1.1,4.972-3.176,5.662-5.8a8.434,8.434,0,0,0-1.381-6.353,6.247,6.247,0,0,0,2.9-3.591" transform="translate(-711.177 -1.728)" fill="#303030" fill-rule="evenodd"/><path d="M838.5,45.738c-.276,0-.414-.138-.691-.138-.138.138-.276.138-.414.276,0,.276.276.414.276.552.276,0,.414.138.69.138v-.276a1.044,1.044,0,0,1,.138-.552" transform="translate(-705.649 11.99)" fill="#303030" fill-rule="evenodd"/><path d="M838.2,46.429h.138c0-.138-.138-.138-.138,0" transform="translate(-705.344 12.266)" fill="#303030" fill-rule="evenodd"/><path d="M838.3,46.1h0" transform="translate(-705.307 12.18)" fill="#303030" fill-rule="evenodd"/><path d="M754.819,102.757h.552q2.072,0,2.072-1.657c0-1.1-.691-1.519-2.21-1.519h-.552v3.176h.138Zm0,1.519v4.143H753.3V98.2h1.8a7.339,7.339,0,0,1,1.934.138,1.9,1.9,0,0,1,1.1.691,2.915,2.915,0,0,1,.829,2.21,2.576,2.576,0,0,1-.967,2.21,3.856,3.856,0,0,1-2.486.829h-.691" transform="translate(-737.695 32.032)" fill="#303030"/><path d="M765.062,99.581h-4.143v2.486h4v1.519h-4V106.9h4.143v1.519H759.4V98.2h5.662Z" transform="translate(-735.37 32.032)" fill="#303030"/><path d="M773.41,98.829v1.8a4.386,4.386,0,0,0-2.762-1.1,3.536,3.536,0,0,0-2.624,1.1,3.856,3.856,0,0,0-1.1,2.762,4.106,4.106,0,0,0,1.1,2.762,3.773,3.773,0,0,0,2.624,1.1,4.085,4.085,0,0,0,1.381-.276,1.84,1.84,0,0,0,.691-.414,2.427,2.427,0,0,0,.691-.552v1.933a4.852,4.852,0,0,1-2.762.691,5.188,5.188,0,0,1-5.248-5.248,5.3,5.3,0,0,1,1.243-3.453A5.379,5.379,0,0,1,770.786,98a4.547,4.547,0,0,1,2.624.829" transform="translate(-733.084 31.956)" fill="#303030"/><path d="M775.057,98.2H773.4v10.22h1.657Z" transform="translate(-730.036 32.032)" fill="#303030"/><path d="M782.791,104.605l-1.519-3.453-1.657,3.453Zm.691,1.519h-4.419l-1.1,2.486H776.3l5.11-10.91,4.834,10.91h-1.657Z" transform="translate(-728.931 31.842)" fill="#303030"/><path d="M786.857,98.2v8.7h2.9v1.519H785.2V98.2Z" transform="translate(-725.539 32.032)" fill="#303030"/><path d="M786.857,98.2v8.7h2.9v1.519H785.2V98.2Z" transform="translate(-519.489 32.032)" fill="#303030"/><path d="M791.919,98.2H790.4v10.22h1.519Z" transform="translate(-723.558 32.032)" fill="#303030"/><path d="M800.091,99.8l-1.243.691c-.276-.414-.414-.691-.691-.829a1.963,1.963,0,0,0-.828-.276,1.568,1.568,0,0,0-1.1.414,1.254,1.254,0,0,0-.414.967c0,.552.414.967,1.1,1.243l.967.414a3.507,3.507,0,0,1,1.8,1.243,2.547,2.547,0,0,1,.552,1.8,3.029,3.029,0,0,1-.967,2.348,3.6,3.6,0,0,1-2.348.967,3.136,3.136,0,0,1-2.21-.829,3.754,3.754,0,0,1-1.1-2.21l1.519-.414c.138.552.138.967.414,1.243a1.7,1.7,0,0,0,1.381.691,2.228,2.228,0,0,0,1.243-.414,1.688,1.688,0,0,0,.414-1.243.831.831,0,0,0-.138-.552c0-.138-.138-.276-.276-.414l-.414-.414a3.013,3.013,0,0,0-.69-.414l-.967-.414a2.86,2.86,0,0,1-2.072-2.624,2.508,2.508,0,0,1,.828-1.933,3.136,3.136,0,0,1,2.21-.829,3.062,3.062,0,0,1,3.038,1.8" transform="translate(-722.338 31.956)" fill="#303030"/><path d="M803.867,99.581v8.839h-1.519V99.581H800V98.2h6.215v1.381Z" transform="translate(-719.901 32.032)" fill="#303030"/><path d="M812.291,99.8l-1.243.691c-.276-.414-.414-.691-.69-.829a1.963,1.963,0,0,0-.829-.276,1.568,1.568,0,0,0-1.1.414,1.254,1.254,0,0,0-.414.967c0,.552.414.967,1.1,1.243l.967.414a3.507,3.507,0,0,1,1.8,1.243,2.547,2.547,0,0,1,.552,1.8,3.029,3.029,0,0,1-.967,2.348,3.6,3.6,0,0,1-2.348.967,3.136,3.136,0,0,1-2.21-.829,3.752,3.752,0,0,1-1.1-2.21l1.519-.414a1.866,1.866,0,0,0,1.8,1.933,2.227,2.227,0,0,0,1.243-.414,1.688,1.688,0,0,0,.414-1.243.831.831,0,0,0-.138-.552c0-.138-.138-.276-.276-.414l-.414-.414a3.023,3.023,0,0,0-.691-.414l-.967-.414a2.861,2.861,0,0,1-2.072-2.624,2.508,2.508,0,0,1,.829-1.933,3.136,3.136,0,0,1,2.21-.829,3.062,3.062,0,0,1,3.038,1.8" transform="translate(-717.69 31.956)" fill="#303030"/><path d="M818.219,98.2H816.7v10.22h1.519Z" transform="translate(-713.537 32.032)" fill="#303030"/><path d="M820.4,108.61V97.7l7.458,7.734V98.391h1.519v10.772l-7.458-7.734v7.181Z" transform="translate(-712.128 31.842)" fill="#303030"/><path d="M836.467,99.581v8.839h-1.519V99.581H832.6V98.2h6.215v1.381Z" transform="translate(-707.478 32.032)" fill="#303030"/><path d="M840.419,102.205h4.419V98.2h1.519v10.22h-1.519v-4.834h-4.419v4.834H838.9V98.2h1.519Z" transform="translate(-705.077 32.032)" fill="#303030"/><path d="M852.562,99.581h-4.005v2.486h3.867v1.519h-3.867V106.9h4.005v1.519H846.9V98.2h5.662Z" transform="translate(-702.029 32.032)" fill="#303030"/><path d="M862.791,104.605l-1.519-3.453-1.657,3.453Zm.691,1.519h-4.419l-1.1,2.486H856.3l5.11-10.91,4.834,10.91h-1.657Z" transform="translate(-698.448 31.842)" fill="#303030"/><path d="M866.719,102.9h.552c1.519,0,2.21-.552,2.21-1.657s-.69-1.519-2.072-1.519h-.552V102.9h-.138Zm1.934,1.1,3.176,4.419H869.9l-2.9-4.143h-.276v4.143H865.2V98.2H867a4.043,4.043,0,0,1,2.9.829,3.028,3.028,0,0,1,.276,4.143,2.325,2.325,0,0,1-1.519.829" transform="translate(-695.056 32.032)" fill="#303030"/><path d="M874.967,99.581v8.839h-1.519V99.581H871.1V98.2h6.215v1.381Z" transform="translate(-692.808 32.032)" fill="#303030"/><path d="M882.419,103.386a3.856,3.856,0,0,0,1.1,2.762,3.773,3.773,0,0,0,2.624,1.1,4.106,4.106,0,0,0,2.762-1.1,3.867,3.867,0,0,0-2.762-6.629,4.106,4.106,0,0,0-2.762,1.1,4.448,4.448,0,0,0-.967,2.762m-1.519-.138A5.188,5.188,0,0,1,886.148,98a5.1,5.1,0,0,1,3.729,1.519,5,5,0,0,1,1.519,3.729,5.1,5.1,0,0,1-1.519,3.729,5.67,5.67,0,0,1-3.867,1.519,5.112,5.112,0,0,1-3.591-1.381,4.984,4.984,0,0,1-1.519-3.867" transform="translate(-689.074 31.956)" fill="#303030"/><path d="M896.01,99.581h-3.591v2.486h3.453v1.519h-3.453v4.834H890.9V98.2h5.11Z" transform="translate(-685.263 32.032)" fill="#303030"/><path d="M903.567,99.581v8.839h-1.519V99.581H899.7V98.2h6.215v1.381Z" transform="translate(-681.91 32.032)" fill="#303030"/><path d="M907.619,102.9h.552c1.519,0,2.21-.552,2.21-1.657s-.69-1.519-2.072-1.519h-.552V102.9h-.138Zm1.934,1.1,3.176,4.419H910.8l-2.9-4.143h-.276v4.143H906.1V98.2h1.8a4.043,4.043,0,0,1,2.9.829,2.575,2.575,0,0,1,.967,2.21,2.4,2.4,0,0,1-2.21,2.762" transform="translate(-679.472 32.032)" fill="#303030"/><path d="M918.491,104.605l-1.519-3.453-1.519,3.453h3.038Zm.552,1.519h-4.281l-1.1,2.486H912l5.11-10.91,4.834,10.91h-1.657Z" transform="translate(-677.223 31.842)" fill="#303030"/><path d="M782.534,95.235c-1.381-.138-3.591-.138-4.143-.138-.691,0-2.624,0-3.867.138-.276,0-.414-.276-.138-.414,2.21-.276,2.486-.691,2.486-8.286V78.248c0-7.181-.138-7.32-2.486-7.734-.414,0-.414-.414,0-.414,1.243.138,3.176.276,3.867.276.552,0,2.9-.138,4.143-.276.414,0,.414.276,0,.414-2.348.552-2.762.552-2.762,7.734v8.424c0,7.458.552,7.872,2.762,8.148.552.138.414.552.138.414" transform="translate(-729.778 21.325)" fill="#303030"/><path d="M800.7,95.273c-1.519-.138-3.177-.138-4.143-.138-.829,0-2.762.138-3.867.138-.414,0-.414-.276,0-.276,2.348-.138,2.486-.691,2.486-8.286V78.286c0-7.181-.414-7.458-2.072-7.734-.414,0-.276-.414,0-.414a20.44,20.44,0,0,0,2.762.138c.829,0,3.453-.276,4.7-.276v.414a11.655,11.655,0,0,0-2.624.276c.138.967.138,3.591.138,5.248V86.573c0,7.458.414,8.01,2.762,8.286.276.138.138.552-.138.414m11.6.276c-4.419,0-6.491-2.9-12.015-12.706h-.967a4.258,4.258,0,0,1-1.381-.138v-.552a10.664,10.664,0,0,0,1.381.138c3.315,0,6.215-1.381,6.215-5.662,0-3.867-1.381-6.215-5.11-6.215V70c5.662,0,8.148,2.762,8.148,6.491,0,2.9-1.8,4.972-5.11,5.8,2.9,5.662,7.734,12.429,9.944,12.429a1.928,1.928,0,0,0,1.243-.414c.414-.276.552,0,.276.276a3.537,3.537,0,0,1-2.624.967" transform="translate(-722.805 21.287)" fill="#303030"/><path d="M832.03,95.238c-1.381-.138-4.281-.276-4.972-.276a33.9,33.9,0,0,0-4.7.276c-.276,0-.414-.276,0-.414,2.9-.552,3.314-.691,3.314-8.148V71.07a.507.507,0,0,1,.138-.414h2.762c0,.138.138.276.138.414-.138,1.8-.138,12.567-.138,15.606,0,7.6.414,7.734,3.59,8.148.276.138.138.552-.138.414m-6.215-24.03a32.775,32.775,0,0,0-3.315.138c-2.9.138-4.281.829-5.386,4.7-.138.414-.414.276-.414-.138a29.542,29.542,0,0,0,.414-5.524c-.138-.276.276-.414.414-.138a19.277,19.277,0,0,0,4.834.552h3.453v.414m11.463,5.11c0,.414-.276.414-.276,0-.138-4.143-2.072-4.834-5.11-5.11-.967,0-2.209-.138-3.176-.138a.507.507,0,0,0-.138-.414h3.315c1.934-.138,4.281-.276,5.524-.414.276-.138.414,0,.276.276a41.529,41.529,0,0,0-.414,5.8" transform="translate(-713.537 21.321)" fill="#303030"/><path d="M883.6,95.664A13.124,13.124,0,0,1,870.2,82.82a12.754,12.754,0,0,1,11.463-12.706.831.831,0,0,0,.138.552c-5.524.691-8.424,5.386-8.424,10.358,0,7.6,4.7,14.225,10.634,14.225a5.665,5.665,0,0,0,1.519-.138v.552a8.947,8.947,0,0,0-1.934,0m2.072-.276v-.552c4.972-1.1,7.734-5.524,7.734-10.22,0-7.6-4.972-14.225-10.634-14.225h-.828a.83.83,0,0,0-.138-.552c.414,0,.967-.138,1.381-.138a13.036,13.036,0,0,1,13.4,12.844,13.2,13.2,0,0,1-10.91,12.844" transform="translate(-693.151 21.173)" fill="#303030"/><path d="M905.815,95.549c-2.072,0-3.591,0-5.248-.829-.138.414-.552,0-.414-.276,0,0-.552-5.662-.552-5.524,0-.276.276-.414.414-.138.829,3.729,2.209,6.215,5.938,6.215a9.63,9.63,0,0,0,3.314-.552c0,.138.138.276.276.552a17.942,17.942,0,0,1-3.729.552m3.591-.829c0-.138-.138-.276-.276-.552a4.042,4.042,0,0,0,2.486-4.143c0-2.9-1.519-4.557-3.867-5.938-.69-.414-1.933-1.1-2.762-1.519-2.624-1.657-3.729-3.729-3.729-5.938,0-3.315,2.9-5.662,4.419-6.353,0,.138.138.276.138.414-1.657.691-2.348,2.072-2.348,4.005a5.494,5.494,0,0,0,2.762,4.834c.691.552,2.486,1.519,3.314,2.072,3.038,1.657,4.419,4.005,4.419,6.353.276,2.21-.69,5.11-4.557,6.767m3.867-19.335c-.552-2.072-1.519-4.7-4.834-4.7a7.222,7.222,0,0,0-2.486.414c0-.138-.138-.276-.138-.414A8.888,8.888,0,0,1,909.129,70a10.583,10.583,0,0,1,3.729.552c.138-.276.414-.138.414.276a44.1,44.1,0,0,0,.414,4.557c.138.276-.276.414-.414,0" transform="translate(-681.948 21.287)" fill="#303030"/><path d="M854.7,95.887c-7.043,0-9.943-4.281-10.082-8.562-.138-3.314-.138-5.662-.138-8.839,0-7.181,0-7.458-2.21-7.734-.414,0-.276-.414,0-.414,1.519.138,2.762.276,3.591.276a26.816,26.816,0,0,0,4.557-.276c.276,0,.414.276,0,.414-2.624.552-3.038.691-3.176,7.734-.138,3.729,0,6.215,0,8.148.138,4.281,2.21,8.562,8.286,8.562,3.867,0,8.424-3.453,8.424-9.529V78.9c0-.138.69-.138.829-.138v7.043c.138,6.215-4.143,10.082-10.082,10.082m10.22-18.92V78.9c0-.138-.276,0-.276,0a3.135,3.135,0,0,1-.552-.138V76.829c-.138-4.972-.829-5.8-3.453-6.215-.414,0-.276-.414,0-.414,1.381.138,2.762.276,3.867.276,1.243,0,2.348-.138,3.867-.276.276,0,.276.276,0,.414-2.624.414-3.453,2.072-3.453,6.353" transform="translate(-703.893 21.363)" fill="#303030"/><path d="M945.948,89.519a2.072,2.072,0,1,1,2.072-2.072,2.124,2.124,0,0,1-2.072,2.072m2.348-2.072a2.348,2.348,0,1,0-2.348,2.348,2.524,2.524,0,0,0,2.348-2.348" transform="translate(-665.182 27.041)" fill="#303030"/><path d="M945.014,87.043v-.967h.552c.276,0,.691.138.691.414,0,.414-.414.414-.691.414h-.552v.138Zm.828.276a.652.652,0,0,0,.691-.691c0-.552-.276-.829-.967-.829H944.6v2.762h.276V87.319h.414l.691,1.243h.414l-.552-1.243" transform="translate(-664.801 27.307)" fill="#303030"/><path d="M760.644,100.188a.278.278,0,1,1-.552,0c-.414-1.519-1.1-2.762-2.348-5.938-1.1-3.038-9.529-24.168-10.358-26.24-1.381-3.038-2.762-4.281-4.972-4.557-.552,0-.552-.552,0-.552,1.933.138,4.972.276,6.077.276s4.419-.138,6.353-.276c.552,0,.691.414,0,.552-2.486.276-3.591,1.381-2.762,4.143.276.967,9.115,22.511,10.082,25.273a5.768,5.768,0,0,0,.552,1.381,50.575,50.575,0,0,0-2.072,5.938m13.4-31.35c-1.934,4.557-7.872,17.263-11.324,25.549a5.769,5.769,0,0,1-.552-1.381c1.657-4.281,8.424-18.23,9.943-25,.691-2.762.138-3.729-3.867-4.419-.552-.138-.414-.552,0-.552a55.663,55.663,0,0,0,6.353.276,38.9,38.9,0,0,0,5.8-.276c.552,0,.552.414.138.552-2.762.414-4.419.552-6.491,5.248" transform="translate(-742 18.581)" fill="#303030"/></g></g></svg>