<svg xmlns="http://www.w3.org/2000/svg" width="315.753" height="96.063" viewBox="0 0 315.753 96.063"><g transform="translate(2.437 -3.807)"><path d="M298.273,98.273,174,97.053,50.382,98.273a.282.282,0,1,0,0,.563L174,100.056l124.274-1.22a.3.3,0,0,0,.282-.282q-.141-.282-.282-.282M55.826,79.782a.642.642,0,0,0-.657-.657c-8.823,0-8.917-3-8.917-13.141V11.262c0-2.44,5.538-2.44,5.538-2.44A18.307,18.307,0,0,1,70,27.125c0,10.043-9.574,18.3-19.711,18.3h-.657a.657.657,0,1,0,0,1.314h.939c4.787,0,11.921-.188,18.679-4.881a.092.092,0,0,0,.094-.094,1.35,1.35,0,0,1,.282-.188A19.487,19.487,0,0,0,58.454,6.1h-29.1a.657.657,0,1,0,0,1.314c8.823,0,8.917,3,8.917,13.141V65.7c0,10.137,0,13.141-5.632,13.141a.657.657,0,1,0,0,1.314H55.263c.188.282.563,0,.563-.375m266.007-8.354a.443.443,0,0,0-.469.469,6.165,6.165,0,0,1-6.477,5.819h-6.758c-6.195,0-6.195-2.159-6.195-9.2V55.378h10.043c6.1,0,5.162,4.224,5.162,4.412a.469.469,0,0,0,.939,0s.282-4.505.375-5.913c.188-1.314.282-2.91.282-2.91,0-.282-.094-.469-.375-.469a.479.479,0,0,0-.469.375,3.916,3.916,0,0,1-3.191,1.69c-1.126.094-2.534.188-4.13.188h-8.635V40.36c0-6.852,0-9.011,5.538-9.2h7.884c6.1,0,5.162,5.726,5.162,5.913a.469.469,0,0,0,.939,0s.282-5.069.282-6.383a12.775,12.775,0,0,1,.188-1.971v-.094c.094-.751-.657-.657-1.126-.563a.345.345,0,0,0-.282.094,18.109,18.109,0,0,1-5.069.563H290.2a.469.469,0,0,0,0,.939c6.195,0,6.195,2.159,6.195,9.2V70.4c0,7.04,0,9.2-3.942,9.2a.469.469,0,0,0,0,.939h26.563c2.159,0,2.253-.845,2.628-2.628l.939-5.819c-.282-.375-.469-.657-.751-.657m-4.787-12.859v0ZM233.7,54.627c.094,14.83,13.047,26.751,28.816,26.751h2.91c2.065-.094,7.978-.469,12.765-3.661h.094a.092.092,0,0,0,.094-.094,3.243,3.243,0,0,0,1.033-1.783c.469-2.816,1.314-8.072,1.314-8.072a.469.469,0,1,0-.939,0v0a10.942,10.942,0,0,1-2.722,6.289,11.181,11.181,0,0,1-4.505,3h-.094a22.073,22.073,0,0,1-7.227,1.032c-13.7,0-24.78-10.7-24.78-23.747,0-6.664.188-24.4,21.307-24.4,0,0,10.043.188,13.422,3.848a13.943,13.943,0,0,1,3.661,6.664,11.76,11.76,0,0,1,.094,1.314.6.6,0,0,0,.469.563.443.443,0,0,0,.469-.469v0l.282-6.1a26.532,26.532,0,0,0,.188-3.285c0-.563.375-1.22-1.314-.939a6.078,6.078,0,0,1-2.628-.563,6.469,6.469,0,0,0-.751-.282,38.752,38.752,0,0,0-12.484-2.91c-1.033,0-1.314-.094-1.877-.094h-1.314A26.6,26.6,0,0,0,233.6,54.439v.094a.092.092,0,0,1,.094.094M178.6,80.439h14.643a.469.469,0,0,0,0-.939c-3.848,0-4.13-1.032-1.314-8.635L203.1,39.984s.188-.563.563-.563.563.469.657.563l7.227,18.773a.386.386,0,0,1-.282.563l-13.516,1.971a.624.624,0,0,0-.375.469.443.443,0,0,0,.469.469h14.736a.516.516,0,0,1,.469.282l3.379,8.823c2.628,7.321,3.285,8.166,1.5,8.166a.469.469,0,0,0,0,.939h14.736a.469.469,0,0,0,0-.939c-5.162,0-6.57-1.877-8.448-6.289l-18.4-44.96a.821.821,0,0,0-.845-.563.743.743,0,0,0-.751.469L186.108,74.526c-1.408,3.285-2.91,4.881-7.415,4.881a.443.443,0,0,0-.469.469c-.188.375.094.563.375.563M135.985,29.566c6.195,0,6.195,2.159,6.195,9.2V70.3c0,7.04,0,9.2-3.942,9.2a.469.469,0,1,0,0,.939H166.3c2.159,0,2.253-.845,2.628-2.628l.939-5.819a.469.469,0,1,0-.939,0v0s-.375,5.913-6.477,5.913h-8.26C148,77.9,148,75.746,148,68.706V38.764c0-7.04,0-9.2,3.942-9.2a.469.469,0,1,0,0-.939H135.985a.469.469,0,0,0,0,.939M71.971,79.97a.443.443,0,0,0,.469.469H87.176a.469.469,0,1,0,0-.939c-3.848,0-4.036-1.032-1.314-8.635L97.126,39.891s.188-.563.657-.563c.375,0,.657.563.657.563l7.134,18.773a.386.386,0,0,1-.282.563L91.776,61.2a.624.624,0,0,0-.375.469.443.443,0,0,0,.469.469h14.736a.516.516,0,0,1,.469.282l3.379,8.823c2.628,7.321,3.285,8.166,1.5,8.166a.469.469,0,0,0,0,.939h14.736a.469.469,0,0,0,0-.939c-5.162,0-6.57-1.877-8.448-6.289l-18.4-44.96A.821.821,0,0,0,99,27.595a.743.743,0,0,0-.751.469L79.949,74.62C78.541,77.9,77.039,79.5,72.534,79.5a.526.526,0,0,0-.563.469" transform="translate(-9.268 -0.187)" fill="#303030"/><path d="M33.653,46.7a.657.657,0,0,0,0-1.314h-1.69A25.742,25.742,0,0,1,11.407,4.179a.345.345,0,0,0-.094-.282c-.094-.094-.188,0-.282,0A26.088,26.088,0,0,0,5.4,20.229,26.4,26.4,0,0,0,31.775,46.6h1.877Z" transform="translate(-7.837 -0.049)" fill="#303030"/></g></svg>