<svg xmlns="http://www.w3.org/2000/svg" width="264.691" height="116.826" viewBox="0 0 264.691 116.826"><g transform="translate(-349.453 -4.599)"><path d="M380.3,72.1h6.393a.871.871,0,0,1,.93.581c3.6,5.58,7.207,11.16,10.811,16.856.116.116.233.349.349.465.116-.232.232-.349.349-.581,3.6-5.58,7.207-11.16,10.811-16.856a.943.943,0,0,1,.93-.465h6.51v37.78h-6.51V83.027h-.116c-3.952,5.928-7.9,11.741-11.973,17.785-3.952-5.928-7.9-11.741-11.741-17.669h-.116V109.88h-6.51c-.116-12.554-.116-25.109-.116-37.78Z" transform="translate(-30.847 10.848)" fill="#303030"/><path d="M612.614,109.88H607.5a.7.7,0,0,1-.7-.349c-6.626-8.6-13.368-17.321-20.11-25.923a1.258,1.258,0,0,0-.581-.465v26.62H579.6V72.1h5.58a1.057,1.057,0,0,1,.93.465c6.51,8.37,12.9,16.739,19.413,24.993a.819.819,0,0,0,.581.465V72.1h6.51Z" transform="translate(1.53 10.848)" fill="#303030"/><path d="M451.2,110.658c-.465-.116-1.046-.232-1.511-.349A18.607,18.607,0,0,1,434.578,95.9a19.687,19.687,0,0,1,3.952-17.437A17.8,17.8,0,0,1,450.5,71.833a20.912,20.912,0,0,1,12.438,1.86,21.7,21.7,0,0,1,5.231,3.836l-4.185,4.882a20.248,20.248,0,0,1-1.627-1.395,14.843,14.843,0,0,0-6.858-3.139,12.154,12.154,0,0,0-13.833,8.6c-1.511,5-.93,9.648,2.325,13.717a11.479,11.479,0,0,0,10.23,4.417,13.932,13.932,0,0,0,9.067-4.069c.233-.232.581-.465.814-.7h0c1.4,1.395,2.906,2.79,4.417,4.3-1.279,1.046-2.441,2.092-3.6,3.022a18.372,18.372,0,0,1-9.183,3.371c-.116,0-.232.116-.349.116H451.2Z" transform="translate(-22.12 10.767)" fill="#303030"/><path d="M498.015,4.816c.116,0,.116.116.233.116a2.865,2.865,0,0,1,2.209,2.79v.349a.114.114,0,0,0,.116.116c.116-.116.232-.116.465-.232a2.7,2.7,0,0,1,3.952.814,3.112,3.112,0,0,1-.93,4.185,45.58,45.58,0,0,1-4.185,1.86c-1.046.465-2.092.7-3.022,1.046-.465.116-.814,0-.93-.465-.581-2.209-1.046-4.534-1.511-6.742a3.235,3.235,0,0,1,1.976-3.72c.116,0,.116-.116.233-.232a5.659,5.659,0,0,0,1.395.116Z" transform="translate(-12.322 -0.101)" fill="#303030"/><path d="M533.231,103.935v5.928H505.1V72.2H533v5.812H511.726v9.881h18.832v5.929H511.726v10.23C518.817,103.935,526.024,103.935,533.231,103.935Z" transform="translate(-10.573 10.864)" fill="#303030"/><path d="M500.97,109.88h-6.51V93.954H476.326v15.809H469.7V72.1h6.51V87.793h18.134V72.1h6.51C500.97,84.771,500.97,97.325,500.97,109.88Z" transform="translate(-16.323 10.848)" fill="#303030"/><path d="M562.588,109.863H536.2V72.2h6.51v31.735h19.878Z" transform="translate(-5.521 10.864)" fill="#303030"/><path d="M421,72.2h6.51v37.663H421Z" transform="translate(-24.235 10.864)" fill="#303030"/><path d="M565.3,72.1h6.51v37.663H565.3Z" transform="translate(-0.792 10.848)" fill="#303030"/><path d="M493.157,23.934l.7.349a20.953,20.953,0,0,0-.93,2.441,9.7,9.7,0,0,0-.7,4.069,3.469,3.469,0,0,0,1.744,3.022,3.977,3.977,0,0,0,3.952-.232,2.726,2.726,0,0,0,1.162-2.557A13.08,13.08,0,0,0,497.69,25.1c-.116-.232-.233-.349-.233-.581V24.4a3.87,3.87,0,0,1,.7-.349c.116.116.232.349.349.465,1.046,1.162,2.092,2.325,3.139,3.371a4.967,4.967,0,0,0,2.441,1.279,3.514,3.514,0,0,0,3.72-1.976,3.236,3.236,0,0,0-.814-4.069,7.583,7.583,0,0,0-3.836-1.627c-1.046-.232-2.209-.349-3.255-.581v-.7c1.162-.232,2.325-.349,3.487-.581a8.665,8.665,0,0,0,3.255-1.279,3.2,3.2,0,0,0,1.395-3.6.487.487,0,0,1,.349-.7c.349-.116.581-.349.93-.465a5.055,5.055,0,0,1-.116,4.3c-.7,1.395-1.976,2.092-3.487,2.79.232.116.232.232.349.232.465.349,1.046.581,1.511.93A4.745,4.745,0,0,1,509.082,28a4.8,4.8,0,0,1-5.929,2.674c-.814-.232-1.627-.814-2.557-1.162v1.395a5.841,5.841,0,0,1-.7,2.79,5.2,5.2,0,0,1-5.7,2.325,4.46,4.46,0,0,1-3.6-4.069c-.116-.814-.116-1.627-.233-2.557a1.6,1.6,0,0,0-.465.349,7.017,7.017,0,0,1-3.022,1.279,5.145,5.145,0,0,1-5.464-4.65,4.625,4.625,0,0,1,2.325-4.65c.465-.349,1.046-.581,1.627-.93a.881.881,0,0,0-.465-.232,24.884,24.884,0,0,1-2.209-1.511,4.333,4.333,0,0,1-1.279-4.185,5.006,5.006,0,0,1,7.556-3.487c.465.232.93.581,1.395.814A19.075,19.075,0,0,1,490.6,9.52a4.594,4.594,0,0,1,3.022-3.6c.116,0,.233-.116.349-.116h.233c0,.349.116.814.116,1.162,0,.116-.116.349-.233.349a3.414,3.414,0,0,0-2.092,3.139,12.6,12.6,0,0,0,1.4,5.812c.116.232.116.349.232.581v.116l-.7.349c-.7-.814-1.279-1.627-1.86-2.325a7.476,7.476,0,0,0-3.836-2.674,3.258,3.258,0,0,0-3.952,1.86,3.34,3.34,0,0,0,.7,4.185,8.44,8.44,0,0,0,3.952,1.627,29.2,29.2,0,0,0,3.139.465v.7c-1.162.232-2.209.349-3.255.581a8.249,8.249,0,0,0-3.6,1.511,3.146,3.146,0,0,0-1.162,3.487,3.477,3.477,0,0,0,2.674,2.79,4.254,4.254,0,0,0,2.674-.465,12.474,12.474,0,0,0,3.6-3.371,8.875,8.875,0,0,1,1.162-1.744Z" transform="translate(-14.438 0.077)" fill="#303030"/><path d="M518.2,66.49V48.007h.232c2.557,0,5-.116,7.556,0a9.276,9.276,0,0,1,1.627,18.367,15.753,15.753,0,0,1-2.325.232h-6.51a.871.871,0,0,0-.581-.116Zm3.255-9.3V63c0,.465.116.581.581.581h3.022a6.7,6.7,0,0,0,4.65-1.627,6.18,6.18,0,0,0,1.86-5.58,5.7,5.7,0,0,0-4.882-5.347c-1.627-.232-3.255-.116-5-.232-.349,0-.349.232-.349.465.116,1.976.116,3.952.116,5.928Z" transform="translate(-8.444 6.926)" fill="#303030"/><path d="M489.2,58.986h-4.069c-.7,0-.7,0-.7-.814V56.545a.524.524,0,0,1,.349-.349h7.44a.114.114,0,0,1,.116.116v7.323a.888.888,0,0,1-.233.581A11.286,11.286,0,0,1,479.9,65.844a8.787,8.787,0,0,1-4.882-6.975,9.551,9.551,0,0,1,3.836-9.416,10.467,10.467,0,0,1,12.554.581l.116.116c-.7.814-1.279,1.511-1.976,2.441a1.6,1.6,0,0,1-.465-.349,6.984,6.984,0,0,0-6.51-1.279,6.455,6.455,0,0,0-4.3,5.812c-.116,2.557.581,4.766,2.674,6.161a7.46,7.46,0,0,0,7.9-.116.6.6,0,0,0,.233-.465,32.677,32.677,0,0,0,.116-3.371Z" transform="translate(-15.476 6.874)" fill="#303030"/><path d="M453.4,47.9h13.717v2.79H456.655v4.882h8.718c.465,0,.581.116.581.581v2.325h-9.3v5h10.578v2.906H453.4Z" transform="translate(-18.971 6.917)" fill="#303030"/><path d="M539.339,63.593h10.694v2.79H536.2V47.9h13.717v2.79H539.455v4.882h8.718c.465,0,.581.116.581.581V57.9c0,.465-.116.581-.581.581h-8.137c-.581,0-.7.116-.7.7C539.455,60.687,539.339,62.082,539.339,63.593Z" transform="translate(-5.521 6.917)" fill="#303030"/><path d="M493.316,47.9h3.139V58.827c0,.465.116.93.116,1.395a4.792,4.792,0,0,0,7.44,2.79,4.992,4.992,0,0,0,1.86-4.3V47.9h3.139V58.943a12.619,12.619,0,0,1-.465,2.906c-.93,2.906-3.022,4.3-5.929,4.766a10.764,10.764,0,0,1-4.3-.232,6.709,6.709,0,0,1-5-5.928,10,10,0,0,1-.116-1.86V48.365c.116-.116.116-.232.116-.465Z" transform="translate(-12.505 6.917)" fill="#303030"/><path d="M439.1,66.483V48h3.139V63.577H452v2.906Z" transform="translate(-21.294 6.933)" fill="#303030"/><path d="M514.239,48V66.483H511.1V48Z" transform="translate(-9.598 6.933)" fill="#303030"/></g></svg>