<svg xmlns="http://www.w3.org/2000/svg" width="330" height="121.02" viewBox="0 0 330 121.02"><defs><style>.a{fill:#fff;}</style></defs><g transform="translate(0.001)"><path class="a" d="M36.029,40.416a7.949,7.949,0,0,1-1.247,2.561L33.668,45.2c-.2.445-.445.646-.69.646H.693c-.267,0-.4-.111-.4-.312V44.09a.312.312,0,0,1,.334-.423H4.856c.4,0,.579-.2.579-.623V36.008q0-2.984.134-12.825c0-6.568.134-10.465.134-11.667,0-4.453-.423-6.68-1.291-6.68H1.249c-.334,0-.49-.156-.49-.423V2.943c0-.289.134-.423.445-.423h18.1q.334,0,.334.267V4.3q0,.334-.267.334H13.407c-.356,0-.557.134-.623.423s-.156,5.388-.289,15.341q-.156,13.783-.156,15.965c0,4.943.557,7.415,1.692,7.415,5.121,0,8.906-.111,11.6-.356a20.841,20.841,0,0,0,8.906-3.006,2.806,2.806,0,0,1,1.046-.445C35.9,40.127,36.029,40.283,36.029,40.416Z" transform="translate(0.332 3.091)"/><path class="a" d="M47.305,35.949a2.36,2.36,0,0,1-.334.49,11.133,11.133,0,0,1-2.917,2.227,1.113,1.113,0,0,1-.623.223,8.305,8.305,0,0,1-4.787-1.781,9.463,9.463,0,0,1-3.429-4.119c-.156-.4-.334-.423-.512-.134a12.8,12.8,0,0,1-2.939,3.34A9.485,9.485,0,0,1,25.8,38.42a8.283,8.283,0,0,1-4.3-1.113,4.275,4.275,0,0,1-2.227-3.963,8.572,8.572,0,0,1,2-5.611,12.536,12.536,0,0,1,5.477-3.674,69.491,69.491,0,0,1,7.793-2.227c.2,0,.289-.267.312-.69a48.274,48.274,0,0,0,0-6.413A3.7,3.7,0,0,0,33.5,12.169a5.455,5.455,0,0,0-3.451-1.046,6.68,6.68,0,0,0-3.54.868,1.492,1.492,0,0,0-.668,1.425v1.247a4.9,4.9,0,0,1-.713,2.739,3.652,3.652,0,0,1-3.54,1.893c-1.291,0-1.937-.557-1.937-1.625a6.68,6.68,0,0,1,1.581-3.674,11.133,11.133,0,0,1,3.652-3.318,15.586,15.586,0,0,1,7.9-1.848,9.931,9.931,0,0,1,6.457,1.915,5.01,5.01,0,0,1,1.4,2.427,8.907,8.907,0,0,1,.445,2.805L40.47,28.445a5.789,5.789,0,0,0,1.915,5.1,12.558,12.558,0,0,0,4.32,2.071C47.127,35.682,47.305,35.815,47.305,35.949ZM34.837,24.282c0-.4-.178-.6-.512-.6a10.109,10.109,0,0,0-4.609,1.247,6.969,6.969,0,0,0-4.564,6.145,4.275,4.275,0,0,0,1.158,3.318,3.206,3.206,0,0,0,2.65.8,7.17,7.17,0,0,0,4.7-3.273,3.83,3.83,0,0,0,.713-1.759A39.566,39.566,0,0,0,34.837,24.282Z" transform="translate(23.634 10.859)"/><path class="a" d="M77.539,34.494a10.176,10.176,0,0,1-3.674,8.172,17.679,17.679,0,0,1-11.645,3.5l-5.566-.267H44.7c-.2,0-.289,0-.289-.245V44.135c0-.223,0-.356.289-.356h4.676q.8,0,.8-1.069c0-.267,0-3.429-.134-9.552s0-9.463,0-10.064v-12.6c-.2-3.9-.646-5.856-1.314-5.856h-5.21q-.267,0-.267-.334V2.788c0-.178,0-.267.312-.267H64.714a12.8,12.8,0,0,1,4.453.735,10.843,10.843,0,0,1,3.7,2.227,8.684,8.684,0,0,1,2.694,6.413,10.153,10.153,0,0,1-2.805,6.769,17.323,17.323,0,0,1-5.232,4.119c-.2,0,0,.2.356.312a17.679,17.679,0,0,1,6.546,3.54A9.775,9.775,0,0,1,77.539,34.494ZM69.256,14.455A9.753,9.753,0,0,0,66.251,7.33a10.932,10.932,0,0,0-7.593-2.739,7.348,7.348,0,0,0-1.492,0c-.312,0-.468.289-.534.757s0,5.789,0,16.031c0,.245,0,.379.223.379h2.828a35.47,35.47,0,0,1,5.077.4,1.4,1.4,0,0,0,1.046-.267,8.572,8.572,0,0,0,2.2-2.716,10.064,10.064,0,0,0,1.247-4.809ZM70.5,35.407a10.153,10.153,0,0,0-3.162-7.815,12.936,12.936,0,0,0-9.2-3.407,3.117,3.117,0,0,0-1.18.178,1.621,1.621,0,0,0-.134.668V38.7c0,2.939.334,4.453.713,4.743a8.038,8.038,0,0,0,3.852.735A9.151,9.151,0,0,0,67.631,42.2a8.416,8.416,0,0,0,2.872-6.88Z" transform="translate(53.253 3.09)"/><path class="a" d="M90.725,35.949a2.027,2.027,0,0,1-.312.49,11.623,11.623,0,0,1-2.939,2.227,1.046,1.046,0,0,1-.6.223,8.305,8.305,0,0,1-4.809-1.781,9.619,9.619,0,0,1-3.429-4.119c-.134-.4-.312-.423-.512-.134a12.714,12.714,0,0,1-2.917,3.34,9.574,9.574,0,0,1-5.967,2.227,8.372,8.372,0,0,1-4.32-1.113,4.275,4.275,0,0,1-2.227-3.963,8.572,8.572,0,0,1,2-5.611,12.758,12.758,0,0,1,5.5-3.674,69.024,69.024,0,0,1,7.771-2.227c.2,0,.312-.267.334-.69a48.274,48.274,0,0,0,0-6.413,3.807,3.807,0,0,0-1.38-2.561,5.411,5.411,0,0,0-3.451-1.046,6.68,6.68,0,0,0-3.54.868,1.492,1.492,0,0,0-.668,1.425v1.247a4.9,4.9,0,0,1-.69,2.739,3.7,3.7,0,0,1-3.54,1.893c-1.314,0-1.959-.557-1.959-1.625a6.68,6.68,0,0,1,1.581-3.674A11.378,11.378,0,0,1,68.3,10.677,15.586,15.586,0,0,1,76.23,8.829a9.864,9.864,0,0,1,6.435,1.915,4.7,4.7,0,0,1,1.4,2.427,8.906,8.906,0,0,1,.445,2.805l-.6,12.469a5.745,5.745,0,0,0,1.915,5.1,12.447,12.447,0,0,0,4.3,2.071C90.57,35.682,90.725,35.815,90.725,35.949ZM78.257,24.282c0-.4-.178-.6-.512-.6a9.953,9.953,0,0,0-4.587,1.247A6.925,6.925,0,0,0,68.7,31.073a4.208,4.208,0,0,0,1.158,3.318,3.184,3.184,0,0,0,2.627.8,7.125,7.125,0,0,0,4.7-3.273,4.119,4.119,0,0,0,.735-1.759,42.616,42.616,0,0,0,.334-5.878Z" transform="translate(77.18 10.858)"/><path class="a" d="M101.333,30.092a8.6,8.6,0,0,1-2.4,5.923,11.511,11.511,0,0,1-8.906,2.939A18.637,18.637,0,0,1,78.889,35.7a2.049,2.049,0,0,1-.445-1.447V28.11a.942.942,0,0,1,.913-.646c.6,0,.779.178.868.512.267,1.046.512,1.915.757,2.627a12.513,12.513,0,0,0,3.05,4.787,2.984,2.984,0,0,0,1.069.69,16.321,16.321,0,0,0,5.121.668,6.68,6.68,0,0,0,5.1-1.625,4.921,4.921,0,0,0,1.492-3.785,2.227,2.227,0,0,0-1.247-2.048,24.492,24.492,0,0,0-5.3-2.227,35.849,35.849,0,0,1-5.143-1.87,15.386,15.386,0,0,1-4.587-3.184,8.906,8.906,0,0,1-1.6-5.633,7.3,7.3,0,0,1,2.227-5.1,12.847,12.847,0,0,1,8.483-2.739,14.206,14.206,0,0,1,9.663,2.939,1.047,1.047,0,0,1,.267.846v4.9c0,.534-.156.779-.445.779-.646,0-1.024-.134-1.18-.445l-1.113-2.449a12.758,12.758,0,0,0-1.759-2.716l-.735-.557A8.906,8.906,0,0,0,89.71,10.72a8.75,8.75,0,0,0-3.986.824,3.362,3.362,0,0,0-1.87,3.162c0,2.227,1.4,3.941,4.453,4.943,1.269.49,2.961,1.113,5.1,1.87A16.877,16.877,0,0,1,98.55,23.9a7.259,7.259,0,0,1,2.783,6.19Z" transform="translate(96.564 10.48)"/><path class="a" d="M114.79,37.249a.791.791,0,0,1-.379.735,14.205,14.205,0,0,1-3.874,2.227,18.881,18.881,0,0,1-7.1,1.514,7.815,7.815,0,0,1-5.589-1.87A6.435,6.435,0,0,1,95.864,34.8c0-.289,0-2.605.134-6.925s.134-6.68.134-6.858A47.455,47.455,0,0,0,96,16.052a2.227,2.227,0,0,0-.735-1.158L92.7,13.714a.779.779,0,0,1-.512-.735.824.824,0,0,1,.512-.757c.468-.267,1.826-1.2,4.03-2.828s3.473-2.583,3.741-2.85a1.381,1.381,0,0,1,1.069-.423c.557,0,.779.289.713.868,0,1.158-.245,2.494-.4,4.052,0,.646,0,.98.334,1.024a104.138,104.138,0,0,0,10.465.468c.4,0,.579.223.512.646s-.312,1.247-.512,2.093a.579.579,0,0,1-.6.468L107,15.45l-4.809-.289c-.267,0-.379.156-.379.512V32.128c0,2.627.4,4.275,1.225,4.943a7.615,7.615,0,0,0,4.253.8,14.406,14.406,0,0,0,5.433-.957l1.425-.6C114.278,36.336,114.478,36.625,114.79,37.249Z" transform="translate(113.494 7.506)"/><path class="a" d="M122.042,45.231c0,.156,0,.245-.312.245H106.01a.4.4,0,0,1-.245,0V43.918c0-.178,0-.245.312-.245h3.986c.334,0,.512-.223.534-.623q.2-14.295.2-19.839c0-3.273-.445-4.921-1.314-4.921H106.01a.334.334,0,0,1-.379-.379V16.353c0-.2,0-.289.245-.289h4.32a31.84,31.84,0,0,0,3.273-.134l3.318-.312c.312,0,.445.245.445.735V22.1q-.334,2.227-.334,15.1c0,4.275.4,6.413,1.18,6.413h3.874a.267.267,0,0,1,.312.312ZM117.01,5.153a4.453,4.453,0,0,1-1.848,3.473,4.921,4.921,0,0,1-2.984,1.314c-1.737,0-2.605-.824-2.605-2.494a4.453,4.453,0,0,1,1.336-2.939,4.765,4.765,0,0,1,3.763-1.737,2.074,2.074,0,0,1,2.382,2.316Z" transform="translate(130.029 3.397)"/><path class="a" d="M151.838,44.888q0,.8-.267.935c-2.071.713-4.453,1.6-7.37,2.672a13.894,13.894,0,0,1-4.453,1.425q-.468,0-.468-.735V44.977c-.134-.468-.379-.557-.69-.267a24.938,24.938,0,0,1-4.23,3.05,12.736,12.736,0,0,1-6.546,1.447,11.133,11.133,0,0,1-9.285-5.856,19.683,19.683,0,0,1-1.959-8.75,15.586,15.586,0,0,1,4.253-11.779,13.872,13.872,0,0,1,10.109-3.362,16.343,16.343,0,0,1,7.593,2.227c.312.178.445,0,.445-.579V9.463c0-3.741-.49-5.611-1.581-5.611h-4.23c-.245,0-.356-.134-.356-.4V2.494c0-.334.111-.49.356-.49h1.492A22.266,22.266,0,0,0,142.064.957,22.088,22.088,0,0,1,145.2,0c.245,0,.379.289.379.891,0,0,0,1.47-.111,4.141s0,4.275,0,4.765V39.722c0,3.963.6,5.834,1.826,5.544.757-.245,1.714-.557,2.872-.891a4.164,4.164,0,0,1,1.425-.468C151.727,43.908,151.838,44.22,151.838,44.888ZM139.3,41.348s0-1.18-.111-3.629-.134-4.809-.156-6.479c0-3.139-.134-5.3-.245-6.479a1.625,1.625,0,0,0-.8-1.314,12.981,12.981,0,0,0-6.68-1.826,7.771,7.771,0,0,0-3.674,1.069,6.679,6.679,0,0,0-2.516,2,15.3,15.3,0,0,0-2.227,8.906,15.386,15.386,0,0,0,2.227,8.483,6.991,6.991,0,0,0,6.435,3.117,11.623,11.623,0,0,0,7.459-2.227A3.138,3.138,0,0,0,139.3,41.348Z" transform="translate(143.56)"/><path class="a" d="M162.715,33.17a1.583,1.583,0,0,1-.178.334,18.169,18.169,0,0,1-5.566,3.652,18.013,18.013,0,0,1-7.325,1.625,13.025,13.025,0,0,1-9.374-3.318,14.339,14.339,0,0,1-4.453-9.864,20.529,20.529,0,0,1,.668-6.479,14.985,14.985,0,0,1,4.231-7.526,10.376,10.376,0,0,1,7.3-2.895,19.3,19.3,0,0,1,6.68,1.247,14.584,14.584,0,0,1,5.3,3.473,16.347,16.347,0,0,1,2.427,2.939,1.559,1.559,0,0,1,.245.98q0,.4-.534.6c-.356.134-1.737.445-4.1.957s-3.874.779-4.453.868l-3.963.735a40.7,40.7,0,0,1-4.832.557h-2.605c-.223,0-.289.512-.245,1.514a16.076,16.076,0,0,0,3.563,10,7.37,7.37,0,0,0,3.741,1.982,17.813,17.813,0,0,0,4.587.579,13.137,13.137,0,0,0,5.678-1.2,7.772,7.772,0,0,0,2-1.358l.334-.2a3.266,3.266,0,0,1,.6.445C162.76,33.1,162.715,33.126,162.715,33.17Zm-7.437-16.343a8.082,8.082,0,0,0-.267-.824q-.757-1.4-1-1.737a12.87,12.87,0,0,0-2.071-2.071,6.9,6.9,0,0,0-4.453-1.559,4.453,4.453,0,0,0-3.607,2.227,10.6,10.6,0,0,0-1.113,2.761,11.266,11.266,0,0,0-.579,3.139c0,.423,0,.646.245.646q1.692,0,4.609-.267a27.815,27.815,0,0,0,3.9-.735,32.753,32.753,0,0,0,3.785-.957.646.646,0,0,0,.557-.623Z" transform="translate(167.173 10.719)"/><path class="a" d="M21.421,66.34l-1.38,2.694a.512.512,0,0,1-.423.245H.2c-.134,0-.2,0-.2-.245v-.646c0-.134,0-.2.156-.2h3.05c.267,0,.4-.134.4-.423V46.635c0-2.783-.267-4.164-.8-4.164H.2a.178.178,0,0,1-.2-.2v-.69c0-.134,0-.2.245-.2H18.593a8.911,8.911,0,0,0,1,0h.6q.267,0,.2.2c-.178.757-.423,1.625-.713,2.605-.111.312-.223.468-.312.468l-.289-.312a4.654,4.654,0,0,0-2.4-1.046,75.123,75.123,0,0,0-9.752-.534.356.356,0,0,0-.245.223c0,.156,0,3.563,0,10.175,0,.267.111.4.356.4h10.02a.289.289,0,0,0,.334-.289,4.7,4.7,0,0,1,.178-1.314,4.209,4.209,0,0,0,.134-1.113c.022-.067,0-.4.245-.4h.289c.178,0,.267.134.267.356v7.838c0,.089,0,.445-.223.445h-.6c-.134,0-.223,0-.245-.289,0-.868-.134-1.893-.2-3.117a.354.354,0,0,0-.4-.4H6.814c-.178,0-.267,0-.267.356v7.749c0,3.273.356,4.921,1.069,4.921,6.39,0,10.643-.512,12.758-1.492l.913-.512Q21.487,66.073,21.421,66.34Z" transform="translate(0 50.983)"/><path class="a" d="M41.818,42.324c0,.156,0,.245-.2.245h-2.85c-.289,0-.445.178-.445.557V69.177c0,.646,0,.957-.245.957a.579.579,0,0,1-.468-.245c-1.247-1.67-4.921-6.413-11.133-14.206q-3.229-4.453-7.659-9.752c-.2-.156-.312-.111-.379.156s-.156,2.694-.312,7.548-.379,7.949-.379,9.263c0,3.629.356,5.455,1.069,5.455h2.716c.134,0,.2,0,.2.156v.779a.134.134,0,0,1-.156.156h-8.06q-.267,0-.267-.134v-.757q0-.2.267-.2h2.516c.223,0,.334-.111.334-.312V64.969c0-.8,0-4.075.289-9.819s.289-8.684.289-8.906c0-2.516-.868-3.785-2.605-3.785H12.917c-.111,0-.156,0-.156-.2v-.69a.178.178,0,0,1,.2-.2h6.479a.512.512,0,0,1,.445.334c.134.223,1.269,1.759,3.407,4.631L26.9,51.119q4.609,6.123,9.752,12.6a.245.245,0,0,0,.156,0,1.1,1.1,0,0,0,.178-.579c.022-.379,0-2.672,0-7.259V48.447c-.223-4.03-.713-6.056-1.492-6.056H32.667q-.267,0-.267-.2V41.5c0-.134,0-.2.223-.2h8.906c.156,0,.245,0,.245.178Z" transform="translate(15.651 50.885)"/><path class="a" d="M62.424,57.221c0,.178,0,.267-.245.267H59.24a.223.223,0,0,0-.245.245V61.9c0,1.692,0,3.273.134,4.7,0,.2,0,.312-.223.334A9.975,9.975,0,0,0,55.9,68a18.08,18.08,0,0,1-7.548,1.492,19.438,19.438,0,0,1-6.234-.623,11.133,11.133,0,0,1-5.232-4.03A14.606,14.606,0,0,1,34.658,56.4a14.874,14.874,0,0,1,3.429-9.6,15.3,15.3,0,0,1,7.481-4.564,24.492,24.492,0,0,1,7.058-.846,21.91,21.91,0,0,1,6.68.757.272.272,0,0,1,.245.289,8.172,8.172,0,0,1-.111.935,2.389,2.389,0,0,1-.134,1.069c-.134,1.38-.223,2.227-.289,2.449s-.111.223-.223.223-.289,0-.289-.178a4.453,4.453,0,0,0,0-.957,2.471,2.471,0,0,0-1.091-1.38,13.36,13.36,0,0,0-7.236-1.559,13.182,13.182,0,0,0-4.453.623,10.888,10.888,0,0,0-4.453,2.984,12.781,12.781,0,0,0-3.251,8.906,12.8,12.8,0,0,0,3.518,9.485,10.087,10.087,0,0,0,4.453,2.716,18.771,18.771,0,0,0,4.453.445,8.661,8.661,0,0,0,4.9-1.6.713.713,0,0,0,.178-.379V59.96c0-1.648-.223-2.472-.423-2.472H50.645c-.156,0-.245-.134-.245-.379v-.423c0-.2,0-.289.289-.289H62.157c.2,0,.289,0,.289.267Z" transform="translate(42.652 50.973)"/><path class="a" d="M76.826,69.925v.2H67.252c-.134,0-.2,0-.2-.245v-.557c0-.2,0-.289.2-.289h2.805c.223,0,.312-.111.267-.356s-.579-1.87-1.4-4.275-1.269-3.718-1.358-3.9-.245-.423-.423-.423H57.232a.512.512,0,0,0-.312.267,22.262,22.262,0,0,0-.98,2.583,26.573,26.573,0,0,0-.868,2.783,15.877,15.877,0,0,0-.334,1.959c0,.913,0,1.358.334,1.358H58.19c.156,0,.245,0,.245.289v.6a.178.178,0,0,1-.2.2H49.951a.178.178,0,0,1-.2-.2v-.69c0-.134,0-.2.156-.2h1.759c.312,0,.713-.646,1.225-1.915s2.048-5.01,4.587-11.133L63.4,41.915c.156-.423.312-.646.445-.713a15.122,15.122,0,0,0,1.492-.512.373.373,0,0,1,.312.223c.111.223,0,.4-.156.623a1.848,1.848,0,0,0-.623,1.225,4.943,4.943,0,0,0,.289,1.536q1.091,3.073,4.008,11.534c1.915,5.611,3.273,9.263,4.008,10.91s1.247,2.227,1.559,2.227H76.67s.156,0,.156.289ZM66.673,58.235c-.557-1.625-1.158-3.429-1.8-5.366s-1.291-3.963-1.982-6.056c0-.178,0-.289-.156-.334a.935.935,0,0,0-.223.334q-2.538,6.279-3.674,8.906c-.735,1.759-1.113,2.672-1.113,2.716s0,.111.178.111h8.684C66.717,58.525,66.74,58.436,66.673,58.235Z" transform="translate(61.25 50.137)"/><path class="a" d="M81.448,61.7a7.659,7.659,0,0,1-2.227,5.589,9.129,9.129,0,0,1-6.68,2.227,10.977,10.977,0,0,1-7.3-1.893,1.091,1.091,0,0,1-.245-.824q0-.167,0-2.4V61.969c0-.2,0-.267.289-.267h.846c.156,0,.245,0,.289.267a11.741,11.741,0,0,1,0,1.291,5.01,5.01,0,0,0,1.648,3.607,5.366,5.366,0,0,0,2.048,1.113,7.281,7.281,0,0,0,2.4.445A5.544,5.544,0,0,0,78,65.709a7.415,7.415,0,0,0,.6-3.162,4.008,4.008,0,0,0-1.158-2.895,12.535,12.535,0,0,0-4.587-2.516,17.478,17.478,0,0,1-5.232-2.65,6.68,6.68,0,0,1-2.071-5.455,7.392,7.392,0,0,1,2.828-5.878,8.283,8.283,0,0,1,5.656-1.848,11.333,11.333,0,0,1,4.3.779A5.945,5.945,0,0,1,80.2,43.11a.713.713,0,0,1,.334.557,29.612,29.612,0,0,1,.223,4.186c0,.267,0,.423-.134.423h-.913s-.156,0-.2-.245-.178-.913-.289-1.559A2.917,2.917,0,0,0,77.8,44.423a9.374,9.374,0,0,0-4.787-1.2A5.322,5.322,0,0,0,69.4,44.267a4.965,4.965,0,0,0-1.225,3.852,4.186,4.186,0,0,0,1.136,2.917A6.479,6.479,0,0,0,71.54,52.35l2.672,1.091c1.759.757,2.805,1.247,3.117,1.425a9.507,9.507,0,0,1,2.605,2.026A6.9,6.9,0,0,1,81.448,61.7Z" transform="translate(79.999 50.879)"/><path class="a" d="M101.466,65.482a.267.267,0,0,1,0,.356,12.692,12.692,0,0,1-5.077,2.939,21.064,21.064,0,0,1-7.1.957,18.28,18.28,0,0,1-5.678-.713,11.133,11.133,0,0,1-4.186-2.739,13.226,13.226,0,0,1-3.318-9.908,16.276,16.276,0,0,1,1.915-7.437,13.493,13.493,0,0,1,4.743-5.054A19.149,19.149,0,0,1,93.406,41.19a31.038,31.038,0,0,1,4.453.2,9.753,9.753,0,0,1,2.984.6s0,0,0,.2a7.7,7.7,0,0,1-.2,1.714,10.9,10.9,0,0,0-.2,1.982c0,.156,0,.245-.178.245a.2.2,0,0,1-.2-.178,3.519,3.519,0,0,0-.223-.579,6.547,6.547,0,0,0-1.714-1.425,15.1,15.1,0,0,0-6.435-1.091,11.556,11.556,0,0,0-8.684,3.362,13.115,13.115,0,0,0-3.652,9.485,12.6,12.6,0,0,0,3.852,9.775,10.487,10.487,0,0,0,3.941,2.427,16.187,16.187,0,0,0,4.787.579,10.287,10.287,0,0,0,4.453-.98,7.325,7.325,0,0,0,3.117-2.538,4.943,4.943,0,0,0,.69-1.737c0-.223,0-.356.134-.356s0,0,.134.2a5.545,5.545,0,0,0,.445,1.291C101.043,64.68,101.243,65.059,101.466,65.482Z" transform="translate(93.64 50.728)"/><path class="a" d="M118.176,54.859a15.029,15.029,0,0,1-3.117,10.131,12.291,12.291,0,0,1-1.8,1.87,14.428,14.428,0,0,1-3.9,2.071,14.717,14.717,0,0,1-4.988.668,17.145,17.145,0,0,1-7.392-1.247,9.864,9.864,0,0,1-3.028-2.227,10.576,10.576,0,0,1-2.227-3.807,21.8,21.8,0,0,1-.713-6.591,17.591,17.591,0,0,1,.757-5.232,12.936,12.936,0,0,1,2.694-4.943,13.36,13.36,0,0,1,5.121-3.34,14.629,14.629,0,0,1,5.255-.913,16.989,16.989,0,0,1,6.68,1.046,9.864,9.864,0,0,1,3.986,3.206A15.319,15.319,0,0,1,118.176,54.859Zm-3.229,1.113a17.323,17.323,0,0,0-.69-5.188,11.289,11.289,0,0,0-2.4-4.453,9.864,9.864,0,0,0-3.607-2.605,12.669,12.669,0,0,0-4.854-1.024,7.86,7.86,0,0,0-4.453,1.024,9.8,9.8,0,0,0-3.473,3.986A17.323,17.323,0,0,0,94.2,54.726a17.568,17.568,0,0,0,2.227,9.619,9.441,9.441,0,0,0,4.119,3.407,11.133,11.133,0,0,0,4.7,1,9.53,9.53,0,0,0,5.3-1.581,9.864,9.864,0,0,0,3.251-4.231A17.412,17.412,0,0,0,114.948,55.973Z" transform="translate(112.024 50.863)"/><path class="a" d="M134.213,57.221c0,.178,0,.267-.245.267h-2.939a.223.223,0,0,0-.245.245V61.9c0,1.692,0,3.273.134,4.7,0,.2,0,.312-.223.334A9.975,9.975,0,0,0,127.689,68a18.08,18.08,0,0,1-7.459,1.581,19.439,19.439,0,0,1-6.257-.713,11.244,11.244,0,0,1-5.255-4.03A16.276,16.276,0,0,1,110.032,46.8a15.3,15.3,0,0,1,7.481-4.564,24.492,24.492,0,0,1,7.058-.846,22.021,22.021,0,0,1,6.68.757.272.272,0,0,1,.245.289v.935c0,.557,0,.957-.134,1.069-.134,1.38-.223,2.227-.289,2.449s0,.223-.223.223-.289,0-.289-.178a4.455,4.455,0,0,0,0-.957,2.583,2.583,0,0,0-1.091-1.38,13.36,13.36,0,0,0-7.236-1.559,13.182,13.182,0,0,0-4.453.623,10.888,10.888,0,0,0-4.453,2.984,12.781,12.781,0,0,0-3.251,8.906,12.87,12.87,0,0,0,3.206,9.485,10.287,10.287,0,0,0,4.453,2.716,18.659,18.659,0,0,0,4.453.445,8.661,8.661,0,0,0,4.9-1.6.713.713,0,0,0,.178-.379V59.96c0-1.648-.223-2.472-.423-2.472H122.39c-.156,0-.245-.134-.245-.379v-.423c0-.2,0-.289.289-.289h11.333c.2,0,.289,0,.289.267Z" transform="translate(131.239 50.973)"/><path class="a" d="M151.318,42.288c0,.156,0,.245-.2.245h-2.85c-.289,0-.423.178-.423.557V69.141c0,.646,0,.957-.245.957a.623.623,0,0,1-.49-.245q-1.87-2.494-11.133-14.206-3.273-4.453-7.682-9.752c-.178-.156-.312-.111-.379.156s-.156,2.694-.312,7.548-.223,7.949-.223,9.2c0,3.629.356,5.455,1.091,5.455h2.716c.134,0,.2,0,.2.156v.779a.134.134,0,0,1-.156.156h-8.216q-.267,0-.267-.134v-.757q0-.2.267-.2h2.516c.223,0,.334-.111.334-.312V64.933c0-.8.111-4.075.289-9.819s.312-8.684.312-8.906c0-2.516-.868-3.785-2.605-3.785h-1.447s-.156,0-.156-.2v-.69a.178.178,0,0,1,.2-.2h6.479a.557.557,0,0,1,.468.334,54.2,54.2,0,0,0,3.384,4.631c2.138,2.872,3.34,4.453,3.629,4.787q4.587,6.123,9.73,12.6h.156c.111,0,.178-.2.2-.579V48.59c-.2-4.03-.69-6.056-1.47-6.056h-2.872q-.267,0-.267-.2v-.69c0-.134,0-.2.245-.2h8.906c.178,0,.245,0,.245.178Z" transform="translate(150.582 50.921)"/><path class="a" d="M159.66,66.34l-1.38,2.694a.512.512,0,0,1-.423.245H138.44c-.134,0-.2,0-.2-.245v-.646c0-.134,0-.2.156-.2h3.05c.267,0,.4-.134.4-.423V46.635c0-2.783-.267-4.164-.8-4.164h-2.494a.178.178,0,0,1-.2-.2v-.69c0-.134,0-.2.245-.2h18.347a8.908,8.908,0,0,0,1,0h.6q.267,0,.2.2c-.178.757-.423,1.625-.712,2.605-.111.312-.223.468-.312.468l-.289-.312a4.654,4.654,0,0,0-2.4-1.047,75.127,75.127,0,0,0-9.752-.49.356.356,0,0,0-.334.245V53.225c0,.267.111.4.356.4h10.02a.289.289,0,0,0,.334-.289,4.7,4.7,0,0,1,.178-1.314c.178-.668,0-1.046.134-1.113s0-.4.245-.4h.289c.178,0,.267.134.267.356V58.7c0,.089,0,.445-.223.445h-.334c-.134,0-.223,0-.245-.289,0-.868-.134-1.893-.2-3.117a.354.354,0,0,0-.4-.4h-10.02c-.178,0-.267,0-.267.356v7.748c0,3.273.356,4.921,1.069,4.921,6.39,0,10.643-.512,12.758-1.492l.913-.512Q159.727,66.073,159.66,66.34Z" transform="translate(170.184 50.983)"/></g></svg>