<svg xmlns="http://www.w3.org/2000/svg" width="242.65" height="146.021" viewBox="0 0 242.65 146.021"><defs><style>.a{fill:#fff;}</style></defs><g transform="translate(2171.067 -932.798)"><g transform="translate(-2171.067 932.798)"><path class="a" d="M-1349.959,1228.375c.042-1.5.089-2.992.126-4.487q.145-5.91.281-11.819c.045-1.949.073-3.9.117-5.846q.136-6.016.28-12.031c.052-2.288.106-4.575.132-6.864a.534.534,0,0,1,.462-.606q15.983-4.822,31.961-9.663c.2-.061.4-.129.632-.2V1160.3h59.719v17.244c1.09.319,2.154.633,3.22.941q14.839,4.292,29.682,8.575a.547.547,0,0,1,.476.634c.009,2.868.043,5.736.075,8.6.034,3.051.077,6.1.112,9.154q.074,6.464.142,12.927.053,4.62.114,9.239c0,.253.027.506.041.76h-15.522c.024-2.81.059-5.621.068-8.431q.027-8.5.029-17a2.544,2.544,0,0,0-.029-.549,7.949,7.949,0,0,0-4.8-5.987,11.258,11.258,0,0,0-5.62-.654,9.8,9.8,0,0,0-4.946,1.7,7.179,7.179,0,0,0-3.2,6.073c.019,8.28.007,16.561.007,24.842h-14.08q-.021-5.278-.042-10.557-.017-4.515-.029-9.031-.027-7.992-.056-15.985c-.011-3.237-.014-6.473-.037-9.71a2.731,2.731,0,0,0-.186-.984,14.61,14.61,0,0,0-7.142-7.836,18.041,18.041,0,0,0-10.353-1.637,15.257,15.257,0,0,0-11.54,7.014,9.166,9.166,0,0,0-1.748,5.648c.173,3.979.073,7.969.088,11.955q.035,9.455.069,18.91.018,6.106.015,12.212H-1316.2c0-.141.014-.281.013-.422q-.041-7.862-.084-15.724-.027-4.959-.06-9.917a2.112,2.112,0,0,0-.094-.664,8.474,8.474,0,0,0-3.964-4.827,9.867,9.867,0,0,0-5.694-1.1,8.818,8.818,0,0,0-7.977,5.634,4.33,4.33,0,0,0-.37,1.848c.043,1.779.052,3.559.064,5.339q.035,5.446.058,10.893.022,4.471.042,8.943Z" transform="translate(1419.606 -1141)"/><path class="a" d="M-2111.084,1097.145c.373.619.757,1.273,1.157,1.918a41.348,41.348,0,0,0,7,8.629,39.245,39.245,0,0,0,7.341,5.216c3.955,2.253,8.117,4.075,12.267,5.923a1.118,1.118,0,0,1,.383.243c-.348,0-.7.027-1.042,0a34.468,34.468,0,0,1-17.895-6.563,23.771,23.771,0,0,1-8.8-12.836c-.037-.13-.072-.26-.137-.5-.057,1-.073,1.886-.163,2.765a29.49,29.49,0,0,1-2.362,8.622,51.166,51.166,0,0,1-8.224,12.976,73.82,73.82,0,0,1-14.974,13.616,57.323,57.323,0,0,1-22.418,9.23,39.945,39.945,0,0,1-7.246.668c-1.563-.017-3.125-.208-4.687-.323a.929.929,0,0,1-.191-.094c.806-.161,1.528-.3,2.248-.45a74.308,74.308,0,0,0,22.685-8.983,90.264,90.264,0,0,0,15.454-11.677,104.529,104.529,0,0,0,11.205-11.839,44.108,44.108,0,0,0,7.388-12.917C-2111.682,1099.587-2111.415,1098.357-2111.084,1097.145Z" transform="translate(2171.067 -1083.205)"/><path class="a" d="M133.606,982.862c-.917.081-1.834.207-2.753.235a37.555,37.555,0,0,1-17.34-3.956,52.721,52.721,0,0,1-15.5-11.358,68.991,68.991,0,0,1-10.38-13.667,43.628,43.628,0,0,1-4.926-12.426,24.512,24.512,0,0,1-.55-7.493,8.867,8.867,0,0,1,.258-1.4A30.1,30.1,0,0,0,83.9,938.2a56.721,56.721,0,0,0,7.516,13.5A110.02,110.02,0,0,0,102.2,964.436a71.178,71.178,0,0,0,18.943,13.971,51.975,51.975,0,0,0,12.326,4.272c.041.008.08.023.12.035Z" transform="translate(109.044 -932.798)"/><path class="a" d="M-1262.083,948.719a27.31,27.31,0,0,1-25.457,20.222c.123-.067.244-.136.368-.2,2.924-1.533,5.876-3.014,8.764-4.612a40.426,40.426,0,0,0,9.453-7.648,66.279,66.279,0,0,0,6.356-7.655c.232-.329.552-.631.368-1.134.443.469.89.934,1.327,1.409,2.1,2.287,4.172,4.607,6.317,6.854a24.427,24.427,0,0,0,4.686,3.549c1.105.705,2.218,1.4,3.325,2.205-.49.05-.979.14-1.469.142a11.683,11.683,0,0,1-9.65-4.856,24.722,24.722,0,0,1-4.267-7.983C-1261.986,948.934-1262.024,948.861-1262.083,948.719Z" transform="translate(1362.481 -946.428)"/><path class="a" d="M-171.293,945.971a24.291,24.291,0,0,1-1.3,7.1,31.569,31.569,0,0,1-11.96,15.967,39.168,39.168,0,0,1-9.559,5.124,1.485,1.485,0,0,1-.562.108c.415-.359.833-.713,1.244-1.077,3.248-2.873,6.548-5.69,9.726-8.638a46.486,46.486,0,0,0,9-11.922c1.133-2.065,2.153-4.191,3.224-6.29C-171.411,946.22-171.353,946.095-171.293,945.971Z" transform="translate(362.311 -944.854)"/><path class="a" d="M-686.791,1694.965h-.507c-1.936,0-3.872.007-5.808-.007-.293,0-.39.1-.5.364a6.294,6.294,0,0,1-.819,1.511,1.863,1.863,0,0,1-3.03,0,6.242,6.242,0,0,1-.818-1.512c-.113-.27-.216-.362-.5-.36-1.922.013-3.844.007-5.766.007h-.478c.328-.526.672-1,.942-1.522a16.344,16.344,0,0,0,1.61-6.57,25.482,25.482,0,0,1,1.108-6.833,5.9,5.9,0,0,1,3.405-3.88,7.17,7.17,0,0,1,4.618-.192,4.628,4.628,0,0,1,3,2.732,13.773,13.773,0,0,1,1.015,4.393c.191,1.911.3,3.831.551,5.733A15.612,15.612,0,0,0-686.791,1694.965Z" transform="translate(829.373 -1612.665)"/><path class="a" d="M-687.474,1399.258H-689c-1.54,0-3.08.013-4.62-.009a.582.582,0,0,0-.686.47,4.482,4.482,0,0,1-.652,1.269,1.92,1.92,0,0,1-3.278.01,5.735,5.735,0,0,1-.706-1.384c-.105-.273-.21-.365-.5-.363-1.921.014-3.843.007-5.765.007h-.538a9.229,9.229,0,0,0,1.6-2.834,18.855,18.855,0,0,0,1.018-5.259,26.736,26.736,0,0,1,1.013-6.551,6.865,6.865,0,0,1,2.088-3.324,6.128,6.128,0,0,1,4.58-1.259c2.821.235,4.41,1.674,5.007,4.708a54.791,54.791,0,0,1,.7,5.707,23.271,23.271,0,0,0,1.705,7.729C-687.88,1398.518-687.689,1398.847-687.474,1399.258Z" transform="translate(830.034 -1342.067)"/><path class="a" d="M-203.162,1714.121c-1.259,0-2.571.01-3.882-.007a.5.5,0,0,0-.581.383,2.875,2.875,0,0,1-.583.966,1.175,1.175,0,0,1-1.828,0,3.731,3.731,0,0,1-.625-1.037.417.417,0,0,0-.456-.311c-1.2.012-2.4.005-3.6.005h-.48c1.484-1.948,1.643-4.188,1.807-6.432a12.438,12.438,0,0,1,.753-3.763,4.153,4.153,0,0,1,5.515-2.36,3.136,3.136,0,0,1,1.722,1.721,11.573,11.573,0,0,1,.747,3.546c.177,1.555.324,3.117.608,4.653A19,19,0,0,0-203.162,1714.121Z" transform="translate(381.098 -1636.062)"/><path class="a" d="M-1117.625,1706.371h-4.393c-.321.845-.633,1.773-1.707,1.743-.994-.028-1.317-.887-1.608-1.739h-4.428a10.36,10.36,0,0,0,1.768-5.914,14.913,14.913,0,0,1,.755-4.193c1.012-2.764,3.516-3.039,5.375-2.512a2.994,2.994,0,0,1,1.93,1.835,12.109,12.109,0,0,1,.755,4.014,18.213,18.213,0,0,0,1.014,5.6C-1118.012,1705.579-1117.824,1705.942-1117.625,1706.371Z" transform="translate(1218.086 -1629.011)"/></g><g transform="translate(-2156.032 1061.1)"><path class="a" d="M-1982.463,2472.138h-11.353l.048-.285a6.934,6.934,0,0,0,.914-.048,1.339,1.339,0,0,0,.63-.261,1.332,1.332,0,0,0,.415-.487,3.513,3.513,0,0,0,.226-.914,29.93,29.93,0,0,0,.118-3.373v-5.89a15.4,15.4,0,0,0-.332-4.3,1.262,1.262,0,0,0-1.045-.76,7.317,7.317,0,0,0-.926-.047l-.048-.261h6.388l-.047.261a2.708,2.708,0,0,0-1.734.451q-.594.5-.594,4.655v6.246a21.861,21.861,0,0,0,.166,3.408,1.446,1.446,0,0,0,.784,1.128q6.127,0,6.127-2.921l.261-.048Z" transform="translate(1993.815 -2454.658)"/><path class="a" d="M-1832.183,2521.735h-7.79v.4a5.966,5.966,0,0,0,1.069,3.835,3.293,3.293,0,0,0,2.66,1.318,3.6,3.6,0,0,0,3.42-1.9l.356.19a4.286,4.286,0,0,1-4.132,2.4,4.947,4.947,0,0,1-3.657-1.544,5.682,5.682,0,0,1-1.52-4.168,6.71,6.71,0,0,1,1.342-4.311,4.349,4.349,0,0,1,3.586-1.687,4.149,4.149,0,0,1,3.456,1.532A6.146,6.146,0,0,1-1832.183,2521.735Zm-4.608-4.988a2.492,2.492,0,0,0-2.173,1.176,6.5,6.5,0,0,0-.962,3.123h5.914Q-1834.178,2516.748-1836.791,2516.747Z" transform="translate(1854.674 -2510.263)"/><path class="a" d="M-1615.961,2465.39v2.945a11.839,11.839,0,0,1-2.862,1.235,11.885,11.885,0,0,1-3.408.5,8.037,8.037,0,0,1-6.1-2.446,8.506,8.506,0,0,1-2.327-6.1,8.644,8.644,0,0,1,2.244-6.092,7.821,7.821,0,0,1,6.044-2.434,12.617,12.617,0,0,1,3.349.463,9.356,9.356,0,0,1,2.494.986v3.04l-.261-.047a3.884,3.884,0,0,0-1.853-2.9,6.877,6.877,0,0,0-3.729-1,5.372,5.372,0,0,0-4.631,2.185,9.6,9.6,0,0,0-1.591,5.783,9.411,9.411,0,0,0,1.662,5.807,5.678,5.678,0,0,0,4.833,2.209q3.171,0,4.477-2v-1.853a10.07,10.07,0,0,0-.3-3.242q-.3-.606-1.722-.606l-.047-.238h5.819l-.047.238q-1.354,0-1.7.641A7.59,7.59,0,0,0-1615.961,2465.39Z" transform="translate(1661.465 -2452.352)"/><path class="a" d="M-1406.111,2514.873a2.052,2.052,0,0,1,1.045.261.8.8,0,0,1,.451.713.919.919,0,0,1-.285.712.925.925,0,0,1-.641.261,1.894,1.894,0,0,1-.891-.309,2.225,2.225,0,0,0-1.128-.309q-.926,0-1.508,1.71a12.3,12.3,0,0,0-.582,3.966,12.121,12.121,0,0,0,.309,3.681.961.961,0,0,0,.356.392,1.117,1.117,0,0,0,.546.2c.19.016.459.024.808.024l.047.285h-5.771l.048-.285a5.194,5.194,0,0,0,1.1-.083.948.948,0,0,0,.582-.582,3.264,3.264,0,0,0,.273-1.246q.035-.748.036-2.387V2520.5a19.362,19.362,0,0,0-.178-3.752,6.739,6.739,0,0,0-.32-.712.737.737,0,0,0-.427-.356,5.407,5.407,0,0,0-1.378-.143l-.047-.261a28.729,28.729,0,0,1,4.014-.285v3.491a4.794,4.794,0,0,1,1.176-2.648A3.113,3.113,0,0,1-1406.111,2514.873Z" transform="translate(1462.872 -2508.983)"/><path class="a" d="M-1284.387,2520.072v2.4a22.04,22.04,0,0,0,.166,3.456q.166.819.807.819a2.578,2.578,0,0,0,1.069-.332l.119.237q-.19.142-.5.344a6.815,6.815,0,0,1-1.259.534,5.534,5.534,0,0,1-1.829.333,15.169,15.169,0,0,1-.238-3.183,6.86,6.86,0,0,1-1.366,2.387,3.023,3.023,0,0,1-2.339.914,3.361,3.361,0,0,1-2.363-.8,2.8,2.8,0,0,1-.867-2.173q0-3.823,6.935-3.847v-.855a5.5,5.5,0,0,0-.5-2.613,1.926,1.926,0,0,0-1.852-.9,1.915,1.915,0,0,0-1.235.38,1.939,1.939,0,0,0-.641.831q-.4,1.235-1.2,1.235t-.8-.891q0-.891,1.187-1.484a6.377,6.377,0,0,1,2.874-.594,3.962,3.962,0,0,1,2.755.962A3.624,3.624,0,0,1-1284.387,2520.072Zm-6.341,6.567a1.674,1.674,0,0,0,1.437.606,2.328,2.328,0,0,0,1.793-.962,5.321,5.321,0,0,0,1.1-2.138,11.737,11.737,0,0,0,.344-2.434,6.518,6.518,0,0,0-3.883.973,2.922,2.922,0,0,0-1.247,2.423A2.494,2.494,0,0,0-1290.728,2526.639Z" transform="translate(1352.429 -2510.263)"/><path class="a" d="M-1146.683,2516.272v4.252a6.028,6.028,0,0,1,1.188-2.981,3.1,3.1,0,0,1,2.589-1.271q3.634,0,3.634,3.8v3.752a8.374,8.374,0,0,0,.321,3.052q.32.582,1.7.582l.047.285h-5.771l.047-.285q1.425,0,1.71-.594a10.447,10.447,0,0,0,.285-3.254v-3.3a4.79,4.79,0,0,0-.511-2.47,1.756,1.756,0,0,0-1.615-.832,2.476,2.476,0,0,0-1.841.748,4.591,4.591,0,0,0-1.093,1.888,14.838,14.838,0,0,0-.689,4.442,7.816,7.816,0,0,0,.3,2.8q.3.57,1.7.57l.047.285h-5.795l.047-.285q1.425,0,1.734-.582a8.9,8.9,0,0,0,.309-3.1v-1.9a14.261,14.261,0,0,0-.356-4.3,1.227,1.227,0,0,0-.416-.475,1.422,1.422,0,0,0-.641-.261,7.162,7.162,0,0,0-.938-.048l-.047-.261A32.378,32.378,0,0,1-1146.683,2516.272Z" transform="translate(1222.254 -2510.263)"/><path class="a" d="M-964.814,2462.587a3.225,3.225,0,0,1-2.232.819,4.238,4.238,0,0,1-2.2-.522,3.64,3.64,0,0,1-1.354-1.377,7.835,7.835,0,0,1-.95-3.99,5.8,5.8,0,0,1,1.615-4.085,5.624,5.624,0,0,1,4.322-1.734,7.683,7.683,0,0,1,2.161.285v-2.256a15.737,15.737,0,0,0-.119-2.411q-.119-.629-.38-.772a3.011,3.011,0,0,0-1.5-.285l-.047-.261a22.574,22.574,0,0,1,3.7-.285V2457.9a22.034,22.034,0,0,0,.166,3.456q.166.82.807.819a2.573,2.573,0,0,0,1.069-.333l.119.238c-.127.095-.293.21-.5.344a6.728,6.728,0,0,1-1.259.535,5.528,5.528,0,0,1-1.829.333,11.737,11.737,0,0,1-.309-2.755A4.459,4.459,0,0,1-964.814,2462.587Zm-3.467-.392a2.311,2.311,0,0,0,1.472.475,2.363,2.363,0,0,0,1.568-.594,3.686,3.686,0,0,0,1.057-1.521,9.55,9.55,0,0,0,.736-3.681v-3.633a3.523,3.523,0,0,0-2.232-.808,3.645,3.645,0,0,0-2.019.522,3.453,3.453,0,0,0-1.235,1.377,7.4,7.4,0,0,0-.808,3.4,8.806,8.806,0,0,0,.57,3.206A2.752,2.752,0,0,0-968.281,2462.2Z" transform="translate(1058.256 -2445.689)"/><path class="a" d="M-726.069,2460.88v5.89a13.972,13.972,0,0,0,.356,4.275,1.2,1.2,0,0,0,.4.5,1.335,1.335,0,0,0,.629.261,6.928,6.928,0,0,0,.914.048l.047.285h-6.412l.048-.285a7.171,7.171,0,0,0,.938-.048,1.415,1.415,0,0,0,.641-.261,1.3,1.3,0,0,0,.427-.487,3.511,3.511,0,0,0,.226-.914,29.864,29.864,0,0,0,.119-3.373v-2.612h-9.619v2.612a25.186,25.186,0,0,0,.154,3.468,2.047,2.047,0,0,0,.439,1.164,2.707,2.707,0,0,0,1.734.451l.047.285h-6.412l.048-.285a6.89,6.89,0,0,0,.926-.048,1.406,1.406,0,0,0,.629-.261,1.3,1.3,0,0,0,.427-.487,3.506,3.506,0,0,0,.226-.914,29.838,29.838,0,0,0,.119-3.373v-5.89a27.767,27.767,0,0,0-.142-3.444,2.091,2.091,0,0,0-.428-1.211,2.816,2.816,0,0,0-1.757-.451l-.048-.261h6.412l-.047.261a2.708,2.708,0,0,0-1.734.451q-.594.5-.594,4.655v2.66h9.619v-2.66a14.4,14.4,0,0,0-.356-4.3,1.177,1.177,0,0,0-.416-.5,1.421,1.421,0,0,0-.641-.261,7.266,7.266,0,0,0-.938-.047l-.048-.261h6.412l-.047.261a7.02,7.02,0,0,0-.914.047,1.341,1.341,0,0,0-.629.261,1.3,1.3,0,0,0-.416.5,3.706,3.706,0,0,0-.226.926A33.494,33.494,0,0,0-726.069,2460.88Z" transform="translate(847.619 -2454.658)"/><path class="a" d="M-507.87,2460.626a6.236,6.236,0,0,1,1.425-4.168,4.8,4.8,0,0,1,3.871-1.687,5.016,5.016,0,0,1,3.942,1.687,6.069,6.069,0,0,1,1.5,4.18,6.175,6.175,0,0,1-1.437,4.168,4.854,4.854,0,0,1-3.883,1.675,4.979,4.979,0,0,1-3.931-1.686A6.08,6.08,0,0,1-507.87,2460.626Zm2.743,3.859a2.968,2.968,0,0,0,2.672,1.52,2.872,2.872,0,0,0,2.624-1.5,7.464,7.464,0,0,0,.891-3.859,7.221,7.221,0,0,0-.95-3.883,2.988,2.988,0,0,0-2.672-1.52,2.858,2.858,0,0,0-2.612,1.508,7.507,7.507,0,0,0-.891,3.859A7.26,7.26,0,0,0-505.127,2464.486Zm2.007-15.235a1.068,1.068,0,0,1,.617-.178,1.069,1.069,0,0,1,.618.178,5.159,5.159,0,0,1,.76.724l1.9,2.161-.475.522-2.8-1.829-2.8,1.829-.475-.522,1.9-2.161A5.142,5.142,0,0,1-503.12,2449.25Z" transform="translate(633.908 -2448.764)"/><path class="a" d="M-354.143,2487.554h2.921v.522h-2.921v9.049a1.237,1.237,0,0,0,.238.8.753.753,0,0,0,.617.3,5.275,5.275,0,0,0,2.019-.5l.047.261a5.729,5.729,0,0,1-2.945,1.045,1.681,1.681,0,0,1-1.235-.4,1.948,1.948,0,0,1-.4-1.4v-9.144h-1.425v-.522a2.043,2.043,0,0,0,1.793-.724,5.51,5.51,0,0,0,.772-2.149l.522-.048Z" transform="translate(496.046 -2481.308)"/><path class="a" d="M-260,2521.735h-7.79v.4a5.967,5.967,0,0,0,1.069,3.835,3.294,3.294,0,0,0,2.66,1.318,3.6,3.6,0,0,0,3.42-1.9l.356.19a4.286,4.286,0,0,1-4.132,2.4,4.947,4.947,0,0,1-3.657-1.544,5.681,5.681,0,0,1-1.52-4.168,6.71,6.71,0,0,1,1.342-4.311,4.35,4.35,0,0,1,3.586-1.687,4.149,4.149,0,0,1,3.456,1.532A6.147,6.147,0,0,1-260,2521.735Zm-4.607-4.988a2.492,2.492,0,0,0-2.173,1.176,6.5,6.5,0,0,0-.962,3.123h5.914Q-261.994,2516.748-264.607,2516.747Z" transform="translate(415.843 -2510.263)"/><path class="a" d="M-131.725,2445.433v13.347a9.692,9.692,0,0,0,.309,3.242q.308.605,1.71.605l.048.285h-5.819l.048-.285q1.425,0,1.734-.594a9.686,9.686,0,0,0,.309-3.254v-9.073a9.8,9.8,0,0,0-.285-3.182,1.052,1.052,0,0,0-.356-.332,1.216,1.216,0,0,0-.558-.19q-.3-.023-.843-.024l-.048-.261A23.718,23.718,0,0,1-131.725,2445.433Z" transform="translate(293.103 -2445.433)"/><path class="a" d="M32.525,2451.4a3.662,3.662,0,0,1,1.176.368.676.676,0,0,1,.344.606.969.969,0,0,1-.261.677.724.724,0,0,1-.511.285,1,1,0,0,1-.5-.143,4.367,4.367,0,0,1-.819-.784,13.659,13.659,0,0,0-2.042-1.71,13.592,13.592,0,0,0,.463,2.624,4.357,4.357,0,0,1,.273,1.164.736.736,0,0,1-.249.57.9.9,0,0,1-.629.226.859.859,0,0,1-.617-.226.752.752,0,0,1-.237-.57,4.2,4.2,0,0,1,.285-1.164,12.85,12.85,0,0,0,.475-2.624,11.477,11.477,0,0,0-2.137,1.781q-.641.855-1.187.855a.779.779,0,0,1-.57-.273.925.925,0,0,1-.261-.665.7.7,0,0,1,.344-.618,3.593,3.593,0,0,1,1.187-.392,14,14,0,0,0,2.506-.879,14.215,14.215,0,0,0-2.506-.914,3.987,3.987,0,0,1-1.187-.392.674.674,0,0,1-.344-.605.926.926,0,0,1,.261-.665.749.749,0,0,1,.534-.273.992.992,0,0,1,.487.118,1.868,1.868,0,0,1,.4.309,2.666,2.666,0,0,1,.332.4,11.734,11.734,0,0,0,2.137,1.8,12.676,12.676,0,0,0-.475-2.636,4.084,4.084,0,0,1-.285-1.14.778.778,0,0,1,.237-.57.837.837,0,0,1,.617-.237.879.879,0,0,1,.629.237.761.761,0,0,1,.249.57,4.241,4.241,0,0,1-.273,1.14,13.4,13.4,0,0,0-.463,2.636,13.088,13.088,0,0,0,2.042-1.722,4.138,4.138,0,0,1,.807-.784,1.021,1.021,0,0,1,.5-.13.741.741,0,0,1,.522.273.927.927,0,0,1,.261.665.675.675,0,0,1-.344.605,3.975,3.975,0,0,1-1.176.392,14.387,14.387,0,0,0-2.494.914A12.634,12.634,0,0,0,32.525,2451.4Z" transform="translate(145.762 -2445.689)"/><path class="a" d="M161.322,2451.4a3.662,3.662,0,0,1,1.176.368.676.676,0,0,1,.344.606.969.969,0,0,1-.261.677.725.725,0,0,1-.511.285,1,1,0,0,1-.5-.143,4.37,4.37,0,0,1-.819-.784,13.653,13.653,0,0,0-2.042-1.71,13.6,13.6,0,0,0,.463,2.624,4.358,4.358,0,0,1,.273,1.164.736.736,0,0,1-.249.57.9.9,0,0,1-.629.226.859.859,0,0,1-.618-.226.752.752,0,0,1-.238-.57,4.2,4.2,0,0,1,.285-1.164,12.858,12.858,0,0,0,.475-2.624,11.48,11.48,0,0,0-2.137,1.781q-.641.855-1.187.855a.779.779,0,0,1-.57-.273.925.925,0,0,1-.261-.665.7.7,0,0,1,.344-.618,3.593,3.593,0,0,1,1.187-.392,14,14,0,0,0,2.506-.879,14.213,14.213,0,0,0-2.506-.914,3.987,3.987,0,0,1-1.187-.392.674.674,0,0,1-.344-.605.926.926,0,0,1,.261-.665.749.749,0,0,1,.534-.273.992.992,0,0,1,.487.118,1.87,1.87,0,0,1,.4.309,2.661,2.661,0,0,1,.332.4,11.734,11.734,0,0,0,2.137,1.8,12.683,12.683,0,0,0-.475-2.636,4.086,4.086,0,0,1-.285-1.14.778.778,0,0,1,.238-.57.837.837,0,0,1,.618-.237.879.879,0,0,1,.629.237.761.761,0,0,1,.249.57,4.242,4.242,0,0,1-.273,1.14,13.405,13.405,0,0,0-.463,2.636,13.082,13.082,0,0,0,2.042-1.722,4.141,4.141,0,0,1,.808-.784,1.02,1.02,0,0,1,.5-.13.741.741,0,0,1,.523.273.927.927,0,0,1,.261.665.675.675,0,0,1-.344.605,3.975,3.975,0,0,1-1.176.392,14.383,14.383,0,0,0-2.494.914A12.632,12.632,0,0,0,161.322,2451.4Z" transform="translate(27.889 -2445.689)"/><path class="a" d="M290.12,2451.4a3.662,3.662,0,0,1,1.176.368.676.676,0,0,1,.344.606.969.969,0,0,1-.261.677.724.724,0,0,1-.511.285,1,1,0,0,1-.5-.143,4.37,4.37,0,0,1-.819-.784,13.656,13.656,0,0,0-2.042-1.71,13.6,13.6,0,0,0,.463,2.624,4.357,4.357,0,0,1,.273,1.164.736.736,0,0,1-.249.57.9.9,0,0,1-.629.226.859.859,0,0,1-.617-.226.752.752,0,0,1-.237-.57,4.193,4.193,0,0,1,.285-1.164,12.853,12.853,0,0,0,.475-2.624,11.476,11.476,0,0,0-2.137,1.781q-.641.855-1.187.855a.779.779,0,0,1-.57-.273.925.925,0,0,1-.261-.665.7.7,0,0,1,.344-.618,3.594,3.594,0,0,1,1.188-.392,14,14,0,0,0,2.506-.879,14.216,14.216,0,0,0-2.506-.914,3.988,3.988,0,0,1-1.188-.392.674.674,0,0,1-.344-.605.926.926,0,0,1,.261-.665.749.749,0,0,1,.534-.273.992.992,0,0,1,.487.118,1.868,1.868,0,0,1,.4.309,2.664,2.664,0,0,1,.333.4,11.733,11.733,0,0,0,2.137,1.8,12.679,12.679,0,0,0-.475-2.636,4.082,4.082,0,0,1-.285-1.14.778.778,0,0,1,.237-.57.837.837,0,0,1,.617-.237.879.879,0,0,1,.629.237.761.761,0,0,1,.249.57,4.241,4.241,0,0,1-.273,1.14,13.407,13.407,0,0,0-.463,2.636,13.085,13.085,0,0,0,2.042-1.722,4.139,4.139,0,0,1,.808-.784,1.02,1.02,0,0,1,.5-.13.741.741,0,0,1,.523.273.927.927,0,0,1,.261.665.675.675,0,0,1-.344.605,3.976,3.976,0,0,1-1.176.392,14.386,14.386,0,0,0-2.494.914A12.634,12.634,0,0,0,290.12,2451.4Z" transform="translate(-89.984 -2445.689)"/><path class="a" d="M418.918,2451.4a3.662,3.662,0,0,1,1.176.368.676.676,0,0,1,.344.606.969.969,0,0,1-.261.677.724.724,0,0,1-.511.285,1,1,0,0,1-.5-.143,4.368,4.368,0,0,1-.819-.784,13.654,13.654,0,0,0-2.042-1.71,13.6,13.6,0,0,0,.463,2.624,4.361,4.361,0,0,1,.273,1.164.736.736,0,0,1-.249.57.9.9,0,0,1-.629.226.859.859,0,0,1-.617-.226.752.752,0,0,1-.238-.57,4.193,4.193,0,0,1,.285-1.164,12.855,12.855,0,0,0,.475-2.624,11.475,11.475,0,0,0-2.137,1.781q-.641.855-1.187.855a.779.779,0,0,1-.57-.273.925.925,0,0,1-.261-.665.7.7,0,0,1,.344-.618,3.593,3.593,0,0,1,1.187-.392,14,14,0,0,0,2.506-.879,14.216,14.216,0,0,0-2.506-.914,3.988,3.988,0,0,1-1.187-.392.674.674,0,0,1-.344-.605.926.926,0,0,1,.261-.665.749.749,0,0,1,.534-.273.992.992,0,0,1,.487.118,1.868,1.868,0,0,1,.4.309,2.664,2.664,0,0,1,.333.4,11.733,11.733,0,0,0,2.137,1.8,12.681,12.681,0,0,0-.475-2.636,4.082,4.082,0,0,1-.285-1.14.778.778,0,0,1,.238-.57.837.837,0,0,1,.617-.237.879.879,0,0,1,.629.237.761.761,0,0,1,.249.57,4.244,4.244,0,0,1-.273,1.14,13.4,13.4,0,0,0-.463,2.636,13.082,13.082,0,0,0,2.042-1.722,4.135,4.135,0,0,1,.808-.784,1.02,1.02,0,0,1,.5-.13.741.741,0,0,1,.523.273.927.927,0,0,1,.261.665.675.675,0,0,1-.344.605,3.976,3.976,0,0,1-1.176.392,14.388,14.388,0,0,0-2.494.914A12.635,12.635,0,0,0,418.918,2451.4Z" transform="translate(-207.857 -2445.689)"/></g></g></svg>