<svg xmlns="http://www.w3.org/2000/svg" width="180" height="172.377" viewBox="0 0 180 172.377"><defs><style>.a{fill:#fff;}</style></defs><g transform="translate(0.336 0.031)"><path class="a" d="M109.25,171.31c-3.36-6.3-6.6-13.14-11.37-23.1h-13v23.1H83.09V123h15.4a12.56,12.56,0,0,1,12.35,12.59c0,6.17-4.65,11.36-11,12.53l11.42,23.16ZM84.86,124.92v21.39H98.49a10.7,10.7,0,0,0,0-21.39Z" transform="translate(0.45 0.781)"/><path class="a" d="M119.39,133.05a1.5,1.5,0,0,1,1.59-1.53,1.52,1.52,0,0,1,1.53,1.53,1.57,1.57,0,0,1-1.53,1.59,1.54,1.54,0,0,1-1.59-1.59Zm.61,38.26V144h1.83v27.32Z" transform="translate(0.554 0.781)"/><path class="a" d="M156.18,158.84H131.61c.55,6.3,5.13,10.88,11.12,10.88,2.81,0,6.3-.43,8.74-2.51l1.35,1.35c-2.94,2.38-6.85,3-10.09,3a12.66,12.66,0,0,1-13-13.5c0-7.58,5.37-13.69,13-13.69a14.1,14.1,0,0,1,10,4.46v.06c2.33,2.69,3.73,5.68,3.49,9.1Zm-24.57-1.77h22.73a11.78,11.78,0,0,0-11.61-10.82c-5.99,0-10.57,4.65-11.12,10.82Z" transform="translate(0.815 0.781)"/><path class="a" d="M164.18,171.31V123H166v48.28Z" transform="translate(0.815 0.781)"/><path class="a" d="M176,171.31V123h1.83v48.28Z" transform="translate(0.815 0.781)"/><path class="a" d="M26.17,113c-2.83,1.16-5.7,2.36-8.79,2.36a17.3,17.3,0,1,1,0-34.59,20,20,0,0,1,8.84,2.36l.43.3-.73,1c-2.75-1.2-5.5-2.43-8.54-2.43a16.025,16.025,0,0,0,0,32.05c3,0,5.79-1.2,8.54-2.36l.77,1Z" transform="translate(0 0.46)"/><path class="a" d="M43.68,114.9V102.45a5.14,5.14,0,0,0-5.07-5.1c-2.48,0-6.35,1.5-6.35,4.46V114.9H31V81h1.28V98.59c1.33-1.71,4.25-2.49,6.35-2.49a6.1,6.1,0,0,1,6.31,6.35V114.9ZM32.26,81Z" transform="translate(0.155 0.459)"/><path class="a" d="M67.23,114.9v-4.76c-2.06,3.17-4.89,4.93-8.11,4.93a9.73,9.73,0,0,1,0-19.44c3.22,0,6.05,1.76,8.11,4.89V95.8h1.29v19.1ZM51.1,105.33a8,8,0,1,0,8-8.41,8.15,8.15,0,0,0-8,8.41Zm12-11.63-3.69-3.77L55.73,93.7h-1.2l4.51-5h.81l4.46,5Z" transform="translate(0.255 0.477)"/><path class="a" d="M78.77,96.23V114.9H77.44V96.23H74.65v-.94h2.79V89.8h1.33v5.49h5.36v.94Z" transform="translate(0.36 0.479)"/><path class="a" d="M106.4,106.15H89.15c.39,4.42,3.61,7.63,7.81,7.63,2,0,4.42-.3,6.14-1.76l.94,1a11.23,11.23,0,0,1-7.08,2.1,8.91,8.91,0,0,1-9.14-9.48C87.82,100.27,91.6,96,97,96a9.9,9.9,0,0,1,7,3.13h0a8.73,8.73,0,0,1,2.45,6.39ZM89.15,104.9h16A8.26,8.26,0,0,0,97,97.31C92.76,97.31,89.54,100.57,89.15,104.9Z" transform="translate(0.447 0.492)"/><path class="a" d="M128.41,114.9v-4.72c-2.06,3.13-4.89,4.89-8.11,4.89a9.66,9.66,0,0,1,0-19.31c3.22,0,6,1.76,8.11,4.89V95.93h1.29v19Zm-16.13-9.48a8,8,0,1,0,8-8.37,8.14,8.14,0,0,0-8,8.37Z" transform="translate(0.565 0.491)"/><path class="a" d="M148.06,114.9v-2.41a7.1,7.1,0,0,1-5.88,2.66c-3.43,0-6-2.87-6-6.52V96h1.24v12.61c0,2.92,2,5.28,4.72,5.28s5.88-1.89,5.88-4.68v-13h1.24V114.9Z" transform="translate(0.67 0.492)"/><path class="a" d="M56.34,147.82v-3.14a5.57,5.57,0,0,1-5.19,3.26,6.79,6.79,0,0,1,0-13.56,5.68,5.68,0,0,1,5.19,3.26V124.38h.89v23.44Zm-10.8-6.68A5.68,5.68,0,0,0,51.15,147c3.2,0,5.1-2.73,5.1-5.88s-1.9-5.87-5.1-5.87a5.68,5.68,0,0,0-5.61,5.89Z" transform="translate(0.22 0.781)"/><path class="a" d="M74.18,141.77H62.25a5.47,5.47,0,0,0,5.4,5.28,6.53,6.53,0,0,0,4.24-1.22l.66.65a7.78,7.78,0,0,1-4.9,1.46,6.15,6.15,0,0,1-6.32-6.56,6.35,6.35,0,0,1,6.32-6.65,6.89,6.89,0,0,1,4.87,2.17h0a6,6,0,0,1,1.69,4.42Zm-11.93-.86h11a5.73,5.73,0,0,0-5.64-5.26,5.49,5.49,0,0,0-5.36,5.26Z" transform="translate(0.302 0.781)"/><path class="a" d="M88.3,82.87a.15.15,0,0,1-.09,0,.22.22,0,0,1-.12-.16L88,81.77l-1.42.82a.23.23,0,0,1-.25,0,.22.22,0,0,1,0-.25l1-2-3.28,1.89a.22.22,0,0,1-.27,0,.23.23,0,0,1,0-.28l2.51-2.68-4.64,2.67a.222.222,0,0,1-.27-.34l4-3.52-6.12,3.53a.214.214,0,0,1-.23-.36l4.93-3.73-6.61,3.82a.2.2,0,0,1-.28-.07.21.21,0,0,1,0-.29l6.06-4.41-7,4a.23.23,0,0,1-.29-.07.21.21,0,0,1,.06-.29l6.42-4.54-6.19,3.58a.22.22,0,0,1-.29-.07.21.21,0,0,1,.06-.29l6.37-4.53-6.14,3.55a.22.22,0,0,1-.29-.07.21.21,0,0,1,0-.28l7.65-6.2-7.41,4.28a.232.232,0,0,1-.29-.35l7.33-5.82-7.09,4.09a.212.212,0,0,1-.24-.35l6.63-5L76.03,71.9a.22.22,0,0,1-.29-.06.23.23,0,0,1,0-.29l7.54-6.23-7.29,4.21a.21.21,0,0,1-.29-.07.2.2,0,0,1,0-.28l6.56-4.86L76.09,68a.234.234,0,0,1-.29-.35L83,62.13l-7,4a.214.214,0,0,1-.23-.36l7.69-5.9-7.45,4.3a.212.212,0,0,1-.24-.35l9-7.11-8.76,5.05a.231.231,0,0,1-.28-.35L87,52.87,76.08,59.16a.2.2,0,0,1-.28-.07.22.22,0,0,1,.06-.29L87,51.35l-10.9,6.3a.23.23,0,0,1-.29-.07.21.21,0,0,1,.06-.29L92.06,46l-16,9.22a.21.21,0,0,1-.29-.07.22.22,0,0,1,.06-.29l13-8.46L76.09,53.82a.23.23,0,0,1-.29-.07.22.22,0,0,1,.06-.29l13.2-8.75-13,7.49a.22.22,0,0,1-.28-.07.21.21,0,0,1,.06-.29l13.85-9.57L76.08,50.14a.211.211,0,0,1-.22-.36l12-8L76,48.68a.214.214,0,0,1-.23-.36l13.2-9.18L75.62,46.83a.2.2,0,0,1-.28-.07.21.21,0,0,1,.06-.29l12.86-8.79L75.07,45.29a.2.2,0,0,1-.28-.07.21.21,0,0,1,.06-.29l13.48-9.28L74.17,43.82a.211.211,0,0,1-.22-.36L86.79,35,73.33,42.78a.211.211,0,0,1-.22-.36L88.63,31.83,71.92,41.48a.21.21,0,0,1-.29-.07.22.22,0,0,1,.06-.29l17.75-12L70,40.33a.21.21,0,0,1-.29-.07.22.22,0,0,1,.06-.29L90.35,26.39,67.47,39.6a.21.21,0,0,1-.29-.07.22.22,0,0,1,.06-.29l24-16-29.45,17a.213.213,0,0,1-.21-.37L96.8,19.56a.22.22,0,0,1,.29.07.21.21,0,0,1-.07.29l-24,16L96.37,22.43a.2.2,0,0,1,.28.07.21.21,0,0,1-.06.29L76,36.37,94.33,25.78a.21.21,0,0,1,.29.07.22.22,0,0,1-.06.29l-17.75,12,16.51-9.53a.23.23,0,0,1,.29.07.22.22,0,0,1-.06.29L78,39.58,92.9,31a.214.214,0,0,1,.23.36L80.28,39.8l12.47-7.2A.236.236,0,0,1,93,33L79.5,42.25l13.38-7.73a.21.21,0,0,1,.29.07.22.22,0,0,1-.06.29L80.25,43.67l12.86-7.43a.21.21,0,0,1,.28.08.2.2,0,0,1,0,.28L80.13,45.78,93.59,38a.22.22,0,0,1,.22.37l-12,8L94,39.28a.214.214,0,0,1,.23.36L80.42,49.2l14.39-8.3a.2.2,0,0,1,.28.07.21.21,0,0,1-.06.29L81.83,50l13.71-7.92a.214.214,0,0,1,.23.36l-13,8.46,13.5-7.79a.21.21,0,0,1,.29.07.22.22,0,0,1-.06.29L80.29,54.73l12-7a.21.21,0,0,1,.28.08.2.2,0,0,1-.06.28l-11.08,7.5,8.14-4.71a.22.22,0,0,1,.28.07.21.21,0,0,1,0,.29L78.67,59.8l8.47-4.89a.21.21,0,0,1,.28.06.22.22,0,0,1,0,.29l-9,7.11,7.74-4.47a.23.23,0,0,1,.29.07.2.2,0,0,1,0,.28l-7.69,5.91,7-4a.231.231,0,0,1,.28.35L78.72,66l6.71-3.88a.23.23,0,0,1,.29.07.21.21,0,0,1-.06.29L79.1,67.31l6.26-3.62a.234.234,0,0,1,.29.35l-7.54,6.23,7.29-4.2a.21.21,0,0,1,.28.06.22.22,0,0,1,0,.29l-6.62,5,6.49-3.75a.2.2,0,0,1,.28.07.22.22,0,0,1,0,.28l-7.34,5.83,7.26-4.2a.23.23,0,0,1,.29.07.21.21,0,0,1,0,.28l-7.65,6.2,7.71-4.45a.21.21,0,0,1,.29.07.22.22,0,0,1-.06.29L79.77,76.6,86.1,73a.231.231,0,0,1,.28.35L79.9,77.84l6.43-3.71a.21.21,0,0,1,.29.07.2.2,0,0,1-.06.28L80.5,78.9l6.09-3.52a.22.22,0,0,1,.29.07.2.2,0,0,1,0,.28L81.9,79.47l4.95-2.86a.225.225,0,0,1,.28.34l-4,3.52,4.06-2.34a.21.21,0,1,1,.26.33L85,81.14l2.64-1.53a.23.23,0,0,1,.25,0,.21.21,0,0,1,0,.25l-1,2,1.1-.63a.2.2,0,0,1,.2,0,.22.22,0,0,1,.12.16l.13,1a.2.2,0,0,1,.15.1.21.21,0,0,1-.08.29l-.14.09Z" transform="translate(0.351)"/><path class="a" d="M95.4,17.48a.22.22,0,0,1-.18-.1.21.21,0,0,1,.08-.29l.7-.41a.213.213,0,0,1,.21.37l-.7.4A.2.2,0,0,1,95.4,17.48Z" transform="translate(0.437)"/><path class="a" d="M162.14,113.65a.21.21,0,0,1-.13-.38l13.18-9.61-12.95,7.47a.2.2,0,0,1-.28-.07.21.21,0,0,1,.06-.29l10.41-6.87-10.19,5.89a.22.22,0,0,1-.28-.07.21.21,0,0,1,.06-.29L174.16,101l-11.92,6.88a.211.211,0,0,1-.22-.36l12.47-8.76-12.25,7.07a.211.211,0,1,1-.22-.36l11.08-7.42-10.86,6.27a.22.22,0,0,1-.28-.07A.21.21,0,0,1,162,104l10.63-7-10.41,6a.2.2,0,0,1-.28-.07.21.21,0,0,1,.06-.29l12.18-8.45-12,6.91a.22.22,0,0,1-.18-.1.21.21,0,0,1,.06-.29l12.35-8.63-12.13,7a.241.241,0,0,1-.28-.37l12.61-8.9-12.38,7.14a.211.211,0,1,1-.22-.36l12.14-8.41L162.24,95a.21.21,0,0,1-.24,0,.22.22,0,0,1,0-.29l13.3-9.78-13.07,7.54a.2.2,0,0,1-.28-.07.21.21,0,0,1,.06-.29l12.21-8.48-12,6.92a.22.22,0,0,1-.28-.07.21.21,0,0,1,.06-.29L174,82l-11.71,6.76a.235.235,0,0,1-.28-.36l13.23-9.69-13,7.51a.235.235,0,0,1-.28-.36l13.21-9.66-13,7.49a.2.2,0,0,1-.28-.07.21.21,0,0,1,.06-.29l11.61-7.89L162.24,82a.2.2,0,0,1-.28-.07.21.21,0,0,1,.06-.29l12.49-8.78-12.27,7.08a.21.21,0,0,1-.28-.07.22.22,0,0,1,0-.29l12.58-8.88-12.3,7.1a.231.231,0,0,1-.28-.35l13.29-9.78-13.06,7.54a.2.2,0,0,1-.28-.07.21.21,0,0,1,.06-.29l11.66-7.94-11.44,6.6a.2.2,0,0,1-.28-.07.22.22,0,0,1,0-.29L175,63.86l-12.71,7.33a.211.211,0,1,1-.22-.36l12.14-8.41L162.24,69.3a.22.22,0,0,1-.28-.07.21.21,0,0,1,.06-.29l11.7-8-11.48,6.62a.2.2,0,0,1-.28-.07.21.21,0,0,1,.06-.29l11.24-7.56-11,6.36a.2.2,0,0,1-.26,0,.22.22,0,0,1,0-.29l13.12-9.53-12.89,7.44a.235.235,0,0,1-.28-.36l13-9.4-12.78,7.38a.2.2,0,0,1-.28-.07.22.22,0,0,1,0-.29l13.29-9.77L162.24,58.6a.2.2,0,0,1-.28-.07.21.21,0,0,1,.06-.29l10.73-7.13-10.51,6.07a.211.211,0,0,1-.22-.36l11.14-7.48-10.92,6.31a.21.21,0,0,1-.28-.08.2.2,0,0,1,.06-.28l12.17-8.45-11.95,6.9a.22.22,0,0,1-.28-.07.21.21,0,0,1,.06-.29l11.69-8L162.24,52a.2.2,0,0,1-.24,0,.21.21,0,0,1,.06-.29l11.74-8-11.52,6.65a.2.2,0,0,1-.28-.07.22.22,0,0,1,0-.29l12.71-9-12.65,7.3a.22.22,0,0,1-.29-.07.21.21,0,0,1,.07-.29l11.35-7.63L161.77,46.9a.21.21,0,0,1-.29-.07.22.22,0,0,1,.06-.29l11.29-7.51-11.5,6.64a.209.209,0,0,1-.23-.35l14-10.15-14.86,8.58a.211.211,0,1,1-.22-.36L172.68,35l-13.35,7.7a.211.211,0,0,1-.22-.36l13-8.48-13.68,7.9a.211.211,0,0,1-.22-.36l13-8.63-14.1,8.14a.21.21,0,0,1-.29-.07.22.22,0,0,1,.06-.29l13-8.74-14.43,8.33a.21.21,0,0,1-.29-.07.22.22,0,0,1,.06-.29l13.09-9.06L152.94,39.6a.21.21,0,0,1-.29-.07.22.22,0,0,1,.06-.29l13.32-9.26L148,40.26a.215.215,0,0,1-.22-.37L170.1,27a.2.2,0,0,1,.28.07.22.22,0,0,1,0,.29L157,36.61l15.49-8.94a.21.21,0,0,1,.29.07.22.22,0,0,1-.06.29l-13.09,9,15.18-8.76a.211.211,0,0,1,.22.36l-12.95,8.75,14.77-8.53a.211.211,0,0,1,.22.36l-13,8.63,14.34-8.28a.211.211,0,0,1,.22.36L165.69,38.4l12.72-7.35a.211.211,0,0,1,.22.36L166,39.86l12.44-7.19a.22.22,0,0,1,.28.07.21.21,0,0,1-.05.29l-14,10.14,13.75-7.93a.211.211,0,0,1,.22.36l-11.28,7.5,11.06-6.38a.22.22,0,0,1,.29.07.21.21,0,0,1-.07.29l-11.35,7.63,11.13-6.43a.23.23,0,0,1,.29.07.22.22,0,0,1-.06.29l-12.7,9,12.47-7.2a.21.21,0,0,1,.29.07.22.22,0,0,1-.06.29l-11.75,8,11.52-6.65a.21.21,0,0,1,.29.07.22.22,0,0,1-.06.29l-11.69,8,11.46-6.62a.21.21,0,0,1,.29.07.22.22,0,0,1-.06.29L166.48,52.7l11.94-6.9a.21.21,0,0,1,.29.07.22.22,0,0,1-.06.29L167.5,53.64l10.92-6.31a.214.214,0,0,1,.23.36l-10.73,7.13,10.5-6.07a.23.23,0,0,1,.29.07.22.22,0,0,1,0,.29L165.36,58.9l13-7.54a.23.23,0,0,1,.29.07.21.21,0,0,1-.06.29l-13,9.4,12.77-7.38a.21.21,0,0,1,.29.07.2.2,0,0,1,0,.28l-13.12,9.54,12.89-7.44a.211.211,0,0,1,.22.36L167.4,64.11l11-6.36a.22.22,0,0,1,.28.07.21.21,0,0,1-.06.29l-11.7,8,11.48-6.62a.2.2,0,0,1,.28.07.21.21,0,0,1-.06.29l-12.13,8.41,11.91-6.88a.2.2,0,0,1,.28.07.22.22,0,0,1,0,.29L165.72,71l12.7-7.33a.21.21,0,0,1,.28.07.2.2,0,0,1-.06.29L167,72l11.43-6.6a.2.2,0,0,1,.28.07.22.22,0,0,1,0,.29l-13.29,9.77,13-7.53a.2.2,0,0,1,.28.07.21.21,0,0,1,0,.29l-12.58,8.88,12.35-7.13a.21.21,0,0,1,.29.07.22.22,0,0,1-.06.29l-12.5,8.78,12.27-7.08a.21.21,0,0,1,.29.07.22.22,0,0,1-.06.29L167,80.39l11.38-6.57a.21.21,0,0,1,.29.07.22.22,0,0,1-.06.29L165.4,83.84l13-7.49a.22.22,0,0,1,.29.06.21.21,0,0,1-.06.29L165.4,86.39l13-7.51a.22.22,0,0,1,.29.08.21.21,0,0,1-.06.28l-11.93,8.2,11.7-6.75a.209.209,0,0,1,.23.35l-12.22,8.49,12-6.92a.21.21,0,0,1,.29.07.22.22,0,0,1-.05.29l-13.31,9.78,13.07-7.54a.21.21,0,0,1,.29.07.2.2,0,0,1-.06.28L166.51,94l11.91-6.88a.21.21,0,0,1,.29.07.2.2,0,0,1-.06.28l-12.6,8.91,12.37-7.15a.23.23,0,0,1,.29.07.21.21,0,0,1-.06.29L166.3,98.2l12.13-7a.2.2,0,0,1,.28.07.21.21,0,0,1-.06.29L166.47,100l12-6.9a.2.2,0,0,1,.28.07.21.21,0,0,1-.06.29l-10.63,7,10.41-6a.22.22,0,0,1,.28.07.21.21,0,0,1-.06.29l-11.08,7.42L178.43,96a.214.214,0,0,1,.23.36l-12.48,8.77,12.25-7.08a.21.21,0,0,1,.28.08.2.2,0,0,1-.05.28l-12.14,8.41L178.43,100a.23.23,0,0,1,.29.07.21.21,0,0,1-.07.29l-10.41,6.87,10.19-5.88a.21.21,0,0,1,.23.35l-13.18,9.61,13-7.47a.21.21,0,0,1,.23.35l-9,6.87,8.82-5.09a.22.22,0,0,1,.27,0,.21.21,0,0,1,0,.27l-3.15,3.83,2.88-1.67a.22.22,0,0,1,.29.08.21.21,0,0,1-.08.29L174.75,111a.22.22,0,0,1-.27,0,.23.23,0,0,1,0-.27l3.15-3.82-10.74,6.19a.21.21,0,0,1-.28-.06.22.22,0,0,1,0-.29l9.05-6.87-13.47,7.77a.19.19,0,0,1-.05,0Z" transform="translate(0.815 0.248)"/><path class="a" d="M141.39,88.13a.21.21,0,0,1-.21-.23l.13-1.32-2.08,1.2a.22.22,0,0,1-.27,0,.2.2,0,0,1,0-.27l1.66-2-3.46,2a.2.2,0,0,1-.27,0,.22.22,0,0,1,0-.29L140,84.27l-5,2.91a.23.23,0,0,1-.28-.06.22.22,0,0,1,0-.29l5.09-4.5-7.7,4.44a.2.2,0,0,1-.28-.07.21.21,0,0,1,0-.29l6.32-4.61-8.11,4.68a.231.231,0,0,1-.28-.35l8.68-6.51-11.2,6.47a.211.211,0,1,1-.22-.36l9.4-6.38-11.26,6.51a.21.21,0,0,1-.29-.07.22.22,0,0,1,0-.29l13.28-9.76-14.61,8.44a.23.23,0,0,1-.29-.07.22.22,0,0,1,.06-.29l13.77-9.57-11,6.35a.21.21,0,0,1-.29-.07.22.22,0,0,1,0-.29l12.49-9.31-10.06,5.81a.214.214,0,0,1-.23-.36l10.43-7.87-8.87,5.12a.212.212,0,0,1-.24-.35l8.73-6.4-7.77,4.49a.217.217,0,0,1-.24-.36l8.39-6.32L131,69.09a.21.21,0,0,1-.23-.35l7.86-5.93-7.4,4.27A.22.22,0,0,1,131,67a.2.2,0,0,1,0-.28l8.4-6.91-8.1,4.69a.231.231,0,0,1-.28-.35l7.28-5.37-7.17,4.14a.22.22,0,0,1-.28-.06.21.21,0,0,1,0-.29l8.43-6.9-8.58,5a.23.23,0,0,1-.29-.07.22.22,0,0,1,.05-.29l8-5.94L130.35,59a.21.21,0,0,1-.28-.06.22.22,0,0,1,.05-.29l8.66-6.61-9,5.2a.2.2,0,0,1-.28-.07.21.21,0,0,1,.05-.28l9.57-7.4L129,55.38a.21.21,0,0,1-.28-.06.22.22,0,0,1,0-.29l11.06-8.32L128,53.54a.22.22,0,0,1-.29-.08.2.2,0,0,1,.07-.28L139.87,45l-12.6,7.27a.21.21,0,0,1-.29-.08.22.22,0,0,1,.07-.29L155.8,34.21,126.48,51.14a.22.22,0,0,1-.22-.37L157.7,30.62,125.23,49.37A.22.22,0,0,1,125,49l27.54-17.14L124.3,48.17a.211.211,0,1,1-.22-.36L153.34,28.9,122.89,46.48a.211.211,0,0,1-.22-.36l26.44-16.68L123.46,44.25a.211.211,0,0,1-.22-.36l24.89-16L125.74,40.86a.214.214,0,0,1-.23-.36l22-14.65L126.94,37.72a.211.211,0,0,1-.22-.36l15.85-10-15.22,8.78a.2.2,0,0,1-.28-.07.21.21,0,0,1,.06-.29l16.65-11.17L127.54,34a.2.2,0,0,1-.28-.07.22.22,0,0,1,.06-.29l13.66-9L127.54,32.4a.21.21,0,0,1-.29-.07.22.22,0,0,1,.06-.29l12.08-7.93-12,6.91a.21.21,0,0,1-.29-.07.22.22,0,0,1,.06-.29l12-8.38-12.11,7a.23.23,0,0,1-.29-.07.21.21,0,0,1,.06-.29l11-7.9-11.3,6.52a.2.2,0,0,1-.28-.07.22.22,0,0,1,.05-.29L138,18.84l-12.12,7a.2.2,0,0,1-.28-.07.21.21,0,0,1,.06-.29l10.78-7.28-11.15,6.44a.2.2,0,0,1-.28-.07.22.22,0,0,1,0-.29L138,15l-13.9,8a.21.21,0,0,1-.23-.35L138,12.46l-15,8.66a.22.22,0,0,1-.23-.37l13.55-9.11-11,6.33a.21.21,0,0,1-.28-.07.22.22,0,0,1,0-.29L137.86,8.5l-12.63,7.29a.235.235,0,0,1-.28-.36l12.82-9.14-19,11a.214.214,0,1,1-.23-.36L137,4.26,112.82,18.2a.211.211,0,1,1-.22-.36L133.68,3.9,108.86,18.23a.2.2,0,0,1-.28-.08.21.21,0,0,1,.07-.29L126.92,6.44,106.78,18.06a.211.211,0,1,1-.22-.36l20.7-13.59L103.78,17.67a.22.22,0,0,1-.29-.07.21.21,0,0,1,.07-.29l20-13.07L101.3,17.09a.22.22,0,0,1-.22-.37L118.76,5.51,99.46,16.65a.211.211,0,0,1-.22-.36l18.43-12L97.36,16a.22.22,0,0,1-.23-.37l17.29-11.3-19,11a.213.213,0,0,1-.21-.37L121,0a.211.211,0,1,1,.22.36L103.94,11.67,124.1,0a.2.2,0,0,1,.28.07.2.2,0,0,1-.06.29l-18.43,12L127.39,0a.22.22,0,0,1,.29.08.21.21,0,0,1-.07.29L109.92,11.62,130,0a.22.22,0,0,1,.29.08.22.22,0,0,1-.06.29l-20,13.06L133.48,0a.2.2,0,0,1,.28.08.2.2,0,0,1-.06.28L113,14,137.16,0a.21.21,0,0,1,.29.08.2.2,0,0,1-.07.28L119.11,11.82,139.54,0a.2.2,0,0,1,.28.07.22.22,0,0,1-.06.29L118.68,14.33,141.43,1.2a.2.2,0,0,1,.28.07.21.21,0,0,1-.06.29L123.3,14.18,141.43,3.71a.2.2,0,0,1,.28.07.21.21,0,0,1-.05.29l-12.81,9.14,12.58-7.27a.23.23,0,0,1,.29.07.22.22,0,0,1-.06.29l-12.74,9.11,12.51-7.22a.21.21,0,0,1,.29.07.22.22,0,0,1-.06.29l-13.54,9.11L141.44,10a.214.214,0,0,1,.23.36L127.56,20.49l13.88-8a.22.22,0,0,1,.28.07.21.21,0,0,1-.05.29l-12.93,9.3,12.7-7.33a.21.21,0,0,1,.29.07.22.22,0,0,1-.06.29l-10.78,7.27,10.55-6.09a.214.214,0,0,1,.23.36L130.08,25l11.37-6.56a.2.2,0,0,1,.28.07.22.22,0,0,1,0,.29l-11,7.9,12.66-7.31a.21.21,0,0,1,.28.07.22.22,0,0,1-.05.29l-12,8.39,14.05-8.11a.211.211,0,0,1,.22.36L133.7,28.35l13.54-7.81a.211.211,0,0,1,.22.36l-13.66,9,15.26-8.81a.211.211,0,0,1,.22.36L132.63,32.58l18.8-10.86a.211.211,0,0,1,.22.36l-15.85,10L153,22.17a.2.2,0,0,1,.28.07.21.21,0,0,1-.06.29l-22,14.65L155.87,23a.22.22,0,0,1,.22.37l-24.9,16,27.09-15.64a.215.215,0,0,1,.22.37L132.06,40.7,160.5,24.28a.211.211,0,0,1,.22.36L131.45,43.55l32-18.45a.21.21,0,0,1,.29.08.22.22,0,0,1-.07.29L136.09,42.61l29.34-16.94a.211.211,0,0,1,.22.36L134.21,46.19l34.11-19.7a.211.211,0,0,1,.22.36L139.8,44.58l5.24-3a.21.21,0,0,1,.29.07.22.22,0,0,1-.06.29l-12.12,8.15,9.47-5.47a.21.21,0,0,1,.23.35l-11.06,8.32,9.84-5.68a.2.2,0,0,1,.28.07.22.22,0,0,1,0,.28l-9.58,7.4,9.13-5.27a.212.212,0,0,1,.24.35L133,57l8.43-4.86a.21.21,0,0,1,.23.35l-8,5.94L141.43,54a.22.22,0,0,1,.28.07.2.2,0,0,1,0,.28l-8.44,6.9,8.2-4.73a.21.21,0,0,1,.23.35l-7.28,5.37,7.05-4.07a.22.22,0,0,1,.28.07.2.2,0,0,1,0,.28l-8.39,6.91,8.15-4.71a.21.21,0,0,1,.29.07.2.2,0,0,1-.05.28L133.81,67l7.63-4.41a.21.21,0,0,1,.28.07.22.22,0,0,1-.05.29l-8.38,6.32,8.15-4.7a.21.21,0,0,1,.23.35L133,71.32l8.49-4.9a.21.21,0,0,1,.23.35L131.3,74.64l10.19-5.89a.21.21,0,0,1,.29.07.22.22,0,0,1,0,.29l-12.49,9.31,12.25-7.07a.21.21,0,0,1,.29.07.2.2,0,0,1-.06.28l-13.76,9.57,13.54-7.82a.21.21,0,0,1,.28.07.22.22,0,0,1,0,.29L128.4,83.57l13-7.53a.211.211,0,0,1,.22.36l-9.4,6.37,9.18-5.3a.21.21,0,0,1,.28.07.22.22,0,0,1,0,.29L133,84.33l8.45-4.88a.22.22,0,0,1,.29.06.21.21,0,0,1-.06.29l-6.32,4.62,6.09-3.52a.22.22,0,0,1,.25.35l-5.09,4.5,4.84-2.8a.22.22,0,0,1,.28.06.21.21,0,0,1,0,.28l-3.11,2.88,2.86-1.65a.2.2,0,0,1,.27,0,.23.23,0,0,1,0,.28l-1.65,2,1.39-.81a.2.2,0,0,1,.22,0,.22.22,0,0,1,.1.2l-.14,1.41a.31.31,0,0,1,.11.09.22.22,0,0,1-.08.3l-.17.09a.2.2,0,0,1-.14.05Z" transform="translate(0.815)"/><path class="a" d="M41.9,78.45a.207.207,0,0,1-.12-.38l8.8-6-11,6.35a.22.22,0,0,1-.23-.37l11-7.43L39.58,76.83a.21.21,0,0,1-.29-.07.2.2,0,0,1,.05-.28L52.18,67l-12.6,7.3a.23.23,0,0,1-.29-.07.22.22,0,0,1,.05-.29l12.72-9.29L39.57,71.86a.214.214,0,0,1-.23-.36L52.21,62,39.57,69.3a.2.2,0,0,1-.28-.07.22.22,0,0,1,.05-.29l12.3-8.76-12.07,7a.21.21,0,0,1-.23-.35L52,57.61,39.57,64.76a.21.21,0,0,1-.29-.07.22.22,0,0,1,.06-.29L50.26,57,39.57,63.2a.21.21,0,0,1-.29-.07.22.22,0,0,1,.06-.29l11.48-7.9-11.25,6.5a.214.214,0,0,1-.23-.36L50,53.9l-10.46,6a.21.21,0,0,1-.29-.07.22.22,0,0,1,.06-.29l10.57-7.07-10.34,6a.214.214,0,0,1-.23-.36l11-7.38L39.57,57a.22.22,0,0,1-.23-.37l11.47-7.68L39.57,55.4a.21.21,0,0,1-.29-.07.22.22,0,0,1,.06-.29l11.81-7.76L39.57,54a.211.211,0,1,1-.22-.36l42.7-26.15L39.56,52a.2.2,0,0,1-.28-.07.21.21,0,0,1,.07-.29l41-25L39.56,50.15a.21.21,0,0,1-.29-.08.22.22,0,0,1,.08-.29L83.11,22.7,39.56,47.84a.213.213,0,0,1-.21-.37l55-32.86L39.56,46.24a.208.208,0,1,1-.21-.36L98.26,10.12,39.56,44a.21.21,0,0,1-.29-.08.22.22,0,0,1,.08-.29L93.39,11,39.56,42.05a.211.211,0,1,1-.22-.36L66.56,24l-27,15.59a.22.22,0,0,1-.29-.08.21.21,0,0,1,.07-.29l19.19-12-19,11a.21.21,0,0,1-.29-.07.22.22,0,0,1,.06-.29L55.77,26.35,39.56,35.71a.229.229,0,0,1-.28-.35l9.56-7.58-9.32,5.39a.23.23,0,0,1-.28-.06.22.22,0,0,1,0-.29l4.09-3.68-3.84,2.22a.23.23,0,0,1-.24,0,.22.22,0,0,1-.08-.22l.31-1.27a.213.213,0,1,1-.21-.37l.43-.24a.2.2,0,0,1,.23,0,.21.21,0,0,1,.08.22l-.31,1.26,5.17-3a.211.211,0,1,1,.25.34l-4.02,3.7L51.17,26a.212.212,0,0,1,.24.35L41.85,33.9,60,23.44a.21.21,0,0,1,.29.07.22.22,0,0,1-.06.29L43.75,35.22,68.29,21.05a.211.211,0,1,1,.22.36L49.32,33.46l24-13.86a.22.22,0,0,1,.29.08.21.21,0,0,1-.07.29L46.32,37.66,111.48,0a.2.2,0,0,1,.28.08.21.21,0,0,1-.07.29l-54,32.67L114.87,0a.21.21,0,0,1,.29.08.21.21,0,0,1-.07.29L56.17,36.16,118.74,0a.21.21,0,0,1,.29.07.23.23,0,0,1-.07.3L64,33.27,95,15.38a.211.211,0,1,1,.22.36L51.39,42.83,95.18,17.54a.22.22,0,0,1,.22.37l-41,25L96.1,18.83a.22.22,0,0,1,.22.37L53.64,45.35l3.67-2.11a.211.211,0,0,1,.22.36l-11.8,7.75,10.38-6a.22.22,0,0,1,.29.07.21.21,0,0,1-.07.29L44.87,53.4l10.62-6.13a.21.21,0,0,1,.29.07.22.22,0,0,1-.06.29L44.74,55,55.3,48.9a.214.214,0,0,1,.23.36L45,56.34l10.3-6a.21.21,0,0,1,.28.08.2.2,0,0,1-.06.28L44.8,57.93l10.46-6a.2.2,0,0,1,.28.07.21.21,0,0,1-.06.29L44,60.15l11.26-6.5a.21.21,0,0,1,.28.07.2.2,0,0,1-.06.29L44.57,61.38l10.69-6.17a.22.22,0,0,1,.28.07.21.21,0,0,1,0,.29L42.87,64.73l12.39-7.15a.23.23,0,0,1,.29.07.22.22,0,0,1-.06.29L43.2,66.7l12.06-7a.21.21,0,0,1,.29.07.2.2,0,0,1,0,.28L42.62,69.6l12.65-7.3a.235.235,0,0,1,.28.36L42.78,72l12.49-7.21a.21.21,0,0,1,.28.06.22.22,0,0,1,0,.29L42.67,74.55l12.6-7.27a.21.21,0,0,1,.29.07.22.22,0,0,1-.06.29l-11,7.44,10.76-6.22a.214.214,0,0,1,.23.36l-8.8,6,8.57-5a.22.22,0,0,1,.29.07.21.21,0,0,1-.05.28L49,75.88l6.27-3.62a.22.22,0,0,1,.27,0,.23.23,0,0,1,0,.28l-2.8,3.15,2.54-1.46a.21.21,0,0,1,.23,0,.2.2,0,0,1,.08.21l-.21,1.13a.22.22,0,0,1,.19.1.21.21,0,0,1-.08.29l-.3.18a.24.24,0,0,1-.23,0,.21.21,0,0,1-.08-.22l.21-1.09-3.27,1.89a.21.21,0,0,1-.27,0,.23.23,0,0,1,0-.28l2.8-3.15L46.88,77.6a.212.212,0,1,1-.24-.35L53.14,72,42,78.43Z" transform="translate(0.324)"/><path class="a" d="M76,18.86a.214.214,0,0,1-.12-.39L97.78,4,76.09,16.56a.214.214,0,1,1-.23-.36L94.26,4.11,76.09,14.61a.22.22,0,0,1-.29-.08.21.21,0,0,1,.06-.28l15.28-10L76.09,13a.214.214,0,0,1-.23-.36L89.79,2.78l-13.7,7.91a.21.21,0,0,1-.29-.07.2.2,0,0,1,0-.28L86.71,2.46,76.09,8.6a.23.23,0,0,1-.29-.07.21.21,0,0,1,.06-.29l7.79-5.52L76.09,7.09A.23.23,0,0,1,75.81,7a.22.22,0,0,1,0-.29l6-5.25L76.09,4.8a.22.22,0,0,1-.28-.06.2.2,0,0,1,0-.28l3.31-3.14-3,1.76a.22.22,0,0,1-.22,0,.2.2,0,0,1-.1-.2L76,.58a.25.25,0,0,1-.16-.11.22.22,0,0,1,.08-.29l.21-.12a.22.22,0,0,1,.22,0,.21.21,0,0,1,.1.2l-.18,2.25L80.48.06a.2.2,0,0,1,.27.05.2.2,0,0,1,0,.28l-3.3,3.14,6-3.48a.229.229,0,0,1,.28.35l-6,5.25L87.42.05a.22.22,0,0,1,.28.07.22.22,0,0,1,0,.29L79.9,5.93,90,.05a.22.22,0,0,1,.29.07.22.22,0,0,1,0,.29L79.41,8.28,93.67.05A.2.2,0,0,1,94,.12a.21.21,0,0,1-.06.29L80,10.23,97.58.05a.21.21,0,0,1,.29.07.22.22,0,0,1-.06.29l-15.28,10L100.45.05a.21.21,0,0,1,.29.07.22.22,0,0,1-.06.29L82.27,12.49,103.84.05a.2.2,0,0,1,.28.07.21.21,0,0,1-.06.29L82.14,14.84,107.77,0a.21.21,0,0,1,.29.08.21.21,0,0,1-.07.29L76.09,18.83a.23.23,0,0,1-.09.03Z" transform="translate(0.422)"/><path class="a" d="M64.81,65.37a.23.23,0,0,1-.17-.37l4.7-4.18-6.59,3.8a.229.229,0,0,1-.28-.35l5.67-4.44-7.69,4.45a.23.23,0,0,1-.29-.07.21.21,0,0,1,.05-.28l7.82-6.29L58.81,63a.231.231,0,0,1-.28-.35L67.37,56l-7.5,4.33a.22.22,0,0,1-.29-.06.21.21,0,0,1,.06-.29l6.91-5-6.23,3.59a.21.21,0,0,1-.24-.34l7-5.84L60.72,56a.21.21,0,0,1-.28-.06.2.2,0,0,1,0-.28l5.12-4.19-4.68,2.7a.21.21,0,0,1-.26,0,.23.23,0,0,1,0-.26l2.18-3.33-.69.4a.2.2,0,0,1-.29-.08.21.21,0,0,1,.07-.29l1.47-.84a.21.21,0,0,1,.26,0,.23.23,0,0,1,0,.27l-2.18,3.32,6.17-3.56a.21.21,0,0,1,.28.06.22.22,0,0,1,0,.29l-5.12,4.18L69,50.73a.22.22,0,0,1,.28.07.2.2,0,0,1,0,.28l-7,5.84,7.64-4.41a.214.214,0,0,1,.23.36l-6.91,5,6.88-4a.2.2,0,0,1,.28.07.21.21,0,0,1,0,.28L61.51,61l8.77-5.07a.22.22,0,0,1,.28.07.19.19,0,0,1,0,.28L62.7,62.52,70.61,58a.229.229,0,0,1,.28.35l-5.67,4.44L71,59.41a.225.225,0,0,1,.28.34l-4.7,4.18,5-2.87a.2.2,0,0,1,.24,0,.22.22,0,0,1,.07.23L71,63.61l1.3-.74a.21.21,0,0,1,.29.07.22.22,0,0,1-.08.29l-1.79,1A.206.206,0,0,1,70.4,64l.81-2.3-6.29,3.63a.2.2,0,0,1-.11.04Z" transform="translate(0.29 0.249)"/><path class="a" d="M150.92,65.37a.23.23,0,0,1-.17-.37l4.7-4.18-6.59,3.8a.212.212,0,1,1-.24-.35l5.67-4.44-7.7,4.45a.231.231,0,0,1-.28-.35l7.83-6.29L144.92,63a.214.214,0,1,1-.23-.36L153.48,56,146,60.3a.214.214,0,0,1-.23-.36l6.92-5-6.24,3.6a.231.231,0,0,1-.28-.35l7-5.84L146.82,56a.212.212,0,1,1-.24-.35l5.12-4.19L147,54.17a.21.21,0,0,1-.26,0,.22.22,0,0,1,0-.27l2.19-3.33-.7.4a.213.213,0,1,1-.21-.37l1.47-.84a.21.21,0,0,1,.28.3l-2.18,3.33,6.18-3.57a.21.21,0,0,1,.28.06.22.22,0,0,1,0,.29l-5.13,4.18,6.22-3.59a.22.22,0,0,1,.28.07.2.2,0,0,1,0,.28l-7,5.84L156,52.51a.214.214,0,0,1,.23.36l-6.91,5,6.87-4a.213.213,0,0,1,.24.35L147.63,61l8.76-5.07a.22.22,0,0,1,.28.07.2.2,0,0,1,0,.28l-7.83,6.3L156.72,58a.2.2,0,1,1,.28.29l-5.67,4.44,5.78-3.34a.225.225,0,0,1,.28.34l-4.7,4.18,5-2.88a.21.21,0,0,1,.24,0,.2.2,0,0,1,.07.23l-.81,2.3,1.3-.75a.22.22,0,0,1,.29.08.21.21,0,0,1-.08.29l-1.79,1a.25.25,0,0,1-.25,0,.22.22,0,0,1-.06-.24l.81-2.3L151,65.34A.2.2,0,0,1,150.92,65.37Z" transform="translate(0.815 0.249)"/><path class="a" d="M150.92,88a.23.23,0,0,1-.17-.37l4.7-4.18-6.59,3.8a.212.212,0,1,1-.24-.35l5.67-4.44-7.7,4.45a.231.231,0,0,1-.28-.35l7.83-6.29-9.29,5.36a.214.214,0,0,1-.23-.36l8.79-6.68L146,82.9a.214.214,0,0,1-.23-.36l6.91-5-6.23,3.6a.231.231,0,0,1-.28-.35l7-5.84-6.36,3.67a.229.229,0,0,1-.28-.35l5.12-4.19L147,76.77a.21.21,0,0,1-.26,0,.22.22,0,0,1,0-.27l2.19-3.33-.69.4a.215.215,0,1,1-.22-.37l1.47-.84a.21.21,0,0,1,.26,0,.23.23,0,0,1,0,.27L147.59,76l6.18-3.57a.21.21,0,0,1,.28.06.22.22,0,0,1,0,.29l-5.13,4.19,6.22-3.6a.22.22,0,0,1,.28.07.2.2,0,0,1,0,.28l-7,5.84L156,75.11a.21.21,0,0,1,.29.07.22.22,0,0,1-.06.29l-6.91,5,6.87-4a.21.21,0,0,1,.29.07.2.2,0,0,1-.05.28l-8.8,6.69,8.77-5.06a.21.21,0,0,1,.28.06.22.22,0,0,1,0,.29l-7.83,6.29,7.92-4.57a.21.21,0,0,1,.28.06.23.23,0,0,1,0,.29l-5.67,4.44L157.07,82a.225.225,0,0,1,.28.34l-4.7,4.18,5-2.87a.2.2,0,0,1,.24,0,.22.22,0,0,1,.07.23l-.81,2.3,1.3-.75a.22.22,0,0,1,.29.08.21.21,0,0,1-.08.29l-1.79,1a.23.23,0,0,1-.25,0,.22.22,0,0,1-.06-.24l.8-2.3L151,87.94A.2.2,0,0,1,150.92,88Z" transform="translate(0.815 0.362)"/><path class="a" d="M88.3,82.87a.15.15,0,0,1-.09,0,.22.22,0,0,1-.12-.16L88,81.77l-1.42.82a.23.23,0,0,1-.25,0,.22.22,0,0,1,0-.25l1-2-3.28,1.89a.22.22,0,0,1-.27,0,.23.23,0,0,1,0-.28l2.51-2.68-4.64,2.67a.222.222,0,0,1-.27-.34l4-3.52-6.12,3.53a.214.214,0,0,1-.23-.36l4.93-3.73-6.61,3.82a.2.2,0,0,1-.28-.07.21.21,0,0,1,0-.29l6.06-4.41-7,4a.23.23,0,0,1-.29-.07.21.21,0,0,1,.06-.29l6.42-4.54-6.19,3.58a.22.22,0,0,1-.29-.07.21.21,0,0,1,.06-.29l6.37-4.53-6.14,3.55a.22.22,0,0,1-.29-.07.21.21,0,0,1,0-.28l7.65-6.2-7.41,4.28a.232.232,0,0,1-.29-.35l7.33-5.82-7.09,4.09a.212.212,0,0,1-.24-.35l6.63-5L76.03,71.9a.22.22,0,0,1-.29-.06.23.23,0,0,1,0-.29l7.54-6.23-7.29,4.21a.21.21,0,0,1-.29-.07.2.2,0,0,1,0-.28l6.56-4.86L76.09,68a.234.234,0,0,1-.29-.35L83,62.13l-7,4a.214.214,0,0,1-.23-.36l7.69-5.9-7.45,4.3a.212.212,0,0,1-.24-.35l9-7.11-8.76,5.05a.231.231,0,0,1-.28-.35L87,52.87,76.08,59.16a.2.2,0,0,1-.28-.07.22.22,0,0,1,.06-.29L87,51.35l-10.9,6.3a.23.23,0,0,1-.29-.07.21.21,0,0,1,.06-.29L92.06,46l-16,9.22a.21.21,0,0,1-.29-.07.22.22,0,0,1,.06-.29l13-8.46L76.09,53.82a.23.23,0,0,1-.29-.07.22.22,0,0,1,.06-.29l13.2-8.75-13,7.49a.22.22,0,0,1-.28-.07.21.21,0,0,1,.06-.29l13.85-9.57L76.08,50.14a.211.211,0,0,1-.22-.36l12-8L76,48.68a.214.214,0,0,1-.23-.36l13.2-9.18L75.62,46.83a.2.2,0,0,1-.28-.07.21.21,0,0,1,.06-.29l12.86-8.79L75.07,45.29a.2.2,0,0,1-.28-.07.21.21,0,0,1,.06-.29l13.48-9.28L74.17,43.82a.211.211,0,0,1-.22-.36L86.79,35,73.33,42.78a.211.211,0,0,1-.22-.36L88.63,31.83,71.92,41.48a.21.21,0,0,1-.29-.07.22.22,0,0,1,.06-.29l17.75-12L70,40.33a.21.21,0,0,1-.29-.07.22.22,0,0,1,.06-.29L90.35,26.39,67.47,39.6a.21.21,0,0,1-.29-.07.22.22,0,0,1,.06-.29l24-16-29.45,17a.213.213,0,0,1-.21-.37L96.8,19.56a.22.22,0,0,1,.29.07.21.21,0,0,1-.07.29l-24,16L96.37,22.43a.2.2,0,0,1,.28.07.21.21,0,0,1-.06.29L76,36.37,94.33,25.78a.21.21,0,0,1,.29.07.22.22,0,0,1-.06.29l-17.75,12,16.51-9.53a.23.23,0,0,1,.29.07.22.22,0,0,1-.06.29L78,39.58,92.9,31a.214.214,0,0,1,.23.36L80.28,39.8l12.47-7.2A.236.236,0,0,1,93,33L79.5,42.25l13.38-7.73a.21.21,0,0,1,.29.07.22.22,0,0,1-.06.29L80.25,43.67l12.86-7.43a.21.21,0,0,1,.28.08.2.2,0,0,1,0,.28L80.13,45.78,93.59,38a.22.22,0,0,1,.22.37l-12,8L94,39.28a.214.214,0,0,1,.23.36L80.42,49.2l14.39-8.3a.2.2,0,0,1,.28.07.21.21,0,0,1-.06.29L81.83,50l13.71-7.92a.214.214,0,0,1,.23.36l-13,8.46,13.5-7.79a.21.21,0,0,1,.29.07.22.22,0,0,1-.06.29L80.29,54.73l12-7a.21.21,0,0,1,.28.08.2.2,0,0,1-.06.28l-11.08,7.5,8.14-4.71a.22.22,0,0,1,.28.07.21.21,0,0,1,0,.29L78.67,59.8l8.47-4.89a.21.21,0,0,1,.28.06.22.22,0,0,1,0,.29l-9,7.11,7.74-4.47a.23.23,0,0,1,.29.07.2.2,0,0,1,0,.28l-7.69,5.91,7-4a.231.231,0,0,1,.28.35L78.72,66l6.71-3.88a.23.23,0,0,1,.29.07.21.21,0,0,1-.06.29L79.1,67.31l6.26-3.62a.234.234,0,0,1,.29.35l-7.54,6.23,7.29-4.2a.21.21,0,0,1,.28.06.22.22,0,0,1,0,.29l-6.62,5,6.49-3.75a.2.2,0,0,1,.28.07.22.22,0,0,1,0,.28l-7.34,5.83,7.26-4.2a.23.23,0,0,1,.29.07.21.21,0,0,1,0,.28l-7.65,6.2,7.71-4.45a.21.21,0,0,1,.29.07.22.22,0,0,1-.06.29L79.77,76.6,86.1,73a.231.231,0,0,1,.28.35L79.9,77.84l6.43-3.71a.21.21,0,0,1,.29.07.2.2,0,0,1-.06.28L80.5,78.9l6.09-3.52a.22.22,0,0,1,.29.07.2.2,0,0,1,0,.28L81.9,79.47l4.95-2.86a.225.225,0,0,1,.28.34l-4,3.52,4.06-2.34a.21.21,0,1,1,.26.33L85,81.14l2.64-1.53a.23.23,0,0,1,.25,0,.21.21,0,0,1,0,.25l-1,2,1.1-.63a.2.2,0,0,1,.2,0,.22.22,0,0,1,.12.16l.13,1a.2.2,0,0,1,.15.1.21.21,0,0,1-.08.29l-.14.09Z" transform="translate(0.351)"/><path class="a" d="M95.4,17.48a.22.22,0,0,1-.18-.1.21.21,0,0,1,.08-.29l.7-.41a.213.213,0,0,1,.21.37l-.7.4A.2.2,0,0,1,95.4,17.48Z" transform="translate(0.437)"/><path class="a" d="M162.14,113.65a.21.21,0,0,1-.13-.38l13.18-9.61-12.95,7.47a.2.2,0,0,1-.28-.07.21.21,0,0,1,.06-.29l10.41-6.87-10.19,5.89a.22.22,0,0,1-.28-.07.21.21,0,0,1,.06-.29L174.16,101l-11.92,6.88a.211.211,0,0,1-.22-.36l12.47-8.76-12.25,7.07a.211.211,0,1,1-.22-.36l11.08-7.42-10.86,6.27a.22.22,0,0,1-.28-.07A.21.21,0,0,1,162,104l10.63-7-10.41,6a.2.2,0,0,1-.28-.07.21.21,0,0,1,.06-.29l12.18-8.45-12,6.91a.22.22,0,0,1-.18-.1.21.21,0,0,1,.06-.29l12.35-8.63-12.13,7a.241.241,0,0,1-.28-.37l12.61-8.9-12.38,7.14a.211.211,0,1,1-.22-.36l12.14-8.41L162.24,95a.21.21,0,0,1-.24,0,.22.22,0,0,1,0-.29l13.3-9.78-13.07,7.54a.2.2,0,0,1-.28-.07.21.21,0,0,1,.06-.29l12.21-8.48-12,6.92a.22.22,0,0,1-.28-.07.21.21,0,0,1,.06-.29L174,82l-11.71,6.76a.235.235,0,0,1-.28-.36l13.23-9.69-13,7.51a.235.235,0,0,1-.28-.36l13.21-9.66-13,7.49a.2.2,0,0,1-.28-.07.21.21,0,0,1,.06-.29l11.61-7.89L162.24,82a.2.2,0,0,1-.28-.07.21.21,0,0,1,.06-.29l12.49-8.78-12.27,7.08a.21.21,0,0,1-.28-.07.22.22,0,0,1,0-.29l12.58-8.88-12.3,7.1a.231.231,0,0,1-.28-.35l13.29-9.78-13.06,7.54a.2.2,0,0,1-.28-.07.21.21,0,0,1,.06-.29l11.66-7.94-11.44,6.6a.2.2,0,0,1-.28-.07.22.22,0,0,1,0-.29L175,63.86l-12.71,7.33a.211.211,0,1,1-.22-.36l12.14-8.41L162.24,69.3a.22.22,0,0,1-.28-.07.21.21,0,0,1,.06-.29l11.7-8-11.48,6.62a.2.2,0,0,1-.28-.07.21.21,0,0,1,.06-.29l11.24-7.56-11,6.36a.2.2,0,0,1-.26,0,.22.22,0,0,1,0-.29l13.12-9.53-12.89,7.44a.235.235,0,0,1-.28-.36l13-9.4-12.78,7.38a.2.2,0,0,1-.28-.07.22.22,0,0,1,0-.29l13.29-9.77L162.24,58.6a.2.2,0,0,1-.28-.07.21.21,0,0,1,.06-.29l10.73-7.13-10.51,6.07a.211.211,0,0,1-.22-.36l11.14-7.48-10.92,6.31a.21.21,0,0,1-.28-.08.2.2,0,0,1,.06-.28l12.17-8.45-11.95,6.9a.22.22,0,0,1-.28-.07.21.21,0,0,1,.06-.29l11.69-8L162.24,52a.2.2,0,0,1-.24,0,.21.21,0,0,1,.06-.29l11.74-8-11.52,6.65a.2.2,0,0,1-.28-.07.22.22,0,0,1,0-.29l12.71-9-12.65,7.3a.22.22,0,0,1-.29-.07.21.21,0,0,1,.07-.29l11.35-7.63L161.77,46.9a.21.21,0,0,1-.29-.07.22.22,0,0,1,.06-.29l11.29-7.51-11.5,6.64a.209.209,0,0,1-.23-.35l14-10.15-14.86,8.58a.211.211,0,1,1-.22-.36L172.68,35l-13.35,7.7a.211.211,0,0,1-.22-.36l13-8.48-13.68,7.9a.211.211,0,0,1-.22-.36l13-8.63-14.1,8.14a.21.21,0,0,1-.29-.07.22.22,0,0,1,.06-.29l13-8.74-14.43,8.33a.21.21,0,0,1-.29-.07.22.22,0,0,1,.06-.29l13.09-9.06L152.94,39.6a.21.21,0,0,1-.29-.07.22.22,0,0,1,.06-.29l13.32-9.26L148,40.26a.215.215,0,0,1-.22-.37L170.1,27a.2.2,0,0,1,.28.07.22.22,0,0,1,0,.29L157,36.61l15.49-8.94a.21.21,0,0,1,.29.07.22.22,0,0,1-.06.29l-13.09,9,15.18-8.76a.211.211,0,0,1,.22.36l-12.95,8.75,14.77-8.53a.211.211,0,0,1,.22.36l-13,8.63,14.34-8.28a.211.211,0,0,1,.22.36L165.69,38.4l12.72-7.35a.211.211,0,0,1,.22.36L166,39.86l12.44-7.19a.22.22,0,0,1,.28.07.21.21,0,0,1-.05.29l-14,10.14,13.75-7.93a.211.211,0,0,1,.22.36l-11.28,7.5,11.06-6.38a.22.22,0,0,1,.29.07.21.21,0,0,1-.07.29l-11.35,7.63,11.13-6.43a.23.23,0,0,1,.29.07.22.22,0,0,1-.06.29l-12.7,9,12.47-7.2a.21.21,0,0,1,.29.07.22.22,0,0,1-.06.29l-11.75,8,11.52-6.65a.21.21,0,0,1,.29.07.22.22,0,0,1-.06.29l-11.69,8,11.46-6.62a.21.21,0,0,1,.29.07.22.22,0,0,1-.06.29L166.48,52.7l11.94-6.9a.21.21,0,0,1,.29.07.22.22,0,0,1-.06.29L167.5,53.64l10.92-6.31a.214.214,0,0,1,.23.36l-10.73,7.13,10.5-6.07a.23.23,0,0,1,.29.07.22.22,0,0,1,0,.29L165.36,58.9l13-7.54a.23.23,0,0,1,.29.07.21.21,0,0,1-.06.29l-13,9.4,12.77-7.38a.21.21,0,0,1,.29.07.2.2,0,0,1,0,.28l-13.12,9.54,12.89-7.44a.211.211,0,0,1,.22.36L167.4,64.11l11-6.36a.22.22,0,0,1,.28.07.21.21,0,0,1-.06.29l-11.7,8,11.48-6.62a.2.2,0,0,1,.28.07.21.21,0,0,1-.06.29l-12.13,8.41,11.91-6.88a.2.2,0,0,1,.28.07.22.22,0,0,1,0,.29L165.72,71l12.7-7.33a.21.21,0,0,1,.28.07.2.2,0,0,1-.06.29L167,72l11.43-6.6a.2.2,0,0,1,.28.07.22.22,0,0,1,0,.29l-13.29,9.77,13-7.53a.2.2,0,0,1,.28.07.21.21,0,0,1,0,.29l-12.58,8.88,12.35-7.13a.21.21,0,0,1,.29.07.22.22,0,0,1-.06.29l-12.5,8.78,12.27-7.08a.21.21,0,0,1,.29.07.22.22,0,0,1-.06.29L167,80.39l11.38-6.57a.21.21,0,0,1,.29.07.22.22,0,0,1-.06.29L165.4,83.84l13-7.49a.22.22,0,0,1,.29.06.21.21,0,0,1-.06.29L165.4,86.39l13-7.51a.22.22,0,0,1,.29.08.21.21,0,0,1-.06.28l-11.93,8.2,11.7-6.75a.209.209,0,0,1,.23.35l-12.22,8.49,12-6.92a.21.21,0,0,1,.29.07.22.22,0,0,1-.05.29l-13.31,9.78,13.07-7.54a.21.21,0,0,1,.29.07.2.2,0,0,1-.06.28L166.51,94l11.91-6.88a.21.21,0,0,1,.29.07.2.2,0,0,1-.06.28l-12.6,8.91,12.37-7.15a.23.23,0,0,1,.29.07.21.21,0,0,1-.06.29L166.3,98.2l12.13-7a.2.2,0,0,1,.28.07.21.21,0,0,1-.06.29L166.47,100l12-6.9a.2.2,0,0,1,.28.07.21.21,0,0,1-.06.29l-10.63,7,10.41-6a.22.22,0,0,1,.28.07.21.21,0,0,1-.06.29l-11.08,7.42L178.43,96a.214.214,0,0,1,.23.36l-12.48,8.77,12.25-7.08a.21.21,0,0,1,.28.08.2.2,0,0,1-.05.28l-12.14,8.41L178.43,100a.23.23,0,0,1,.29.07.21.21,0,0,1-.07.29l-10.41,6.87,10.19-5.88a.21.21,0,0,1,.23.35l-13.18,9.61,13-7.47a.21.21,0,0,1,.23.35l-9,6.87,8.82-5.09a.22.22,0,0,1,.27,0,.21.21,0,0,1,0,.27l-3.15,3.83,2.88-1.67a.22.22,0,0,1,.29.08.21.21,0,0,1-.08.29L174.75,111a.22.22,0,0,1-.27,0,.23.23,0,0,1,0-.27l3.15-3.82-10.74,6.19a.21.21,0,0,1-.28-.06.22.22,0,0,1,0-.29l9.05-6.87-13.47,7.77a.19.19,0,0,1-.05,0Z" transform="translate(0.815 0.248)"/><path class="a" d="M141.39,88.13a.21.21,0,0,1-.21-.23l.13-1.32-2.08,1.2a.22.22,0,0,1-.27,0,.2.2,0,0,1,0-.27l1.66-2-3.46,2a.2.2,0,0,1-.27,0,.22.22,0,0,1,0-.29L140,84.27l-5,2.91a.23.23,0,0,1-.28-.06.22.22,0,0,1,0-.29l5.09-4.5-7.7,4.44a.2.2,0,0,1-.28-.07.21.21,0,0,1,0-.29l6.32-4.61-8.11,4.68a.231.231,0,0,1-.28-.35l8.68-6.51-11.2,6.47a.211.211,0,1,1-.22-.36l9.4-6.38-11.26,6.51a.21.21,0,0,1-.29-.07.22.22,0,0,1,0-.29l13.28-9.76-14.61,8.44a.23.23,0,0,1-.29-.07.22.22,0,0,1,.06-.29l13.77-9.57-11,6.35a.21.21,0,0,1-.29-.07.22.22,0,0,1,0-.29l12.49-9.31-10.06,5.81a.214.214,0,0,1-.23-.36l10.43-7.87-8.87,5.12a.212.212,0,0,1-.24-.35l8.73-6.4-7.77,4.49a.217.217,0,0,1-.24-.36l8.39-6.32L131,69.09a.21.21,0,0,1-.23-.35l7.86-5.93-7.4,4.27A.22.22,0,0,1,131,67a.2.2,0,0,1,0-.28l8.4-6.91-8.1,4.69a.231.231,0,0,1-.28-.35l7.28-5.37-7.17,4.14a.22.22,0,0,1-.28-.06.21.21,0,0,1,0-.29l8.43-6.9-8.58,5a.23.23,0,0,1-.29-.07.22.22,0,0,1,.05-.29l8-5.94L130.35,59a.21.21,0,0,1-.28-.06.22.22,0,0,1,.05-.29l8.66-6.61-9,5.2a.2.2,0,0,1-.28-.07.21.21,0,0,1,.05-.28l9.57-7.4L129,55.38a.21.21,0,0,1-.28-.06.22.22,0,0,1,0-.29l11.06-8.32L128,53.54a.22.22,0,0,1-.29-.08.2.2,0,0,1,.07-.28L139.87,45l-12.6,7.27a.21.21,0,0,1-.29-.08.22.22,0,0,1,.07-.29L155.8,34.21,126.48,51.14a.22.22,0,0,1-.22-.37L157.7,30.62,125.23,49.37A.22.22,0,0,1,125,49l27.54-17.14L124.3,48.17a.211.211,0,1,1-.22-.36L153.34,28.9,122.89,46.48a.211.211,0,0,1-.22-.36l26.44-16.68L123.46,44.25a.211.211,0,0,1-.22-.36l24.89-16L125.74,40.86a.214.214,0,0,1-.23-.36l22-14.65L126.94,37.72a.211.211,0,0,1-.22-.36l15.85-10-15.22,8.78a.2.2,0,0,1-.28-.07.21.21,0,0,1,.06-.29l16.65-11.17L127.54,34a.2.2,0,0,1-.28-.07.22.22,0,0,1,.06-.29l13.66-9L127.54,32.4a.21.21,0,0,1-.29-.07.22.22,0,0,1,.06-.29l12.08-7.93-12,6.91a.21.21,0,0,1-.29-.07.22.22,0,0,1,.06-.29l12-8.38-12.11,7a.23.23,0,0,1-.29-.07.21.21,0,0,1,.06-.29l11-7.9-11.3,6.52a.2.2,0,0,1-.28-.07.22.22,0,0,1,.05-.29L138,18.84l-12.12,7a.2.2,0,0,1-.28-.07.21.21,0,0,1,.06-.29l10.78-7.28-11.15,6.44a.2.2,0,0,1-.28-.07.22.22,0,0,1,0-.29L138,15l-13.9,8a.21.21,0,0,1-.23-.35L138,12.46l-15,8.66a.22.22,0,0,1-.23-.37l13.55-9.11-11,6.33a.21.21,0,0,1-.28-.07.22.22,0,0,1,0-.29L137.86,8.5l-12.63,7.29a.235.235,0,0,1-.28-.36l12.82-9.14-19,11a.214.214,0,1,1-.23-.36L137,4.26,112.82,18.2a.211.211,0,1,1-.22-.36L133.68,3.9,108.86,18.23a.2.2,0,0,1-.28-.08.21.21,0,0,1,.07-.29L126.92,6.44,106.78,18.06a.211.211,0,1,1-.22-.36l20.7-13.59L103.78,17.67a.22.22,0,0,1-.29-.07.21.21,0,0,1,.07-.29l20-13.07L101.3,17.09a.22.22,0,0,1-.22-.37L118.76,5.51,99.46,16.65a.211.211,0,0,1-.22-.36l18.43-12L97.36,16a.22.22,0,0,1-.23-.37l17.29-11.3-19,11a.213.213,0,0,1-.21-.37L121,0a.211.211,0,1,1,.22.36L103.94,11.67,124.1,0a.2.2,0,0,1,.28.07.2.2,0,0,1-.06.29l-18.43,12L127.39,0a.22.22,0,0,1,.29.08.21.21,0,0,1-.07.29L109.92,11.62,130,0a.22.22,0,0,1,.29.08.22.22,0,0,1-.06.29l-20,13.06L133.48,0a.2.2,0,0,1,.28.08.2.2,0,0,1-.06.28L113,14,137.16,0a.21.21,0,0,1,.29.08.2.2,0,0,1-.07.28L119.11,11.82,139.54,0a.2.2,0,0,1,.28.07.22.22,0,0,1-.06.29L118.68,14.33,141.43,1.2a.2.2,0,0,1,.28.07.21.21,0,0,1-.06.29L123.3,14.18,141.43,3.71a.2.2,0,0,1,.28.07.21.21,0,0,1-.05.29l-12.81,9.14,12.58-7.27a.23.23,0,0,1,.29.07.22.22,0,0,1-.06.29l-12.74,9.11,12.51-7.22a.21.21,0,0,1,.29.07.22.22,0,0,1-.06.29l-13.54,9.11L141.44,10a.214.214,0,0,1,.23.36L127.56,20.49l13.88-8a.22.22,0,0,1,.28.07.21.21,0,0,1-.05.29l-12.93,9.3,12.7-7.33a.21.21,0,0,1,.29.07.22.22,0,0,1-.06.29l-10.78,7.27,10.55-6.09a.214.214,0,0,1,.23.36L130.08,25l11.37-6.56a.2.2,0,0,1,.28.07.22.22,0,0,1,0,.29l-11,7.9,12.66-7.31a.21.21,0,0,1,.28.07.22.22,0,0,1-.05.29l-12,8.39,14.05-8.11a.211.211,0,0,1,.22.36L133.7,28.35l13.54-7.81a.211.211,0,0,1,.22.36l-13.66,9,15.26-8.81a.211.211,0,0,1,.22.36L132.63,32.58l18.8-10.86a.211.211,0,0,1,.22.36l-15.85,10L153,22.17a.2.2,0,0,1,.28.07.21.21,0,0,1-.06.29l-22,14.65L155.87,23a.22.22,0,0,1,.22.37l-24.9,16,27.09-15.64a.215.215,0,0,1,.22.37L132.06,40.7,160.5,24.28a.211.211,0,0,1,.22.36L131.45,43.55l32-18.45a.21.21,0,0,1,.29.08.22.22,0,0,1-.07.29L136.09,42.61l29.34-16.94a.211.211,0,0,1,.22.36L134.21,46.19l34.11-19.7a.211.211,0,0,1,.22.36L139.8,44.58l5.24-3a.21.21,0,0,1,.29.07.22.22,0,0,1-.06.29l-12.12,8.15,9.47-5.47a.21.21,0,0,1,.23.35l-11.06,8.32,9.84-5.68a.2.2,0,0,1,.28.07.22.22,0,0,1,0,.28l-9.58,7.4,9.13-5.27a.212.212,0,0,1,.24.35L133,57l8.43-4.86a.21.21,0,0,1,.23.35l-8,5.94L141.43,54a.22.22,0,0,1,.28.07.2.2,0,0,1,0,.28l-8.44,6.9,8.2-4.73a.21.21,0,0,1,.23.35l-7.28,5.37,7.05-4.07a.22.22,0,0,1,.28.07.2.2,0,0,1,0,.28l-8.39,6.91,8.15-4.71a.21.21,0,0,1,.29.07.2.2,0,0,1-.05.28L133.81,67l7.63-4.41a.21.21,0,0,1,.28.07.22.22,0,0,1-.05.29l-8.38,6.32,8.15-4.7a.21.21,0,0,1,.23.35L133,71.32l8.49-4.9a.21.21,0,0,1,.23.35L131.3,74.64l10.19-5.89a.21.21,0,0,1,.29.07.22.22,0,0,1,0,.29l-12.49,9.31,12.25-7.07a.21.21,0,0,1,.29.07.2.2,0,0,1-.06.28l-13.76,9.57,13.54-7.82a.21.21,0,0,1,.28.07.22.22,0,0,1,0,.29L128.4,83.57l13-7.53a.211.211,0,0,1,.22.36l-9.4,6.37,9.18-5.3a.21.21,0,0,1,.28.07.22.22,0,0,1,0,.29L133,84.33l8.45-4.88a.22.22,0,0,1,.29.06.21.21,0,0,1-.06.29l-6.32,4.62,6.09-3.52a.22.22,0,0,1,.25.35l-5.09,4.5,4.84-2.8a.22.22,0,0,1,.28.06.21.21,0,0,1,0,.28l-3.11,2.88,2.86-1.65a.2.2,0,0,1,.27,0,.23.23,0,0,1,0,.28l-1.65,2,1.39-.81a.2.2,0,0,1,.22,0,.22.22,0,0,1,.1.2l-.14,1.41a.31.31,0,0,1,.11.09.22.22,0,0,1-.08.3l-.17.09a.2.2,0,0,1-.14.05Z" transform="translate(0.815)"/><path class="a" d="M41.9,78.45a.207.207,0,0,1-.12-.38l8.8-6-11,6.35a.22.22,0,0,1-.23-.37l11-7.43L39.58,76.83a.21.21,0,0,1-.29-.07.2.2,0,0,1,.05-.28L52.18,67l-12.6,7.3a.23.23,0,0,1-.29-.07.22.22,0,0,1,.05-.29l12.72-9.29L39.57,71.86a.214.214,0,0,1-.23-.36L52.21,62,39.57,69.3a.2.2,0,0,1-.28-.07.22.22,0,0,1,.05-.29l12.3-8.76-12.07,7a.21.21,0,0,1-.23-.35L52,57.61,39.57,64.76a.21.21,0,0,1-.29-.07.22.22,0,0,1,.06-.29L50.26,57,39.57,63.2a.21.21,0,0,1-.29-.07.22.22,0,0,1,.06-.29l11.48-7.9-11.25,6.5a.214.214,0,0,1-.23-.36L50,53.9l-10.46,6a.21.21,0,0,1-.29-.07.22.22,0,0,1,.06-.29l10.57-7.07-10.34,6a.214.214,0,0,1-.23-.36l11-7.38L39.57,57a.22.22,0,0,1-.23-.37l11.47-7.68L39.57,55.4a.21.21,0,0,1-.29-.07.22.22,0,0,1,.06-.29l11.81-7.76L39.57,54a.211.211,0,1,1-.22-.36l42.7-26.15L39.56,52a.2.2,0,0,1-.28-.07.21.21,0,0,1,.07-.29l41-25L39.56,50.15a.21.21,0,0,1-.29-.08.22.22,0,0,1,.08-.29L83.11,22.7,39.56,47.84a.213.213,0,0,1-.21-.37l55-32.86L39.56,46.24a.208.208,0,1,1-.21-.36L98.26,10.12,39.56,44a.21.21,0,0,1-.29-.08.22.22,0,0,1,.08-.29L93.39,11,39.56,42.05a.211.211,0,1,1-.22-.36L66.56,24l-27,15.59a.22.22,0,0,1-.29-.08.21.21,0,0,1,.07-.29l19.19-12-19,11a.21.21,0,0,1-.29-.07.22.22,0,0,1,.06-.29L55.77,26.35,39.56,35.71a.229.229,0,0,1-.28-.35l9.56-7.58-9.32,5.39a.23.23,0,0,1-.28-.06.22.22,0,0,1,0-.29l4.09-3.68-3.84,2.22a.23.23,0,0,1-.24,0,.22.22,0,0,1-.08-.22l.31-1.27a.213.213,0,1,1-.21-.37l.43-.24a.2.2,0,0,1,.23,0,.21.21,0,0,1,.08.22l-.31,1.26,5.17-3a.211.211,0,1,1,.25.34l-4.02,3.7L51.17,26a.212.212,0,0,1,.24.35L41.85,33.9,60,23.44a.21.21,0,0,1,.29.07.22.22,0,0,1-.06.29L43.75,35.22,68.29,21.05a.211.211,0,1,1,.22.36L49.32,33.46l24-13.86a.22.22,0,0,1,.29.08.21.21,0,0,1-.07.29L46.32,37.66,111.48,0a.2.2,0,0,1,.28.08.21.21,0,0,1-.07.29l-54,32.67L114.87,0a.21.21,0,0,1,.29.08.21.21,0,0,1-.07.29L56.17,36.16,118.74,0a.21.21,0,0,1,.29.07.23.23,0,0,1-.07.3L64,33.27,95,15.38a.211.211,0,1,1,.22.36L51.39,42.83,95.18,17.54a.22.22,0,0,1,.22.37l-41,25L96.1,18.83a.22.22,0,0,1,.22.37L53.64,45.35l3.67-2.11a.211.211,0,0,1,.22.36l-11.8,7.75,10.38-6a.22.22,0,0,1,.29.07.21.21,0,0,1-.07.29L44.87,53.4l10.62-6.13a.21.21,0,0,1,.29.07.22.22,0,0,1-.06.29L44.74,55,55.3,48.9a.214.214,0,0,1,.23.36L45,56.34l10.3-6a.21.21,0,0,1,.28.08.2.2,0,0,1-.06.28L44.8,57.93l10.46-6a.2.2,0,0,1,.28.07.21.21,0,0,1-.06.29L44,60.15l11.26-6.5a.21.21,0,0,1,.28.07.2.2,0,0,1-.06.29L44.57,61.38l10.69-6.17a.22.22,0,0,1,.28.07.21.21,0,0,1,0,.29L42.87,64.73l12.39-7.15a.23.23,0,0,1,.29.07.22.22,0,0,1-.06.29L43.2,66.7l12.06-7a.21.21,0,0,1,.29.07.2.2,0,0,1,0,.28L42.62,69.6l12.65-7.3a.235.235,0,0,1,.28.36L42.78,72l12.49-7.21a.21.21,0,0,1,.28.06.22.22,0,0,1,0,.29L42.67,74.55l12.6-7.27a.21.21,0,0,1,.29.07.22.22,0,0,1-.06.29l-11,7.44,10.76-6.22a.214.214,0,0,1,.23.36l-8.8,6,8.57-5a.22.22,0,0,1,.29.07.21.21,0,0,1-.05.28L49,75.88l6.27-3.62a.22.22,0,0,1,.27,0,.23.23,0,0,1,0,.28l-2.8,3.15,2.54-1.46a.21.21,0,0,1,.23,0,.2.2,0,0,1,.08.21l-.21,1.13a.22.22,0,0,1,.19.1.21.21,0,0,1-.08.29l-.3.18a.24.24,0,0,1-.23,0,.21.21,0,0,1-.08-.22l.21-1.09-3.27,1.89a.21.21,0,0,1-.27,0,.23.23,0,0,1,0-.28l2.8-3.15L46.88,77.6a.212.212,0,1,1-.24-.35L53.14,72,42,78.43Z" transform="translate(0.324)"/><path class="a" d="M76,18.86a.214.214,0,0,1-.12-.39L97.78,4,76.09,16.56a.214.214,0,1,1-.23-.36L94.26,4.11,76.09,14.61a.22.22,0,0,1-.29-.08.21.21,0,0,1,.06-.28l15.28-10L76.09,13a.214.214,0,0,1-.23-.36L89.79,2.78l-13.7,7.91a.21.21,0,0,1-.29-.07.2.2,0,0,1,0-.28L86.71,2.46,76.09,8.6a.23.23,0,0,1-.29-.07.21.21,0,0,1,.06-.29l7.79-5.52L76.09,7.09A.23.23,0,0,1,75.81,7a.22.22,0,0,1,0-.29l6-5.25L76.09,4.8a.22.22,0,0,1-.28-.06.2.2,0,0,1,0-.28l3.31-3.14-3,1.76a.22.22,0,0,1-.22,0,.2.2,0,0,1-.1-.2L76,.58a.25.25,0,0,1-.16-.11.22.22,0,0,1,.08-.29l.21-.12a.22.22,0,0,1,.22,0,.21.21,0,0,1,.1.2l-.18,2.25L80.48.06a.2.2,0,0,1,.27.05.2.2,0,0,1,0,.28l-3.3,3.14,6-3.48a.229.229,0,0,1,.28.35l-6,5.25L87.42.05a.22.22,0,0,1,.28.07.22.22,0,0,1,0,.29L79.9,5.93,90,.05a.22.22,0,0,1,.29.07.22.22,0,0,1,0,.29L79.41,8.28,93.67.05A.2.2,0,0,1,94,.12a.21.21,0,0,1-.06.29L80,10.23,97.58.05a.21.21,0,0,1,.29.07.22.22,0,0,1-.06.29l-15.28,10L100.45.05a.21.21,0,0,1,.29.07.22.22,0,0,1-.06.29L82.27,12.49,103.84.05a.2.2,0,0,1,.28.07.21.21,0,0,1-.06.29L82.14,14.84,107.77,0a.21.21,0,0,1,.29.08.21.21,0,0,1-.07.29L76.09,18.83a.23.23,0,0,1-.09.03Z" transform="translate(0.422)"/><path class="a" d="M64.81,65.37a.23.23,0,0,1-.17-.37l4.7-4.18-6.59,3.8a.229.229,0,0,1-.28-.35l5.67-4.44-7.69,4.45a.23.23,0,0,1-.29-.07.21.21,0,0,1,.05-.28l7.82-6.29L58.81,63a.231.231,0,0,1-.28-.35L67.37,56l-7.5,4.33a.22.22,0,0,1-.29-.06.21.21,0,0,1,.06-.29l6.91-5-6.23,3.59a.21.21,0,0,1-.24-.34l7-5.84L60.72,56a.21.21,0,0,1-.28-.06.2.2,0,0,1,0-.28l5.12-4.19-4.68,2.7a.21.21,0,0,1-.26,0,.23.23,0,0,1,0-.26l2.18-3.33-.69.4a.2.2,0,0,1-.29-.08.21.21,0,0,1,.07-.29l1.47-.84a.21.21,0,0,1,.26,0,.23.23,0,0,1,0,.27l-2.18,3.32,6.17-3.56a.21.21,0,0,1,.28.06.22.22,0,0,1,0,.29l-5.12,4.18L69,50.73a.22.22,0,0,1,.28.07.2.2,0,0,1,0,.28l-7,5.84,7.64-4.41a.214.214,0,0,1,.23.36l-6.91,5,6.88-4a.2.2,0,0,1,.28.07.21.21,0,0,1,0,.28L61.51,61l8.77-5.07a.22.22,0,0,1,.28.07.19.19,0,0,1,0,.28L62.7,62.52,70.61,58a.229.229,0,0,1,.28.35l-5.67,4.44L71,59.41a.225.225,0,0,1,.28.34l-4.7,4.18,5-2.87a.2.2,0,0,1,.24,0,.22.22,0,0,1,.07.23L71,63.61l1.3-.74a.21.21,0,0,1,.29.07.22.22,0,0,1-.08.29l-1.79,1A.206.206,0,0,1,70.4,64l.81-2.3-6.29,3.63a.2.2,0,0,1-.11.04Z" transform="translate(0.29 0.249)"/><path class="a" d="M150.92,65.37a.23.23,0,0,1-.17-.37l4.7-4.18-6.59,3.8a.212.212,0,1,1-.24-.35l5.67-4.44-7.7,4.45a.231.231,0,0,1-.28-.35l7.83-6.29L144.92,63a.214.214,0,1,1-.23-.36L153.48,56,146,60.3a.214.214,0,0,1-.23-.36l6.92-5-6.24,3.6a.231.231,0,0,1-.28-.35l7-5.84L146.82,56a.212.212,0,1,1-.24-.35l5.12-4.19L147,54.17a.21.21,0,0,1-.26,0,.22.22,0,0,1,0-.27l2.19-3.33-.7.4a.213.213,0,1,1-.21-.37l1.47-.84a.21.21,0,0,1,.28.3l-2.18,3.33,6.18-3.57a.21.21,0,0,1,.28.06.22.22,0,0,1,0,.29l-5.13,4.18,6.22-3.59a.22.22,0,0,1,.28.07.2.2,0,0,1,0,.28l-7,5.84L156,52.51a.214.214,0,0,1,.23.36l-6.91,5,6.87-4a.213.213,0,0,1,.24.35L147.63,61l8.76-5.07a.22.22,0,0,1,.28.07.2.2,0,0,1,0,.28l-7.83,6.3L156.72,58a.2.2,0,1,1,.28.29l-5.67,4.44,5.78-3.34a.225.225,0,0,1,.28.34l-4.7,4.18,5-2.88a.21.21,0,0,1,.24,0,.2.2,0,0,1,.07.23l-.81,2.3,1.3-.75a.22.22,0,0,1,.29.08.21.21,0,0,1-.08.29l-1.79,1a.25.25,0,0,1-.25,0,.22.22,0,0,1-.06-.24l.81-2.3L151,65.34A.2.2,0,0,1,150.92,65.37Z" transform="translate(0.815 0.249)"/><path class="a" d="M150.92,88a.23.23,0,0,1-.17-.37l4.7-4.18-6.59,3.8a.212.212,0,1,1-.24-.35l5.67-4.44-7.7,4.45a.231.231,0,0,1-.28-.35l7.83-6.29-9.29,5.36a.214.214,0,0,1-.23-.36l8.79-6.68L146,82.9a.214.214,0,0,1-.23-.36l6.91-5-6.23,3.6a.231.231,0,0,1-.28-.35l7-5.84-6.36,3.67a.229.229,0,0,1-.28-.35l5.12-4.19L147,76.77a.21.21,0,0,1-.26,0,.22.22,0,0,1,0-.27l2.19-3.33-.69.4a.215.215,0,1,1-.22-.37l1.47-.84a.21.21,0,0,1,.26,0,.23.23,0,0,1,0,.27L147.59,76l6.18-3.57a.21.21,0,0,1,.28.06.22.22,0,0,1,0,.29l-5.13,4.19,6.22-3.6a.22.22,0,0,1,.28.07.2.2,0,0,1,0,.28l-7,5.84L156,75.11a.21.21,0,0,1,.29.07.22.22,0,0,1-.06.29l-6.91,5,6.87-4a.21.21,0,0,1,.29.07.2.2,0,0,1-.05.28l-8.8,6.69,8.77-5.06a.21.21,0,0,1,.28.06.22.22,0,0,1,0,.29l-7.83,6.29,7.92-4.57a.21.21,0,0,1,.28.06.23.23,0,0,1,0,.29l-5.67,4.44L157.07,82a.225.225,0,0,1,.28.34l-4.7,4.18,5-2.87a.2.2,0,0,1,.24,0,.22.22,0,0,1,.07.23l-.81,2.3,1.3-.75a.22.22,0,0,1,.29.08.21.21,0,0,1-.08.29l-1.79,1a.23.23,0,0,1-.25,0,.22.22,0,0,1-.06-.24l.8-2.3L151,87.94A.2.2,0,0,1,150.92,88Z" transform="translate(0.815 0.362)"/></g></svg>